%TF.GenerationSoftware,Altium Limited,Altium Designer,22.4.2 (48)*%
G04 Layer_Color=8388736*
%FSLAX26Y26*%
%MOIN*%
%TF.SameCoordinates,EEB37D52-3F05-4F2D-94FA-AFEEE7D9EDB4*%
%TF.FilePolarity,Negative*%
%TF.FileFunction,Soldermask,Top*%
%TF.Part,Single*%
G01*
G75*
%TA.AperFunction,SMDPad,CuDef*%
%ADD63R,0.039496X0.039496*%
%ADD64R,0.220598X0.220598*%
%TA.AperFunction,ConnectorPad*%
%ADD65R,0.055244X0.025716*%
%ADD66R,0.025716X0.055244*%
%TA.AperFunction,SMDPad,CuDef*%
G04:AMPARAMS|DCode=67|XSize=51.307mil|YSize=47.37mil|CornerRadius=6.953mil|HoleSize=0mil|Usage=FLASHONLY|Rotation=180.000|XOffset=0mil|YOffset=0mil|HoleType=Round|Shape=RoundedRectangle|*
%AMROUNDEDRECTD67*
21,1,0.051307,0.033465,0,0,180.0*
21,1,0.037401,0.047370,0,0,180.0*
1,1,0.013906,-0.018701,0.016732*
1,1,0.013906,0.018701,0.016732*
1,1,0.013906,0.018701,-0.016732*
1,1,0.013906,-0.018701,-0.016732*
%
%ADD67ROUNDEDRECTD67*%
%ADD68R,0.039496X0.017843*%
%ADD69R,0.049339X0.092646*%
%ADD70R,0.059181X0.015874*%
%ADD71R,0.015874X0.023748*%
G04:AMPARAMS|DCode=72|XSize=23.748mil|YSize=55.244mil|CornerRadius=5.968mil|HoleSize=0mil|Usage=FLASHONLY|Rotation=90.000|XOffset=0mil|YOffset=0mil|HoleType=Round|Shape=RoundedRectangle|*
%AMROUNDEDRECTD72*
21,1,0.023748,0.043307,0,0,90.0*
21,1,0.011811,0.055244,0,0,90.0*
1,1,0.011937,0.021654,0.005906*
1,1,0.011937,0.021654,-0.005906*
1,1,0.011937,-0.021654,-0.005906*
1,1,0.011937,-0.021654,0.005906*
%
%ADD72ROUNDEDRECTD72*%
G04:AMPARAMS|DCode=73|XSize=51.307mil|YSize=47.37mil|CornerRadius=6.953mil|HoleSize=0mil|Usage=FLASHONLY|Rotation=90.000|XOffset=0mil|YOffset=0mil|HoleType=Round|Shape=RoundedRectangle|*
%AMROUNDEDRECTD73*
21,1,0.051307,0.033465,0,0,90.0*
21,1,0.037401,0.047370,0,0,90.0*
1,1,0.013906,0.016732,0.018701*
1,1,0.013906,0.016732,-0.018701*
1,1,0.013906,-0.016732,-0.018701*
1,1,0.013906,-0.016732,0.018701*
%
%ADD73ROUNDEDRECTD73*%
%ADD74O,0.025716X0.063118*%
G04:AMPARAMS|DCode=75|XSize=86.74mil|YSize=126.11mil|CornerRadius=23.685mil|HoleSize=0mil|Usage=FLASHONLY|Rotation=0.000|XOffset=0mil|YOffset=0mil|HoleType=Round|Shape=RoundedRectangle|*
%AMROUNDEDRECTD75*
21,1,0.086740,0.078740,0,0,0.0*
21,1,0.039370,0.126110,0,0,0.0*
1,1,0.047370,0.019685,-0.039370*
1,1,0.047370,-0.019685,-0.039370*
1,1,0.047370,-0.019685,0.039370*
1,1,0.047370,0.019685,0.039370*
%
%ADD75ROUNDEDRECTD75*%
G04:AMPARAMS|DCode=76|XSize=51.307mil|YSize=47.37mil|CornerRadius=7.937mil|HoleSize=0mil|Usage=FLASHONLY|Rotation=90.000|XOffset=0mil|YOffset=0mil|HoleType=Round|Shape=RoundedRectangle|*
%AMROUNDEDRECTD76*
21,1,0.051307,0.031496,0,0,90.0*
21,1,0.035433,0.047370,0,0,90.0*
1,1,0.015874,0.015748,0.017717*
1,1,0.015874,0.015748,-0.017717*
1,1,0.015874,-0.015748,-0.017717*
1,1,0.015874,-0.015748,0.017717*
%
%ADD76ROUNDEDRECTD76*%
%TA.AperFunction,ConnectorPad*%
%ADD77R,0.053276X0.019811*%
%ADD78R,0.053276X0.031622*%
%TA.AperFunction,SMDPad,CuDef*%
G04:AMPARAMS|DCode=79|XSize=39.496mil|YSize=65.087mil|CornerRadius=0mil|HoleSize=0mil|Usage=FLASHONLY|Rotation=213.000|XOffset=0mil|YOffset=0mil|HoleType=Round|Shape=Rectangle|*
%AMROTATEDRECTD79*
4,1,4,-0.001162,0.038049,0.034286,-0.016538,0.001162,-0.038049,-0.034286,0.016538,-0.001162,0.038049,0.0*
%
%ADD79ROTATEDRECTD79*%

G04:AMPARAMS|DCode=80|XSize=43.433mil|YSize=58mil|CornerRadius=0mil|HoleSize=0mil|Usage=FLASHONLY|Rotation=123.000|XOffset=0mil|YOffset=0mil|HoleType=Round|Shape=Rectangle|*
%AMROTATEDRECTD80*
4,1,4,0.036149,-0.002418,-0.012494,-0.034008,-0.036149,0.002418,0.012494,0.034008,0.036149,-0.002418,0.0*
%
%ADD80ROTATEDRECTD80*%

%ADD81R,0.078866X0.047370*%
G04:AMPARAMS|DCode=82|XSize=51.307mil|YSize=47.37mil|CornerRadius=7.937mil|HoleSize=0mil|Usage=FLASHONLY|Rotation=180.000|XOffset=0mil|YOffset=0mil|HoleType=Round|Shape=RoundedRectangle|*
%AMROUNDEDRECTD82*
21,1,0.051307,0.031496,0,0,180.0*
21,1,0.035433,0.047370,0,0,180.0*
1,1,0.015874,-0.017717,0.015748*
1,1,0.015874,0.017717,0.015748*
1,1,0.015874,0.017717,-0.015748*
1,1,0.015874,-0.017717,-0.015748*
%
%ADD82ROUNDEDRECTD82*%
%ADD83R,0.031622X0.017843*%
%ADD84R,0.017843X0.031622*%
%ADD85R,0.076898X0.065087*%
%ADD86R,0.037528X0.019811*%
%ADD87R,0.039496X0.023748*%
%ADD88R,0.023748X0.039496*%
G04:AMPARAMS|DCode=89|XSize=43.433mil|YSize=58mil|CornerRadius=0mil|HoleSize=0mil|Usage=FLASHONLY|Rotation=57.000|XOffset=0mil|YOffset=0mil|HoleType=Round|Shape=Rectangle|*
%AMROTATEDRECTD89*
4,1,4,0.012494,-0.034008,-0.036149,-0.002418,-0.012494,0.034008,0.036149,0.002418,0.012494,-0.034008,0.0*
%
%ADD89ROTATEDRECTD89*%

G04:AMPARAMS|DCode=90|XSize=39.496mil|YSize=65.087mil|CornerRadius=0mil|HoleSize=0mil|Usage=FLASHONLY|Rotation=147.000|XOffset=0mil|YOffset=0mil|HoleType=Round|Shape=Rectangle|*
%AMROTATEDRECTD90*
4,1,4,0.034286,0.016538,-0.001162,-0.038049,-0.034286,-0.016538,0.001162,0.038049,0.034286,0.016538,0.0*
%
%ADD90ROTATEDRECTD90*%

%ADD91C,0.014693*%
%TA.AperFunction,ConnectorPad*%
G04:AMPARAMS|DCode=92|XSize=39.496mil|YSize=65.087mil|CornerRadius=0mil|HoleSize=0mil|Usage=FLASHONLY|Rotation=33.000|XOffset=0mil|YOffset=0mil|HoleType=Round|Shape=Rectangle|*
%AMROTATEDRECTD92*
4,1,4,0.001162,-0.038049,-0.034286,0.016538,-0.001162,0.038049,0.034286,-0.016538,0.001162,-0.038049,0.0*
%
%ADD92ROTATEDRECTD92*%

G04:AMPARAMS|DCode=93|XSize=43.433mil|YSize=58mil|CornerRadius=0mil|HoleSize=0mil|Usage=FLASHONLY|Rotation=303.000|XOffset=0mil|YOffset=0mil|HoleType=Round|Shape=Rectangle|*
%AMROTATEDRECTD93*
4,1,4,-0.036149,0.002418,0.012494,0.034008,0.036149,-0.002418,-0.012494,-0.034008,-0.036149,0.002418,0.0*
%
%ADD93ROTATEDRECTD93*%

%TA.AperFunction,SMDPad,CuDef*%
G04:AMPARAMS|DCode=94|XSize=51.307mil|YSize=47.37mil|CornerRadius=6.953mil|HoleSize=0mil|Usage=FLASHONLY|Rotation=60.000|XOffset=0mil|YOffset=0mil|HoleType=Round|Shape=RoundedRectangle|*
%AMROUNDEDRECTD94*
21,1,0.051307,0.033465,0,0,60.0*
21,1,0.037401,0.047370,0,0,60.0*
1,1,0.013906,0.023841,0.007829*
1,1,0.013906,0.005140,-0.024561*
1,1,0.013906,-0.023841,-0.007829*
1,1,0.013906,-0.005140,0.024561*
%
%ADD94ROUNDEDRECTD94*%
G04:AMPARAMS|DCode=95|XSize=51.307mil|YSize=47.37mil|CornerRadius=7.937mil|HoleSize=0mil|Usage=FLASHONLY|Rotation=60.000|XOffset=0mil|YOffset=0mil|HoleType=Round|Shape=RoundedRectangle|*
%AMROUNDEDRECTD95*
21,1,0.051307,0.031496,0,0,60.0*
21,1,0.035433,0.047370,0,0,60.0*
1,1,0.015874,0.022497,0.007469*
1,1,0.015874,0.004780,-0.023217*
1,1,0.015874,-0.022497,-0.007469*
1,1,0.015874,-0.004780,0.023217*
%
%ADD95ROUNDEDRECTD95*%
%TA.AperFunction,ConnectorPad*%
G04:AMPARAMS|DCode=96|XSize=43.433mil|YSize=58mil|CornerRadius=0mil|HoleSize=0mil|Usage=FLASHONLY|Rotation=237.000|XOffset=0mil|YOffset=0mil|HoleType=Round|Shape=Rectangle|*
%AMROTATEDRECTD96*
4,1,4,-0.012494,0.034008,0.036149,0.002418,0.012494,-0.034008,-0.036149,-0.002418,-0.012494,0.034008,0.0*
%
%ADD96ROTATEDRECTD96*%

G04:AMPARAMS|DCode=97|XSize=39.496mil|YSize=65.087mil|CornerRadius=0mil|HoleSize=0mil|Usage=FLASHONLY|Rotation=327.000|XOffset=0mil|YOffset=0mil|HoleType=Round|Shape=Rectangle|*
%AMROTATEDRECTD97*
4,1,4,-0.034286,-0.016538,0.001162,0.038049,0.034286,0.016538,-0.001162,-0.038049,-0.034286,-0.016538,0.0*
%
%ADD97ROTATEDRECTD97*%

%TA.AperFunction,ComponentPad*%
%ADD98C,0.033591*%
%ADD99O,0.090677X0.049339*%
%ADD100O,0.078866X0.047370*%
D63*
X232284Y610236D02*
D03*
X-232284Y216535D02*
D03*
Y610236D02*
D03*
X232284Y216535D02*
D03*
D64*
X0Y413386D02*
D03*
D65*
X-246063Y570866D02*
D03*
Y539370D02*
D03*
Y507874D02*
D03*
Y476378D02*
D03*
Y444882D02*
D03*
Y413386D02*
D03*
Y381890D02*
D03*
Y350394D02*
D03*
Y318898D02*
D03*
Y287401D02*
D03*
Y255905D02*
D03*
X246063Y570866D02*
D03*
Y539370D02*
D03*
Y507874D02*
D03*
Y476378D02*
D03*
Y444882D02*
D03*
Y413386D02*
D03*
Y381890D02*
D03*
Y350394D02*
D03*
Y318898D02*
D03*
Y287401D02*
D03*
Y255905D02*
D03*
D66*
X-188976Y620079D02*
D03*
X-157480D02*
D03*
X-125984D02*
D03*
X-94488D02*
D03*
X-62992D02*
D03*
X-31496D02*
D03*
X0D02*
D03*
X31496D02*
D03*
X62992D02*
D03*
X94488D02*
D03*
X125984D02*
D03*
X157480D02*
D03*
X188976D02*
D03*
Y206693D02*
D03*
X157480D02*
D03*
X125984D02*
D03*
X94488D02*
D03*
X62992D02*
D03*
X31496D02*
D03*
X0D02*
D03*
X-31496D02*
D03*
X-62992D02*
D03*
X-94488D02*
D03*
X-125984D02*
D03*
X-157480D02*
D03*
X-188976D02*
D03*
D67*
X-9944Y-323001D02*
D03*
Y-260009D02*
D03*
X-279528Y-466535D02*
D03*
Y-403543D02*
D03*
X378000Y-84504D02*
D03*
Y-147496D02*
D03*
X19685Y3937D02*
D03*
Y66929D02*
D03*
X370079Y358268D02*
D03*
Y295276D02*
D03*
X429134Y232284D02*
D03*
Y295276D02*
D03*
X-326772Y275591D02*
D03*
Y212598D02*
D03*
X-385827Y330709D02*
D03*
Y267716D02*
D03*
X-342520Y-78740D02*
D03*
Y-15748D02*
D03*
X-354331Y-283465D02*
D03*
Y-346457D02*
D03*
X-220472Y-403543D02*
D03*
Y-466535D02*
D03*
X342520Y-503937D02*
D03*
Y-440945D02*
D03*
D68*
X222638Y39370D02*
D03*
Y19685D02*
D03*
Y0D02*
D03*
Y-19685D02*
D03*
Y-39370D02*
D03*
X320669Y39370D02*
D03*
Y19685D02*
D03*
Y0D02*
D03*
Y-19685D02*
D03*
Y-39370D02*
D03*
D69*
X271654Y0D02*
D03*
D70*
X-291339Y-177165D02*
D03*
D71*
X-267717Y-154134D02*
D03*
X-283465D02*
D03*
X-299213D02*
D03*
X-314961D02*
D03*
X-267717Y-200197D02*
D03*
X-283465D02*
D03*
X-299213D02*
D03*
X-314961D02*
D03*
D72*
X283464Y-337599D02*
D03*
Y-312008D02*
D03*
Y-286417D02*
D03*
Y-260827D02*
D03*
X59055Y-337599D02*
D03*
Y-312008D02*
D03*
Y-286417D02*
D03*
Y-260827D02*
D03*
D73*
X-580551Y-161417D02*
D03*
X-643543D02*
D03*
X59055Y-200787D02*
D03*
X122047D02*
D03*
X251969Y-94488D02*
D03*
X314961D02*
D03*
X200787Y125984D02*
D03*
X137795D02*
D03*
X-322835Y452756D02*
D03*
X-385827D02*
D03*
X-283465Y118110D02*
D03*
X-346457D02*
D03*
X-448819Y208661D02*
D03*
X-385827D02*
D03*
X-283465Y59055D02*
D03*
X-346457D02*
D03*
X-185039Y-149606D02*
D03*
X-122047D02*
D03*
X-425197Y-212598D02*
D03*
X-362205D02*
D03*
X122047Y-405512D02*
D03*
X59055D02*
D03*
X-59055Y-397638D02*
D03*
X3937D02*
D03*
X59055Y-464567D02*
D03*
X122047D02*
D03*
D74*
X-660433Y-92520D02*
D03*
X-634842D02*
D03*
X-609252D02*
D03*
X-583661D02*
D03*
X-558071D02*
D03*
X-532480D02*
D03*
X-506890D02*
D03*
X-481299D02*
D03*
X-660433Y139764D02*
D03*
X-634842D02*
D03*
X-609252D02*
D03*
X-583661D02*
D03*
X-558071D02*
D03*
X-532480D02*
D03*
X-506890D02*
D03*
X-481299D02*
D03*
D75*
X-78740Y-622047D02*
D03*
X78740D02*
D03*
D76*
X3937Y-200787D02*
D03*
X-59055D02*
D03*
X196850Y-141732D02*
D03*
X133858D02*
D03*
X318898Y98425D02*
D03*
X255906D02*
D03*
X-322835Y511811D02*
D03*
X-385827D02*
D03*
X-200787Y35433D02*
D03*
X-137795D02*
D03*
Y-23622D02*
D03*
X-200787D02*
D03*
Y-86614D02*
D03*
X-137795D02*
D03*
Y94488D02*
D03*
X-200787D02*
D03*
X-153543Y-208661D02*
D03*
X-216536D02*
D03*
X-232283Y-283465D02*
D03*
X-295276D02*
D03*
Y-342520D02*
D03*
X-232283D02*
D03*
X-59055Y-464567D02*
D03*
X3937D02*
D03*
X177165Y-492126D02*
D03*
X240157D02*
D03*
X346457Y-204724D02*
D03*
X283464D02*
D03*
X340327Y-263589D02*
D03*
X403319D02*
D03*
D77*
X442717Y-49213D02*
D03*
Y-29528D02*
D03*
Y68898D02*
D03*
Y49213D02*
D03*
Y29528D02*
D03*
Y-9842D02*
D03*
Y9842D02*
D03*
Y-68898D02*
D03*
D78*
Y94488D02*
D03*
Y125984D02*
D03*
Y-94488D02*
D03*
Y-125984D02*
D03*
D79*
X485935Y466817D02*
D03*
X630671Y243942D02*
D03*
D80*
X451034Y384300D02*
D03*
X541092Y245622D02*
D03*
D81*
X125984Y-41339D02*
D03*
Y57087D02*
D03*
D82*
X-419134Y149606D02*
D03*
Y86614D02*
D03*
X-326772Y330709D02*
D03*
Y393701D02*
D03*
X-283465Y-78740D02*
D03*
Y-15748D02*
D03*
X-419134Y-39370D02*
D03*
Y-102362D02*
D03*
X341773Y-323026D02*
D03*
Y-386018D02*
D03*
D83*
X-51181Y-68898D02*
D03*
Y-88583D02*
D03*
Y-108268D02*
D03*
Y-127953D02*
D03*
X51181D02*
D03*
Y-108268D02*
D03*
Y-88583D02*
D03*
Y-68898D02*
D03*
D84*
X-19685Y-139764D02*
D03*
X0D02*
D03*
X19685D02*
D03*
Y-57087D02*
D03*
X0D02*
D03*
X-19685D02*
D03*
D85*
X-122047Y-295276D02*
D03*
D86*
X-179134Y-265748D02*
D03*
Y-285433D02*
D03*
Y-305118D02*
D03*
Y-324803D02*
D03*
X-64961Y-265748D02*
D03*
Y-285433D02*
D03*
Y-305118D02*
D03*
Y-324803D02*
D03*
D87*
X242126Y-417323D02*
D03*
X175197Y-437008D02*
D03*
Y-397638D02*
D03*
D88*
X-145669Y-468504D02*
D03*
X-165354Y-401575D02*
D03*
X-125984D02*
D03*
D89*
X451034Y-384300D02*
D03*
X541092Y-245622D02*
D03*
D90*
X485935Y-466817D02*
D03*
X630671Y-243942D02*
D03*
D91*
X314961Y-578740D02*
D03*
Y-594488D02*
D03*
X299213Y-578740D02*
D03*
Y-594488D02*
D03*
D92*
X-485935Y-466817D02*
D03*
X-630671Y-243942D02*
D03*
D93*
X-451034Y-384300D02*
D03*
X-541092Y-245622D02*
D03*
D94*
X-277273Y-548827D02*
D03*
X-331825Y-517331D02*
D03*
D95*
X-307369Y-602362D02*
D03*
X-361922Y-570866D02*
D03*
D96*
X-451034Y384300D02*
D03*
X-541092Y245622D02*
D03*
D97*
X-485935Y466817D02*
D03*
X-630671Y243942D02*
D03*
D98*
X485039Y-113779D02*
D03*
Y113779D02*
D03*
D99*
X465354Y170079D02*
D03*
Y-170079D02*
D03*
D100*
X629921Y170079D02*
D03*
Y-170079D02*
D03*
%TF.MD5,36144bf33262a5a38084c2f76dad2cd5*%
M02*
