%TF.GenerationSoftware,Altium Limited,Altium Designer,22.4.2 (48)*%
G04 Layer_Physical_Order=2*
G04 Layer_Color=16777062*
%FSLAX26Y26*%
%MOIN*%
%TF.SameCoordinates,EEB37D52-3F05-4F2D-94FA-AFEEE7D9EDB4*%
%TF.FilePolarity,Positive*%
%TF.FileFunction,Copper,L2,Inr,Signal*%
%TF.Part,Single*%
G01*
G75*
%TA.AperFunction,ComponentPad*%
%ADD52C,0.025591*%
%ADD53O,0.082677X0.041339*%
%ADD54O,0.070866X0.039370*%
%TA.AperFunction,ViaPad*%
%ADD55C,0.023622*%
G36*
X69740Y708081D02*
X115901Y702004D01*
X161566Y692920D01*
X206540Y680870D01*
X250628Y665904D01*
X293644Y648086D01*
X335402Y627493D01*
X375724Y604213D01*
X414437Y578346D01*
X451375Y550002D01*
X486381Y519303D01*
X519303Y486381D01*
X550002Y451375D01*
X578346Y414437D01*
X604213Y375724D01*
X627493Y335402D01*
X648086Y293644D01*
X665904Y250628D01*
X680870Y206540D01*
X692920Y161566D01*
X702004Y115901D01*
X708081Y69740D01*
X711126Y23280D01*
Y-23280D01*
X708081Y-69740D01*
X702004Y-115901D01*
X692920Y-161566D01*
X680870Y-206540D01*
X665904Y-250628D01*
X648086Y-293644D01*
X627493Y-335402D01*
X604213Y-375724D01*
X578346Y-414437D01*
X550002Y-451375D01*
X519303Y-486381D01*
X486381Y-519303D01*
X451375Y-550002D01*
X414437Y-578346D01*
X375724Y-604213D01*
X335402Y-627493D01*
X293644Y-648086D01*
X250628Y-665904D01*
X206540Y-680870D01*
X161566Y-692920D01*
X115901Y-702004D01*
X69740Y-708081D01*
X23280Y-711126D01*
X-23280D01*
X-69740Y-708081D01*
X-115901Y-702004D01*
X-161566Y-692920D01*
X-206540Y-680870D01*
X-250628Y-665904D01*
X-293644Y-648086D01*
X-335402Y-627493D01*
X-375724Y-604213D01*
X-414437Y-578346D01*
X-451375Y-550002D01*
X-486381Y-519303D01*
X-519303Y-486381D01*
X-550002Y-451375D01*
X-578346Y-414437D01*
X-604213Y-375724D01*
X-627493Y-335402D01*
X-648086Y-293644D01*
X-665904Y-250628D01*
X-680870Y-206540D01*
X-692920Y-161566D01*
X-702004Y-115901D01*
X-708081Y-69740D01*
X-711126Y-23280D01*
Y23280D01*
X-708081Y69740D01*
X-702004Y115901D01*
X-692920Y161566D01*
X-680870Y206540D01*
X-665904Y250628D01*
X-648086Y293644D01*
X-627493Y335402D01*
X-604213Y375724D01*
X-578346Y414437D01*
X-550002Y451375D01*
X-519303Y486381D01*
X-486381Y519303D01*
X-451375Y550002D01*
X-414437Y578346D01*
X-375724Y604213D01*
X-335402Y627493D01*
X-293644Y648086D01*
X-250628Y665904D01*
X-206540Y680870D01*
X-161566Y692920D01*
X-115901Y702004D01*
X-69740Y708081D01*
X-23280Y711126D01*
X23280D01*
X69740Y708081D01*
D02*
G37*
%LPC*%
G36*
X345864Y571929D02*
X339176D01*
X332997Y569370D01*
X328268Y564641D01*
X325709Y558462D01*
Y551774D01*
X328268Y545596D01*
X332997Y540866D01*
X339176Y538307D01*
X345864D01*
X352042Y540866D01*
X356771Y545596D01*
X359331Y551774D01*
Y558462D01*
X356771Y564641D01*
X352042Y569370D01*
X345864Y571929D01*
D02*
G37*
G36*
X400982Y548307D02*
X394294D01*
X388115Y545748D01*
X383386Y541019D01*
X380827Y534840D01*
Y528152D01*
X383386Y521973D01*
X388115Y517245D01*
X394294Y514685D01*
X400982D01*
X407160Y517245D01*
X411889Y521973D01*
X414449Y528152D01*
Y534840D01*
X411889Y541019D01*
X407160Y545748D01*
X400982Y548307D01*
D02*
G37*
G36*
X-282402Y529411D02*
Y512874D01*
X-265865D01*
X-268911Y520229D01*
X-275047Y526365D01*
X-282402Y529411D01*
D02*
G37*
G36*
X-292402D02*
X-299757Y526365D01*
X-305892Y520229D01*
X-308939Y512874D01*
X-292402D01*
Y529411D01*
D02*
G37*
G36*
X-421656Y528811D02*
X-428344D01*
X-434523Y526252D01*
X-439252Y521523D01*
X-441811Y515344D01*
Y508656D01*
X-439252Y502477D01*
X-434523Y497748D01*
X-428344Y495189D01*
X-421656D01*
X-415477Y497748D01*
X-410748Y502477D01*
X-408189Y508656D01*
Y515344D01*
X-410748Y521523D01*
X-415477Y526252D01*
X-421656Y528811D01*
D02*
G37*
G36*
X-265865Y502874D02*
X-282402D01*
Y486337D01*
X-275047Y489384D01*
X-268911Y495519D01*
X-265865Y502874D01*
D02*
G37*
G36*
X-292402D02*
X-308939D01*
X-305892Y495519D01*
X-299757Y489384D01*
X-292402Y486337D01*
Y502874D01*
D02*
G37*
G36*
X345864Y512874D02*
X339176D01*
X332997Y510315D01*
X328268Y505586D01*
X325709Y499407D01*
Y492719D01*
X328268Y486540D01*
X332997Y481811D01*
X339176Y479252D01*
X345864D01*
X352042Y481811D01*
X356771Y486540D01*
X359331Y492719D01*
Y499407D01*
X356771Y505586D01*
X352042Y510315D01*
X345864Y512874D01*
D02*
G37*
G36*
X-423000Y472537D02*
Y456000D01*
X-406463D01*
X-409510Y463355D01*
X-415645Y469490D01*
X-423000Y472537D01*
D02*
G37*
G36*
X-433000D02*
X-440355Y469490D01*
X-446490Y463355D01*
X-449537Y456000D01*
X-433000D01*
Y472537D01*
D02*
G37*
G36*
X400982Y485315D02*
X394294D01*
X388115Y482755D01*
X383386Y478026D01*
X380827Y471848D01*
Y465160D01*
X383386Y458981D01*
X388115Y454252D01*
X394294Y451693D01*
X400982D01*
X407160Y454252D01*
X411889Y458981D01*
X414449Y465160D01*
Y471848D01*
X411889Y478026D01*
X407160Y482755D01*
X400982Y485315D01*
D02*
G37*
G36*
X62399D02*
X55711D01*
X49532Y482755D01*
X44803Y478026D01*
X42244Y471848D01*
Y465160D01*
X44803Y458981D01*
X49532Y454252D01*
X55711Y451693D01*
X62399D01*
X68578Y454252D01*
X73307Y458981D01*
X75866Y465160D01*
Y471848D01*
X73307Y478026D01*
X68578Y482755D01*
X62399Y485315D01*
D02*
G37*
G36*
X3344D02*
X-3344D01*
X-9523Y482755D01*
X-14252Y478026D01*
X-16811Y471848D01*
Y465160D01*
X-14252Y458981D01*
X-9523Y454252D01*
X-3344Y451693D01*
X3344D01*
X9523Y454252D01*
X14252Y458981D01*
X16811Y465160D01*
Y471848D01*
X14252Y478026D01*
X9523Y482755D01*
X3344Y485315D01*
D02*
G37*
G36*
X-55711D02*
X-62399D01*
X-68578Y482755D01*
X-73307Y478026D01*
X-75866Y471848D01*
Y465160D01*
X-73307Y458981D01*
X-68578Y454252D01*
X-62399Y451693D01*
X-55711D01*
X-49532Y454252D01*
X-44803Y458981D01*
X-42244Y465160D01*
Y471848D01*
X-44803Y478026D01*
X-49532Y482755D01*
X-55711Y485315D01*
D02*
G37*
G36*
X-406463Y446000D02*
X-423000D01*
Y429463D01*
X-415645Y432510D01*
X-409510Y438645D01*
X-406463Y446000D01*
D02*
G37*
G36*
X-433000D02*
X-449537D01*
X-446490Y438645D01*
X-440355Y432510D01*
X-433000Y429463D01*
Y446000D01*
D02*
G37*
G36*
X345864Y453819D02*
X339176D01*
X332997Y451260D01*
X328268Y446531D01*
X325709Y440352D01*
Y433664D01*
X328268Y427485D01*
X332997Y422756D01*
X339176Y420197D01*
X345864D01*
X352042Y422756D01*
X356771Y427485D01*
X359331Y433664D01*
Y440352D01*
X356771Y446531D01*
X352042Y451260D01*
X345864Y453819D01*
D02*
G37*
G36*
X-520160Y434090D02*
X-526847D01*
X-533026Y431530D01*
X-537755Y426801D01*
X-540314Y420623D01*
Y413935D01*
X-537755Y407756D01*
X-533026Y403027D01*
X-526847Y400468D01*
X-520160D01*
X-513981Y403027D01*
X-509252Y407756D01*
X-506692Y413935D01*
Y420623D01*
X-509252Y426801D01*
X-513981Y431530D01*
X-520160Y434090D01*
D02*
G37*
G36*
X204131Y461693D02*
X197444D01*
X191265Y459134D01*
X186536Y454404D01*
X183976Y448226D01*
Y441538D01*
X186536Y435359D01*
X189554Y432341D01*
X190720Y429134D01*
X189554Y425927D01*
X186536Y422908D01*
X183976Y416730D01*
Y410042D01*
X186536Y403863D01*
X191265Y399134D01*
X197444Y396575D01*
X204131D01*
X210310Y399134D01*
X215039Y403863D01*
X217598Y410042D01*
Y416730D01*
X215039Y422908D01*
X212021Y425927D01*
X210854Y429134D01*
X212021Y432341D01*
X215039Y435359D01*
X217598Y441538D01*
Y448226D01*
X215039Y454404D01*
X210310Y459134D01*
X204131Y461693D01*
D02*
G37*
G36*
X-367856Y428147D02*
X-374544D01*
X-380723Y425588D01*
X-385452Y420859D01*
X-388011Y414680D01*
Y407993D01*
X-385452Y401814D01*
X-380723Y397085D01*
X-374544Y394526D01*
X-367856D01*
X-361678Y397085D01*
X-356949Y401814D01*
X-354389Y407993D01*
Y414680D01*
X-356949Y420859D01*
X-361678Y425588D01*
X-367856Y428147D01*
D02*
G37*
G36*
X523029Y426260D02*
X516341D01*
X510162Y423700D01*
X505433Y418971D01*
X502874Y412793D01*
Y406105D01*
X505433Y399926D01*
X510162Y395197D01*
X516341Y392638D01*
X523029D01*
X529208Y395197D01*
X533937Y399926D01*
X536496Y406105D01*
Y412793D01*
X533937Y418971D01*
X529208Y423700D01*
X523029Y426260D01*
D02*
G37*
G36*
X62399D02*
X55711D01*
X49532Y423700D01*
X44803Y418971D01*
X42244Y412793D01*
Y406105D01*
X44803Y399926D01*
X49532Y395197D01*
X55711Y392638D01*
X62399D01*
X68578Y395197D01*
X73307Y399926D01*
X75866Y406105D01*
Y412793D01*
X73307Y418971D01*
X68578Y423700D01*
X62399Y426260D01*
D02*
G37*
G36*
X3344D02*
X-3344D01*
X-9523Y423700D01*
X-14252Y418971D01*
X-16811Y412793D01*
Y406105D01*
X-14252Y399926D01*
X-9523Y395197D01*
X-3344Y392638D01*
X3344D01*
X9523Y395197D01*
X14252Y399926D01*
X16811Y406105D01*
Y412793D01*
X14252Y418971D01*
X9523Y423700D01*
X3344Y426260D01*
D02*
G37*
G36*
X-55711D02*
X-62399D01*
X-68578Y423700D01*
X-73307Y418971D01*
X-75866Y412793D01*
Y406105D01*
X-73307Y399926D01*
X-68578Y395197D01*
X-62399Y392638D01*
X-55711D01*
X-49532Y395197D01*
X-44803Y399926D01*
X-42244Y406105D01*
Y412793D01*
X-44803Y418971D01*
X-49532Y423700D01*
X-55711Y426260D01*
D02*
G37*
G36*
X-467000Y375537D02*
Y359000D01*
X-450463D01*
X-453510Y366355D01*
X-459645Y372490D01*
X-467000Y375537D01*
D02*
G37*
G36*
X-477000D02*
X-484355Y372490D01*
X-490490Y366355D01*
X-493537Y359000D01*
X-477000D01*
Y375537D01*
D02*
G37*
G36*
X-287995Y379016D02*
X-294683D01*
X-300861Y376456D01*
X-305590Y371727D01*
X-308150Y365549D01*
Y358861D01*
X-305590Y352682D01*
X-300861Y347953D01*
X-294683Y345394D01*
X-287995D01*
X-281816Y347953D01*
X-277087Y352682D01*
X-274528Y358861D01*
Y365549D01*
X-277087Y371727D01*
X-281816Y376456D01*
X-287995Y379016D01*
D02*
G37*
G36*
X62399Y367205D02*
X55711D01*
X49532Y364645D01*
X44803Y359916D01*
X42244Y353738D01*
Y347050D01*
X44803Y340871D01*
X49532Y336142D01*
X55711Y333583D01*
X62399D01*
X68578Y336142D01*
X73307Y340871D01*
X75866Y347050D01*
Y353738D01*
X73307Y359916D01*
X68578Y364645D01*
X62399Y367205D01*
D02*
G37*
G36*
X3344D02*
X-3344D01*
X-9523Y364645D01*
X-14252Y359916D01*
X-16811Y353738D01*
Y347050D01*
X-14252Y340871D01*
X-9523Y336142D01*
X-3344Y333583D01*
X3344D01*
X9523Y336142D01*
X14252Y340871D01*
X16811Y347050D01*
Y353738D01*
X14252Y359916D01*
X9523Y364645D01*
X3344Y367205D01*
D02*
G37*
G36*
X-55711D02*
X-62399D01*
X-68578Y364645D01*
X-73307Y359916D01*
X-75866Y353738D01*
Y347050D01*
X-73307Y340871D01*
X-68578Y336142D01*
X-62399Y333583D01*
X-55711D01*
X-49532Y336142D01*
X-44803Y340871D01*
X-42244Y347050D01*
Y353738D01*
X-44803Y359916D01*
X-49532Y364645D01*
X-55711Y367205D01*
D02*
G37*
G36*
X-197444D02*
X-204131D01*
X-210310Y364645D01*
X-215039Y359916D01*
X-217598Y353738D01*
Y347050D01*
X-215039Y340871D01*
X-210310Y336142D01*
X-204131Y333583D01*
X-197444D01*
X-191265Y336142D01*
X-186536Y340871D01*
X-183976Y347050D01*
Y353738D01*
X-186536Y359916D01*
X-191265Y364645D01*
X-197444Y367205D01*
D02*
G37*
G36*
X-450463Y349000D02*
X-467000D01*
Y332463D01*
X-459645Y335510D01*
X-453510Y341645D01*
X-450463Y349000D01*
D02*
G37*
G36*
X-477000D02*
X-493537D01*
X-490490Y341645D01*
X-484355Y335510D01*
X-477000Y332463D01*
Y349000D01*
D02*
G37*
G36*
X483000Y319537D02*
Y303000D01*
X499537D01*
X496490Y310355D01*
X490355Y316490D01*
X483000Y319537D01*
D02*
G37*
G36*
X473000D02*
X465645Y316490D01*
X459510Y310355D01*
X456463Y303000D01*
X473000D01*
Y319537D01*
D02*
G37*
G36*
X604040Y315223D02*
X597353D01*
X591174Y312664D01*
X586445Y307935D01*
X583885Y301756D01*
Y295068D01*
X586445Y288890D01*
X591174Y284161D01*
X597353Y281601D01*
X604040D01*
X610219Y284161D01*
X614948Y288890D01*
X617508Y295068D01*
Y301756D01*
X614948Y307935D01*
X610219Y312664D01*
X604040Y315223D01*
D02*
G37*
G36*
X-597352Y315223D02*
X-604040D01*
X-610219Y312664D01*
X-614948Y307935D01*
X-617507Y301756D01*
Y295068D01*
X-614948Y288890D01*
X-610219Y284161D01*
X-604040Y281601D01*
X-597352D01*
X-591174Y284161D01*
X-586445Y288890D01*
X-583885Y295068D01*
Y301756D01*
X-586445Y307935D01*
X-591174Y312664D01*
X-597352Y315223D01*
D02*
G37*
G36*
X499537Y293000D02*
X483000D01*
Y276463D01*
X490355Y279510D01*
X496490Y285645D01*
X499537Y293000D01*
D02*
G37*
G36*
X473000D02*
X456463D01*
X459510Y285645D01*
X465645Y279510D01*
X473000Y276463D01*
Y293000D01*
D02*
G37*
G36*
X-425790Y284527D02*
X-432478D01*
X-438656Y281968D01*
X-443385Y277239D01*
X-445945Y271060D01*
Y264373D01*
X-443385Y258194D01*
X-438656Y253465D01*
X-432478Y250905D01*
X-425790D01*
X-419611Y253465D01*
X-414882Y258194D01*
X-412323Y264373D01*
Y271060D01*
X-414882Y277239D01*
X-419611Y281968D01*
X-425790Y284527D01*
D02*
G37*
G36*
X-201381Y272716D02*
X-208068D01*
X-214247Y270157D01*
X-218976Y265428D01*
X-221535Y259249D01*
Y252562D01*
X-218976Y246383D01*
X-214247Y241654D01*
X-208068Y239095D01*
X-201381D01*
X-195202Y241654D01*
X-190473Y246383D01*
X-187913Y252562D01*
Y259249D01*
X-190473Y265428D01*
X-195202Y270157D01*
X-201381Y272716D01*
D02*
G37*
G36*
X129328Y268779D02*
X122640D01*
X116462Y266220D01*
X111733Y261491D01*
X109173Y255312D01*
Y248625D01*
X111733Y242446D01*
X116462Y237717D01*
X122640Y235157D01*
X129328D01*
X135507Y237717D01*
X140236Y242446D01*
X142795Y248625D01*
Y255312D01*
X140236Y261491D01*
X135507Y266220D01*
X129328Y268779D01*
D02*
G37*
G36*
X66035Y268104D02*
X59347D01*
X53168Y265545D01*
X48439Y260816D01*
X45880Y254637D01*
Y247949D01*
X48439Y241770D01*
X53168Y237041D01*
X59347Y234482D01*
X66035D01*
X72213Y237041D01*
X76942Y241770D01*
X79502Y247949D01*
Y254637D01*
X76942Y260816D01*
X72213Y265545D01*
X66035Y268104D01*
D02*
G37*
G36*
X-122640Y264842D02*
X-129328D01*
X-135507Y262283D01*
X-140236Y257554D01*
X-142795Y251375D01*
Y244688D01*
X-140236Y238509D01*
X-135507Y233780D01*
X-129328Y231220D01*
X-122640D01*
X-116462Y233780D01*
X-111733Y238509D01*
X-109173Y244688D01*
Y251375D01*
X-111733Y257554D01*
X-116462Y262283D01*
X-122640Y264842D01*
D02*
G37*
G36*
X479722Y249095D02*
X473034D01*
X466855Y246535D01*
X462126Y241806D01*
X459567Y235627D01*
Y228940D01*
X462126Y222761D01*
X466855Y218032D01*
X473034Y215472D01*
X479722D01*
X485901Y218032D01*
X490630Y222761D01*
X493189Y228940D01*
Y235627D01*
X490630Y241806D01*
X485901Y246535D01*
X479722Y249095D01*
D02*
G37*
G36*
X271060Y233346D02*
X264373D01*
X258194Y230787D01*
X253465Y226058D01*
X250905Y219879D01*
Y213191D01*
X253465Y207013D01*
X258194Y202284D01*
X264373Y199724D01*
X271060D01*
X277239Y202284D01*
X281968Y207013D01*
X284527Y213191D01*
Y219879D01*
X281968Y226058D01*
X277239Y230787D01*
X271060Y233346D01*
D02*
G37*
G36*
X-264373D02*
X-271060D01*
X-277239Y230787D01*
X-281968Y226058D01*
X-284527Y219879D01*
Y213191D01*
X-281968Y207013D01*
X-277239Y202284D01*
X-271060Y199724D01*
X-264373D01*
X-258194Y202284D01*
X-253465Y207013D01*
X-250905Y213191D01*
Y219879D01*
X-253465Y226058D01*
X-258194Y230787D01*
X-264373Y233346D01*
D02*
G37*
G36*
X382018Y177811D02*
X375330D01*
X369152Y175252D01*
X367604Y173703D01*
X364337Y170604D01*
X361071Y173703D01*
X359523Y175252D01*
X353344Y177811D01*
X346656D01*
X340477Y175252D01*
X335748Y170523D01*
X333189Y164344D01*
Y157656D01*
X335748Y151477D01*
X340477Y146748D01*
X346656Y144189D01*
X353344D01*
X359523Y146748D01*
X361071Y148297D01*
X364337Y151396D01*
X367604Y148297D01*
X369152Y146749D01*
X375330Y144189D01*
X382018D01*
X388197Y146749D01*
X392926Y151477D01*
X395485Y157656D01*
Y164344D01*
X392926Y170523D01*
X388197Y175252D01*
X382018Y177811D01*
D02*
G37*
G36*
X-185632Y174291D02*
X-192320D01*
X-198499Y171732D01*
X-203228Y167003D01*
X-203987Y165171D01*
X-209399D01*
X-210158Y167003D01*
X-214887Y171732D01*
X-221065Y174291D01*
X-227753D01*
X-233932Y171732D01*
X-238661Y167003D01*
X-241220Y160824D01*
Y154136D01*
X-238661Y147958D01*
X-233932Y143229D01*
X-227753Y140669D01*
X-221065D01*
X-214887Y143229D01*
X-210158Y147958D01*
X-209399Y149790D01*
X-203987D01*
X-203228Y147958D01*
X-198499Y143229D01*
X-192320Y140669D01*
X-185632D01*
X-179454Y143229D01*
X-174725Y147958D01*
X-172165Y154136D01*
Y160824D01*
X-174725Y167003D01*
X-179454Y171732D01*
X-185632Y174291D01*
D02*
G37*
G36*
X97832Y178228D02*
X91144D01*
X84966Y175669D01*
X80237Y170940D01*
X77677Y164761D01*
Y161027D01*
X72677Y158956D01*
X71410Y160223D01*
X64055Y163269D01*
Y146732D01*
X85065D01*
X85505Y146942D01*
X91144Y144606D01*
X97832D01*
X104011Y147166D01*
X108740Y151895D01*
X111299Y158073D01*
Y164761D01*
X108740Y170940D01*
X104011Y175669D01*
X97832Y178228D01*
D02*
G37*
G36*
X-324428Y190034D02*
X-331116D01*
X-337295Y187475D01*
X-342024Y182746D01*
X-344583Y176567D01*
Y169879D01*
X-342024Y163700D01*
X-337295Y158971D01*
X-331116Y156412D01*
X-324428D01*
X-318249Y158971D01*
X-313520Y163700D01*
X-310961Y169879D01*
Y176567D01*
X-313520Y182746D01*
X-318249Y187475D01*
X-324428Y190034D01*
D02*
G37*
G36*
X-451000Y170537D02*
Y154000D01*
X-434463D01*
X-437510Y161355D01*
X-443645Y167490D01*
X-451000Y170537D01*
D02*
G37*
G36*
X-461000D02*
X-468355Y167490D01*
X-474490Y161355D01*
X-477537Y154000D01*
X-461000D01*
Y170537D01*
D02*
G37*
G36*
X166605Y184009D02*
X159917D01*
X153739Y181450D01*
X149010Y176721D01*
X146450Y170542D01*
Y163854D01*
X149010Y157676D01*
X153739Y152947D01*
X159917Y150387D01*
X166605D01*
X172784Y152947D01*
X177513Y157676D01*
X180072Y163854D01*
Y170542D01*
X177513Y176721D01*
X172784Y181450D01*
X166605Y184009D01*
D02*
G37*
G36*
X-370672Y182165D02*
X-377360D01*
X-383538Y179606D01*
X-388267Y174877D01*
X-390827Y168698D01*
Y162010D01*
X-388267Y155832D01*
X-383538Y151103D01*
X-377360Y148543D01*
X-370672D01*
X-364493Y151103D01*
X-359764Y155832D01*
X-357205Y162010D01*
Y168698D01*
X-359764Y174877D01*
X-364493Y179606D01*
X-370672Y182165D01*
D02*
G37*
G36*
X54055Y163269D02*
X46700Y160223D01*
X40565Y154087D01*
X37518Y146732D01*
X54055D01*
Y163269D01*
D02*
G37*
G36*
X234195Y161734D02*
X226840Y158687D01*
X220705Y152552D01*
X217658Y145197D01*
X234195D01*
Y161734D01*
D02*
G37*
G36*
X645669Y195247D02*
X614173D01*
X604542Y193332D01*
X596376Y187876D01*
X590920Y179710D01*
X589005Y170079D01*
X590920Y160447D01*
X596376Y152282D01*
X604542Y146826D01*
X614173Y144910D01*
X645669D01*
X655301Y146826D01*
X663466Y152282D01*
X668922Y160447D01*
X670838Y170079D01*
X668922Y179710D01*
X663466Y187876D01*
X655301Y193332D01*
X645669Y195247D01*
D02*
G37*
G36*
X486024Y195970D02*
X444685D01*
X437984Y195087D01*
X431740Y192501D01*
X426377Y188386D01*
X422263Y183024D01*
X419676Y176780D01*
X418794Y170079D01*
X419676Y163378D01*
X422263Y157133D01*
X426377Y151771D01*
X431740Y147657D01*
X437984Y145070D01*
X444685Y144188D01*
X486024D01*
X492725Y145070D01*
X498969Y147657D01*
X504331Y151771D01*
X508446Y157133D01*
X511032Y163378D01*
X511914Y170079D01*
X511032Y176780D01*
X508446Y183024D01*
X504331Y188386D01*
X498969Y192501D01*
X492725Y195087D01*
X486024Y195970D01*
D02*
G37*
G36*
X-434463Y144000D02*
X-451000D01*
Y127463D01*
X-443645Y130510D01*
X-437510Y136645D01*
X-434463Y144000D01*
D02*
G37*
G36*
X-461000D02*
X-477537D01*
X-474490Y136645D01*
X-468355Y130510D01*
X-461000Y127463D01*
Y144000D01*
D02*
G37*
G36*
X-376890Y139647D02*
Y123110D01*
X-360353D01*
X-363399Y130465D01*
X-369535Y136601D01*
X-376890Y139647D01*
D02*
G37*
G36*
X-386890D02*
X-394245Y136601D01*
X-400380Y130465D01*
X-403427Y123110D01*
X-386890D01*
Y139647D01*
D02*
G37*
G36*
X-17364Y138811D02*
Y122274D01*
X-827D01*
X-3873Y129629D01*
X-10009Y135764D01*
X-17364Y138811D01*
D02*
G37*
G36*
X-27364D02*
X-34718Y135764D01*
X-40854Y129629D01*
X-43901Y122274D01*
X-27364D01*
Y138811D01*
D02*
G37*
G36*
X244195Y161734D02*
Y140197D01*
Y118660D01*
X251550Y121706D01*
X255791Y125947D01*
X258194Y123544D01*
X264373Y120984D01*
X271060D01*
X277239Y123544D01*
X281968Y128273D01*
X284527Y134451D01*
Y141139D01*
X281968Y147318D01*
X277239Y152047D01*
X271060Y154606D01*
X264373D01*
X262558Y153855D01*
X257688Y152552D01*
X254657Y155581D01*
X251550Y158687D01*
X244195Y161734D01*
D02*
G37*
G36*
X80592Y136732D02*
X64055D01*
Y120195D01*
X71410Y123242D01*
X77546Y129377D01*
X80592Y136732D01*
D02*
G37*
G36*
X54055D02*
X37518D01*
X40565Y129377D01*
X46700Y123242D01*
X54055Y120195D01*
Y136732D01*
D02*
G37*
G36*
X234195Y135197D02*
X217658D01*
X220705Y127842D01*
X226840Y121706D01*
X234195Y118660D01*
Y135197D01*
D02*
G37*
G36*
X-95081Y134921D02*
X-101769D01*
X-107948Y132362D01*
X-112677Y127633D01*
X-115236Y121454D01*
Y114766D01*
X-112677Y108588D01*
X-107948Y103859D01*
X-101769Y101299D01*
X-95081D01*
X-88903Y103859D01*
X-84174Y108588D01*
X-81614Y114766D01*
Y121454D01*
X-84174Y127633D01*
X-88903Y132362D01*
X-95081Y134921D01*
D02*
G37*
G36*
X-601892Y107362D02*
X-608580D01*
X-614759Y104803D01*
X-616281Y103281D01*
X-619547Y100131D01*
X-622814Y103281D01*
X-624336Y104803D01*
X-630514Y107362D01*
X-637202D01*
X-643381Y104803D01*
X-648110Y100074D01*
X-650669Y93895D01*
Y87207D01*
X-648110Y81029D01*
X-643381Y76300D01*
X-637202Y73740D01*
X-630514D01*
X-624336Y76300D01*
X-622814Y77822D01*
X-619547Y80971D01*
X-616281Y77822D01*
X-614759Y76300D01*
X-608580Y73740D01*
X-601892D01*
X-595714Y76300D01*
X-590985Y81029D01*
X-588425Y87207D01*
Y93895D01*
X-590985Y100074D01*
X-595714Y104803D01*
X-601892Y107362D01*
D02*
G37*
G36*
X-827Y112274D02*
X-43901D01*
X-40854Y104919D01*
X-40635Y104700D01*
X-40854Y104481D01*
X-43901Y97126D01*
X-827D01*
X-3873Y104481D01*
X-4092Y104700D01*
X-3873Y104919D01*
X-827Y112274D01*
D02*
G37*
G36*
X-360353Y113110D02*
X-376890D01*
Y96573D01*
X-369535Y99620D01*
X-363399Y105755D01*
X-360353Y113110D01*
D02*
G37*
G36*
X-386890D02*
X-403427D01*
X-400380Y105755D01*
X-394245Y99620D01*
X-386890Y96573D01*
Y113110D01*
D02*
G37*
G36*
X488579Y131575D02*
X481500D01*
X474959Y128866D01*
X469953Y123860D01*
X467244Y117319D01*
Y110240D01*
X469953Y103699D01*
X474959Y98693D01*
X481500Y95984D01*
X488579D01*
X495120Y98693D01*
X500125Y103699D01*
X502835Y110240D01*
Y117319D01*
X500125Y123860D01*
X495120Y128866D01*
X488579Y131575D01*
D02*
G37*
G36*
X101769Y111299D02*
X95081D01*
X88903Y108740D01*
X84174Y104011D01*
X81614Y97832D01*
Y91144D01*
X84174Y84966D01*
X88903Y80237D01*
X95081Y77677D01*
X101769D01*
X107948Y80237D01*
X112677Y84966D01*
X115236Y91144D01*
Y97832D01*
X112677Y104011D01*
X107948Y108740D01*
X101769Y111299D01*
D02*
G37*
G36*
X-827Y87126D02*
X-43901D01*
X-40854Y79771D01*
X-38051Y76968D01*
X-38640Y76380D01*
X-41686Y69025D01*
X1388D01*
X-1659Y76380D01*
X-4461Y79183D01*
X-3873Y79771D01*
X-827Y87126D01*
D02*
G37*
G36*
X323898Y84529D02*
Y67992D01*
X340435D01*
X337388Y75347D01*
X331252Y81483D01*
X323898Y84529D01*
D02*
G37*
G36*
X313898D02*
X306543Y81483D01*
X300407Y75347D01*
X297361Y67992D01*
X313898D01*
Y84529D01*
D02*
G37*
G36*
X-386890Y72718D02*
X-394245Y69672D01*
X-400380Y63536D01*
X-401643Y60488D01*
X-407541Y59315D01*
X-409477Y61252D01*
X-415656Y63811D01*
X-422344D01*
X-428523Y61252D01*
X-433252Y56523D01*
X-435811Y50344D01*
Y43656D01*
X-433252Y37477D01*
X-428523Y32748D01*
X-422344Y30189D01*
X-415656D01*
X-409477Y32748D01*
X-405091Y37134D01*
X-404061Y37504D01*
X-399247Y37693D01*
X-394245Y32691D01*
X-386890Y29644D01*
Y51181D01*
Y72718D01*
D02*
G37*
G36*
X-376890D02*
Y56181D01*
X-360353D01*
X-363399Y63536D01*
X-369535Y69672D01*
X-376890Y72718D01*
D02*
G37*
G36*
X652950Y75866D02*
X646262D01*
X640084Y73307D01*
X635355Y68578D01*
X632795Y62399D01*
Y55711D01*
X635355Y49532D01*
X640084Y44803D01*
X646262Y42244D01*
X652950D01*
X659129Y44803D01*
X663858Y49532D01*
X666417Y55711D01*
Y62399D01*
X663858Y68578D01*
X659129Y73307D01*
X652950Y75866D01*
D02*
G37*
G36*
X601769D02*
X595081D01*
X588903Y73307D01*
X584174Y68578D01*
X581614Y62399D01*
Y55711D01*
X584174Y49532D01*
X588903Y44803D01*
X595081Y42244D01*
X601769D01*
X607948Y44803D01*
X612677Y49532D01*
X615236Y55711D01*
Y62399D01*
X612677Y68578D01*
X607948Y73307D01*
X601769Y75866D01*
D02*
G37*
G36*
X340435Y57992D02*
X323898D01*
Y41455D01*
X331252Y44502D01*
X337388Y50637D01*
X340435Y57992D01*
D02*
G37*
G36*
X313898D02*
X297361D01*
X300407Y50637D01*
X306543Y44502D01*
X313898Y41455D01*
Y57992D01*
D02*
G37*
G36*
X-360353Y46181D02*
X-376890D01*
Y29644D01*
X-369535Y32691D01*
X-363399Y38826D01*
X-360353Y46181D01*
D02*
G37*
G36*
X-484845Y91614D02*
X-491533D01*
X-497712Y89055D01*
X-502441Y84326D01*
X-505000Y78147D01*
Y71459D01*
X-502441Y65281D01*
X-500919Y63758D01*
X-497769Y60492D01*
X-500919Y57226D01*
X-502441Y55704D01*
X-505000Y49525D01*
Y42837D01*
X-502441Y36658D01*
X-497712Y31930D01*
X-491533Y29370D01*
X-484845D01*
X-478666Y31930D01*
X-473937Y36658D01*
X-471378Y42837D01*
Y49525D01*
X-473937Y55704D01*
X-475459Y57226D01*
X-478609Y60492D01*
X-475459Y63758D01*
X-473937Y65281D01*
X-471378Y71459D01*
Y78147D01*
X-473937Y84326D01*
X-478666Y89055D01*
X-484845Y91614D01*
D02*
G37*
G36*
X-95081Y87677D02*
X-101769D01*
X-107948Y85118D01*
X-112677Y80389D01*
X-115236Y74210D01*
Y67522D01*
X-112677Y61343D01*
X-111155Y59822D01*
X-108005Y56555D01*
X-111155Y53289D01*
X-112677Y51767D01*
X-115236Y45588D01*
Y38900D01*
X-112677Y32721D01*
X-107948Y27992D01*
X-101769Y25433D01*
X-95081D01*
X-88903Y27992D01*
X-84174Y32721D01*
X-81614Y38900D01*
Y45588D01*
X-84174Y51767D01*
X-85696Y53289D01*
X-88845Y56555D01*
X-85696Y59822D01*
X-84174Y61343D01*
X-81614Y67522D01*
Y74210D01*
X-84174Y80389D01*
X-88903Y85118D01*
X-95081Y87677D01*
D02*
G37*
G36*
X-236814D02*
X-243501D01*
X-249680Y85118D01*
X-254409Y80389D01*
X-256969Y74210D01*
Y67522D01*
X-254409Y61343D01*
X-249680Y56614D01*
X-247486Y55706D01*
Y50294D01*
X-248956Y49685D01*
X-253685Y44956D01*
X-256244Y38777D01*
Y32089D01*
X-253685Y25910D01*
X-248956Y21181D01*
X-242777Y18622D01*
X-236089D01*
X-229911Y21181D01*
X-225181Y25910D01*
X-222622Y32089D01*
Y38777D01*
X-225181Y44956D01*
X-229911Y49685D01*
X-232105Y50594D01*
Y56006D01*
X-230635Y56614D01*
X-225906Y61343D01*
X-223346Y67522D01*
Y74210D01*
X-225906Y80389D01*
X-230635Y85118D01*
X-236814Y87677D01*
D02*
G37*
G36*
X1388Y59025D02*
X-41686D01*
X-38640Y51670D01*
X-32504Y45535D01*
X-29480Y44282D01*
X-29480Y38870D01*
X-31886Y37874D01*
X-36615Y33145D01*
X-39175Y26966D01*
Y20278D01*
X-36615Y14099D01*
X-31886Y9370D01*
X-25707Y6811D01*
X-19020D01*
X-12841Y9370D01*
X-8112Y14099D01*
X-5553Y20278D01*
Y26966D01*
X-8112Y33145D01*
X-12841Y37874D01*
X-13033Y37953D01*
Y43365D01*
X-7794Y45535D01*
X-1659Y51670D01*
X1388Y59025D01*
D02*
G37*
G36*
X-599018Y40433D02*
X-605706D01*
X-611885Y37874D01*
X-616614Y33145D01*
X-619173Y26966D01*
Y20278D01*
X-616614Y14099D01*
X-611885Y9370D01*
X-605706Y6811D01*
X-599018D01*
X-592840Y9370D01*
X-588111Y14099D01*
X-585551Y20278D01*
Y26966D01*
X-588111Y33145D01*
X-592840Y37874D01*
X-599018Y40433D01*
D02*
G37*
G36*
X-662010D02*
X-668698D01*
X-674877Y37874D01*
X-679606Y33145D01*
X-682165Y26966D01*
Y20278D01*
X-679606Y14099D01*
X-674877Y9370D01*
X-668698Y6811D01*
X-662010D01*
X-655832Y9370D01*
X-651103Y14099D01*
X-648543Y20278D01*
Y26966D01*
X-651103Y33145D01*
X-655832Y37874D01*
X-662010Y40433D01*
D02*
G37*
G36*
X-280120Y37401D02*
X-286808D01*
X-292987Y34842D01*
X-297716Y30113D01*
X-300275Y23934D01*
Y17247D01*
X-297716Y11068D01*
X-292987Y6339D01*
X-286808Y3780D01*
X-280120D01*
X-273942Y6339D01*
X-269213Y11068D01*
X-266653Y17247D01*
Y23934D01*
X-269213Y30113D01*
X-273942Y34842D01*
X-280120Y37401D01*
D02*
G37*
G36*
X511344Y50811D02*
X504656D01*
X498477Y48252D01*
X493748Y43523D01*
X491189Y37344D01*
Y30656D01*
X493748Y24477D01*
X495270Y22955D01*
X498420Y19689D01*
X495270Y16423D01*
X493748Y14901D01*
X491189Y8722D01*
Y2034D01*
X493748Y-4145D01*
X498477Y-8874D01*
X504656Y-11433D01*
X511344D01*
X517523Y-8874D01*
X522252Y-4145D01*
X524811Y2034D01*
Y8722D01*
X522252Y14901D01*
X520730Y16423D01*
X517580Y19689D01*
X520730Y22955D01*
X522252Y24477D01*
X524811Y30656D01*
Y37344D01*
X522252Y43523D01*
X517523Y48252D01*
X511344Y50811D01*
D02*
G37*
G36*
X652950Y16811D02*
X646262D01*
X640084Y14252D01*
X635355Y9523D01*
X632795Y3344D01*
Y-3344D01*
X635355Y-9523D01*
X640084Y-14252D01*
X646262Y-16811D01*
X652950D01*
X659129Y-14252D01*
X663858Y-9523D01*
X666417Y-3344D01*
Y3344D01*
X663858Y9523D01*
X659129Y14252D01*
X652950Y16811D01*
D02*
G37*
G36*
X601769D02*
X595081D01*
X588903Y14252D01*
X584174Y9523D01*
X581614Y3344D01*
Y-3344D01*
X584174Y-9523D01*
X588903Y-14252D01*
X595081Y-16811D01*
X601769D01*
X607948Y-14252D01*
X612677Y-9523D01*
X615236Y-3344D01*
Y3344D01*
X612677Y9523D01*
X607948Y14252D01*
X601769Y16811D01*
D02*
G37*
G36*
X-95081D02*
X-101769D01*
X-107948Y14252D01*
X-112677Y9523D01*
X-115236Y3344D01*
Y-3344D01*
X-112677Y-9523D01*
X-107948Y-14252D01*
X-101769Y-16811D01*
X-95081D01*
X-88903Y-14252D01*
X-84174Y-9523D01*
X-81614Y-3344D01*
Y3344D01*
X-84174Y9523D01*
X-88903Y14252D01*
X-95081Y16811D01*
D02*
G37*
G36*
X-416656D02*
X-423344D01*
X-429523Y14252D01*
X-434252Y9523D01*
X-436811Y3344D01*
Y-3344D01*
X-434252Y-9523D01*
X-429523Y-14252D01*
X-423344Y-16811D01*
X-416656D01*
X-410477Y-14252D01*
X-405748Y-9523D01*
X-403189Y-3344D01*
Y3344D01*
X-405748Y9523D01*
X-410477Y14252D01*
X-416656Y16811D01*
D02*
G37*
G36*
X-499506Y-10748D02*
X-506193D01*
X-512372Y-13307D01*
X-513894Y-14829D01*
X-517160Y-17979D01*
X-520427Y-14829D01*
X-521949Y-13307D01*
X-528128Y-10748D01*
X-534815D01*
X-540994Y-13307D01*
X-545723Y-18037D01*
X-548283Y-24215D01*
Y-30903D01*
X-545723Y-37082D01*
X-540994Y-41811D01*
X-534815Y-44370D01*
X-528128D01*
X-521949Y-41811D01*
X-520427Y-40289D01*
X-517160Y-37139D01*
X-513894Y-40289D01*
X-512372Y-41811D01*
X-506193Y-44370D01*
X-499506D01*
X-493327Y-41811D01*
X-488598Y-37082D01*
X-486038Y-30903D01*
Y-24215D01*
X-488598Y-18037D01*
X-493327Y-13307D01*
X-499506Y-10748D01*
D02*
G37*
G36*
X-575396D02*
X-582084D01*
X-588263Y-13307D01*
X-592992Y-18037D01*
X-595551Y-24215D01*
Y-30903D01*
X-595423Y-31212D01*
X-599662Y-34044D01*
X-600714Y-32992D01*
X-606892Y-30433D01*
X-613580D01*
X-619759Y-32992D01*
X-624488Y-37721D01*
X-627047Y-43900D01*
Y-50588D01*
X-624488Y-56767D01*
X-619759Y-61496D01*
X-613580Y-64055D01*
X-606892D01*
X-600714Y-61496D01*
X-595985Y-56767D01*
X-593425Y-50588D01*
Y-43900D01*
X-593553Y-43592D01*
X-589314Y-40759D01*
X-588263Y-41811D01*
X-582084Y-44370D01*
X-575396D01*
X-569218Y-41811D01*
X-564489Y-37082D01*
X-561929Y-30903D01*
Y-24215D01*
X-564489Y-18037D01*
X-569218Y-13307D01*
X-575396Y-10748D01*
D02*
G37*
G36*
X196540Y-3068D02*
X189852D01*
X183673Y-5627D01*
X178944Y-10356D01*
X176385Y-16535D01*
Y-23223D01*
X178944Y-29401D01*
X183673Y-34130D01*
X189852Y-36690D01*
X196540D01*
X202719Y-34130D01*
X207447Y-29401D01*
X210007Y-23223D01*
Y-16535D01*
X207447Y-10356D01*
X202719Y-5627D01*
X196540Y-3068D01*
D02*
G37*
G36*
X-234656Y-8189D02*
X-241344D01*
X-247523Y-10748D01*
X-252252Y-15477D01*
X-254811Y-21656D01*
Y-28344D01*
X-252252Y-34523D01*
X-247523Y-39252D01*
X-241344Y-41811D01*
X-234656D01*
X-228477Y-39252D01*
X-223748Y-34523D01*
X-221189Y-28344D01*
Y-21656D01*
X-223748Y-15477D01*
X-228477Y-10748D01*
X-234656Y-8189D01*
D02*
G37*
G36*
X366344Y6811D02*
X359656D01*
X353477Y4252D01*
X348748Y-477D01*
X346189Y-6656D01*
Y-13344D01*
X348748Y-19523D01*
X352244Y-23019D01*
X351927Y-27737D01*
X351477Y-28748D01*
X346748Y-33477D01*
X344189Y-39656D01*
Y-46344D01*
X346748Y-52523D01*
X351477Y-57252D01*
X357656Y-59811D01*
X364344D01*
X370523Y-57252D01*
X375252Y-52523D01*
X377811Y-46344D01*
Y-39656D01*
X375252Y-33477D01*
X371756Y-29981D01*
X372073Y-25263D01*
X372523Y-24252D01*
X377252Y-19523D01*
X379811Y-13344D01*
Y-6656D01*
X377252Y-477D01*
X372523Y4252D01*
X366344Y6811D01*
D02*
G37*
G36*
X-658073Y-26496D02*
X-664761D01*
X-670940Y-29055D01*
X-675669Y-33785D01*
X-678228Y-39963D01*
Y-46651D01*
X-675669Y-52830D01*
X-670940Y-57559D01*
X-664761Y-60118D01*
X-658073D01*
X-651895Y-57559D01*
X-647166Y-52830D01*
X-644606Y-46651D01*
Y-39963D01*
X-647166Y-33785D01*
X-651895Y-29055D01*
X-658073Y-26496D01*
D02*
G37*
G36*
X652950Y-42244D02*
X646262D01*
X640084Y-44803D01*
X635355Y-49532D01*
X632795Y-55711D01*
Y-62399D01*
X635355Y-68578D01*
X640084Y-73307D01*
X646262Y-75866D01*
X652950D01*
X659129Y-73307D01*
X663858Y-68578D01*
X666417Y-62399D01*
Y-55711D01*
X663858Y-49532D01*
X659129Y-44803D01*
X652950Y-42244D01*
D02*
G37*
G36*
X601769D02*
X595081D01*
X588903Y-44803D01*
X584174Y-49532D01*
X581614Y-55711D01*
Y-62399D01*
X584174Y-68578D01*
X588903Y-73307D01*
X595081Y-75866D01*
X601769D01*
X607948Y-73307D01*
X612677Y-68578D01*
X615236Y-62399D01*
Y-55711D01*
X612677Y-49532D01*
X607948Y-44803D01*
X601769Y-42244D01*
D02*
G37*
G36*
X204131Y-85551D02*
X197444D01*
X191265Y-88111D01*
X188246Y-91129D01*
X185039Y-92295D01*
X181832Y-91129D01*
X178814Y-88111D01*
X172635Y-85551D01*
X165947D01*
X159769Y-88111D01*
X155040Y-92840D01*
X152480Y-99018D01*
Y-105706D01*
X155040Y-111885D01*
X159769Y-116614D01*
X165947Y-119173D01*
X172635D01*
X178814Y-116614D01*
X181832Y-113595D01*
X185039Y-112429D01*
X188246Y-113595D01*
X191265Y-116614D01*
X197444Y-119173D01*
X204131D01*
X210310Y-116614D01*
X215039Y-111885D01*
X217598Y-105706D01*
Y-99018D01*
X215039Y-92840D01*
X210310Y-88111D01*
X204131Y-85551D01*
D02*
G37*
G36*
X-451000Y-80463D02*
Y-97000D01*
X-434463D01*
X-437510Y-89645D01*
X-443645Y-83510D01*
X-451000Y-80463D01*
D02*
G37*
G36*
X-461000D02*
X-468355Y-83510D01*
X-474490Y-89645D01*
X-477537Y-97000D01*
X-461000D01*
Y-80463D01*
D02*
G37*
G36*
X-233656Y-70189D02*
X-240344D01*
X-246523Y-72748D01*
X-251252Y-77477D01*
X-253811Y-83656D01*
Y-90344D01*
X-251252Y-96523D01*
X-246523Y-101252D01*
X-240344Y-103811D01*
X-233656D01*
X-227477Y-101252D01*
X-222748Y-96523D01*
X-220189Y-90344D01*
Y-83656D01*
X-222748Y-77477D01*
X-227477Y-72748D01*
X-233656Y-70189D01*
D02*
G37*
G36*
X-93656Y-66189D02*
X-100344D01*
X-106523Y-68748D01*
X-111252Y-73477D01*
X-113811Y-79656D01*
Y-86344D01*
X-112240Y-90137D01*
X-112035Y-90632D01*
X-112034Y-90633D01*
X-111252Y-92523D01*
X-112778Y-97901D01*
X-112848Y-97979D01*
X-115490Y-100621D01*
X-118537Y-107976D01*
X-75463D01*
X-78510Y-100621D01*
X-81219Y-97912D01*
X-82748Y-92523D01*
X-81965Y-90632D01*
X-80189Y-86344D01*
Y-79656D01*
X-82748Y-73477D01*
X-87477Y-68748D01*
X-93656Y-66189D01*
D02*
G37*
G36*
X-269987Y-95486D02*
Y-112023D01*
X-253450D01*
X-256496Y-104668D01*
X-262632Y-98532D01*
X-269987Y-95486D01*
D02*
G37*
G36*
X-279987D02*
X-287342Y-98532D01*
X-293477Y-104668D01*
X-296798Y-112684D01*
Y-118367D01*
X-296798Y-118782D01*
X-301798Y-119776D01*
X-301987Y-119319D01*
X-304344Y-113629D01*
X-310480Y-107494D01*
X-317835Y-104447D01*
Y-125984D01*
Y-147521D01*
X-310480Y-144475D01*
X-304344Y-138339D01*
X-301024Y-130323D01*
Y-124640D01*
X-301023Y-124225D01*
X-296024Y-123231D01*
X-295834Y-123688D01*
X-293477Y-129378D01*
X-287342Y-135513D01*
X-279987Y-138560D01*
Y-117023D01*
Y-95486D01*
D02*
G37*
G36*
X-327835Y-104447D02*
X-335190Y-107494D01*
X-341325Y-113629D01*
X-344372Y-120984D01*
X-327835D01*
Y-104447D01*
D02*
G37*
G36*
X4376Y-68872D02*
X-2312D01*
X-8491Y-71432D01*
X-13220Y-76161D01*
X-15779Y-82339D01*
Y-89027D01*
X-13220Y-95206D01*
X-8491Y-99935D01*
X-3614Y-101955D01*
X-296Y-107011D01*
X-350Y-107141D01*
Y-113828D01*
X2210Y-120007D01*
X6939Y-124736D01*
X13117Y-127295D01*
X19805D01*
X25984Y-124736D01*
X30713Y-120007D01*
X33272Y-113828D01*
Y-107141D01*
X30713Y-100962D01*
X25984Y-96233D01*
X21107Y-94213D01*
X17790Y-89156D01*
X17843Y-89027D01*
Y-82339D01*
X15284Y-76161D01*
X10555Y-71432D01*
X4376Y-68872D01*
D02*
G37*
G36*
X488579Y-95984D02*
X481500D01*
X474959Y-98693D01*
X469953Y-103699D01*
X467244Y-110240D01*
Y-117319D01*
X469953Y-123860D01*
X474959Y-128866D01*
X481500Y-131575D01*
X488579D01*
X495120Y-128866D01*
X500125Y-123860D01*
X502835Y-117319D01*
Y-110240D01*
X500125Y-103699D01*
X495120Y-98693D01*
X488579Y-95984D01*
D02*
G37*
G36*
X103425Y-116258D02*
Y-132795D01*
X119962D01*
X116916Y-125440D01*
X110780Y-119305D01*
X103425Y-116258D01*
D02*
G37*
G36*
X93425D02*
X86070Y-119305D01*
X79935Y-125440D01*
X76888Y-132795D01*
X93425D01*
Y-116258D01*
D02*
G37*
G36*
X-253450Y-122023D02*
X-269987D01*
Y-138560D01*
X-262632Y-135513D01*
X-256496Y-129378D01*
X-253450Y-122023D01*
D02*
G37*
G36*
X-220606Y-128069D02*
Y-144606D01*
X-204069D01*
X-207116Y-137251D01*
X-213251Y-131116D01*
X-220606Y-128069D01*
D02*
G37*
G36*
X-230606D02*
X-237961Y-131116D01*
X-244097Y-137251D01*
X-247143Y-144606D01*
X-230606D01*
Y-128069D01*
D02*
G37*
G36*
X-327835Y-130984D02*
X-344372D01*
X-341325Y-138339D01*
X-335190Y-144475D01*
X-327835Y-147521D01*
Y-130984D01*
D02*
G37*
G36*
X93425Y-142795D02*
X75196D01*
X75088Y-142994D01*
X72226Y-144606D01*
X67522D01*
X61343Y-147166D01*
X59822Y-148688D01*
X56555Y-151837D01*
X53289Y-148688D01*
X51767Y-147166D01*
X45588Y-144606D01*
X38900D01*
X32721Y-147166D01*
X27992Y-151895D01*
X25433Y-158073D01*
Y-164761D01*
X27992Y-170940D01*
X32721Y-175669D01*
X38900Y-178228D01*
X45588D01*
X51767Y-175669D01*
X53289Y-174147D01*
X56555Y-170997D01*
X59822Y-174147D01*
X61343Y-175669D01*
X67522Y-178228D01*
X74210D01*
X80389Y-175669D01*
X85118Y-170940D01*
X87677Y-164761D01*
Y-162363D01*
X92677Y-159022D01*
X93425Y-159332D01*
Y-142795D01*
D02*
G37*
G36*
X-434463Y-107000D02*
X-477537D01*
X-474490Y-114355D01*
X-468355Y-120490D01*
X-466899Y-121093D01*
X-465726Y-126991D01*
X-467007Y-128273D01*
X-469567Y-134451D01*
Y-141139D01*
X-467007Y-147318D01*
X-462279Y-152047D01*
X-456100Y-154606D01*
X-449412D01*
X-443233Y-152047D01*
X-440855Y-149668D01*
X-435695Y-149509D01*
X-434834Y-150180D01*
X-430782Y-154232D01*
X-424604Y-156791D01*
X-417916D01*
X-411737Y-154232D01*
X-407008Y-149503D01*
X-404449Y-143324D01*
Y-136636D01*
X-407008Y-130458D01*
X-411737Y-125729D01*
X-417916Y-123169D01*
X-424604D01*
X-430782Y-125729D01*
X-433161Y-128107D01*
X-438320Y-128267D01*
X-439182Y-127595D01*
X-441699Y-125078D01*
X-442879Y-122297D01*
X-441856Y-118702D01*
X-437510Y-114355D01*
X-434463Y-107000D01*
D02*
G37*
G36*
X119962Y-142795D02*
X103425D01*
Y-159332D01*
X110780Y-156286D01*
X116916Y-150150D01*
X119962Y-142795D01*
D02*
G37*
G36*
X-13840Y-146156D02*
Y-162693D01*
X2697D01*
X-350Y-155338D01*
X-6485Y-149203D01*
X-13840Y-146156D01*
D02*
G37*
G36*
X-23840D02*
X-31195Y-149203D01*
X-37331Y-155338D01*
X-40377Y-162693D01*
X-23840D01*
Y-146156D01*
D02*
G37*
G36*
X-75463Y-117976D02*
X-118537D01*
X-115490Y-125331D01*
X-109355Y-131466D01*
X-101338Y-134787D01*
X-94766D01*
X-92695Y-139787D01*
X-92992Y-140084D01*
X-95551Y-146262D01*
Y-152950D01*
X-92992Y-159129D01*
X-88263Y-163858D01*
X-82084Y-166417D01*
X-75396D01*
X-69218Y-163858D01*
X-64489Y-159129D01*
X-61929Y-152950D01*
Y-146262D01*
X-64489Y-140084D01*
X-69218Y-135355D01*
X-75396Y-132795D01*
X-78903D01*
X-80974Y-127795D01*
X-78510Y-125331D01*
X-75463Y-117976D01*
D02*
G37*
G36*
X-204069Y-154606D02*
X-220606D01*
Y-171143D01*
X-213251Y-168097D01*
X-207116Y-161961D01*
X-204069Y-154606D01*
D02*
G37*
G36*
X-230606D02*
X-247143D01*
X-244097Y-161961D01*
X-237961Y-168097D01*
X-230606Y-171143D01*
Y-154606D01*
D02*
G37*
G36*
X-534370Y-159565D02*
Y-176102D01*
X-517833D01*
X-520880Y-168748D01*
X-527015Y-162612D01*
X-534370Y-159565D01*
D02*
G37*
G36*
X-544370D02*
X-551725Y-162612D01*
X-557861Y-168748D01*
X-560907Y-176102D01*
X-544370D01*
Y-159565D01*
D02*
G37*
G36*
X337990Y-120984D02*
X331302D01*
X325123Y-123544D01*
X320394Y-128273D01*
X317835Y-134451D01*
Y-141139D01*
X320394Y-147318D01*
X324651Y-151575D01*
X320394Y-155832D01*
X317835Y-162010D01*
Y-168698D01*
X320394Y-174877D01*
X325123Y-179606D01*
X331302Y-182165D01*
X337990D01*
X344168Y-179606D01*
X348897Y-174877D01*
X351457Y-168698D01*
Y-162010D01*
X348897Y-155832D01*
X344640Y-151575D01*
X348897Y-147318D01*
X351457Y-141139D01*
Y-134451D01*
X348897Y-128273D01*
X344168Y-123544D01*
X337990Y-120984D01*
D02*
G37*
G36*
X-506880Y-131208D02*
X-513568D01*
X-519746Y-133767D01*
X-524475Y-138496D01*
X-527035Y-144675D01*
Y-151363D01*
X-524475Y-157542D01*
X-519746Y-162271D01*
X-513568Y-164830D01*
X-509619D01*
X-506581Y-165565D01*
X-505000Y-169449D01*
Y-172635D01*
X-502441Y-178814D01*
X-497712Y-183543D01*
X-491533Y-186102D01*
X-484845D01*
X-478666Y-183543D01*
X-473937Y-178814D01*
X-471378Y-172635D01*
Y-165947D01*
X-473937Y-159769D01*
X-478666Y-155040D01*
X-484845Y-152480D01*
X-488793D01*
X-491832Y-151745D01*
X-493413Y-147861D01*
Y-144675D01*
X-495972Y-138496D01*
X-500701Y-133767D01*
X-506880Y-131208D01*
D02*
G37*
G36*
X2697Y-172693D02*
X-13840D01*
Y-189230D01*
X-6485Y-186184D01*
X-350Y-180048D01*
X2697Y-172693D01*
D02*
G37*
G36*
X-23840D02*
X-40377D01*
X-37331Y-180048D01*
X-31195Y-186184D01*
X-23840Y-189230D01*
Y-172693D01*
D02*
G37*
G36*
X645669Y-144910D02*
X614173D01*
X604542Y-146826D01*
X596376Y-152282D01*
X590920Y-160447D01*
X589005Y-170079D01*
X590920Y-179710D01*
X596376Y-187876D01*
X604542Y-193332D01*
X614173Y-195247D01*
X645669D01*
X655301Y-193332D01*
X663466Y-187876D01*
X668922Y-179710D01*
X670838Y-170079D01*
X668922Y-160447D01*
X663466Y-152282D01*
X655301Y-146826D01*
X645669Y-144910D01*
D02*
G37*
G36*
X486024Y-144188D02*
X444685D01*
X437984Y-145070D01*
X431740Y-147657D01*
X426377Y-151771D01*
X422263Y-157133D01*
X419676Y-163378D01*
X418794Y-170079D01*
X419676Y-176780D01*
X422263Y-183024D01*
X426377Y-188386D01*
X431740Y-192501D01*
X437984Y-195087D01*
X444685Y-195970D01*
X486024D01*
X492725Y-195087D01*
X498969Y-192501D01*
X504331Y-188386D01*
X508446Y-183024D01*
X511032Y-176780D01*
X511914Y-170079D01*
X511032Y-163378D01*
X508446Y-157133D01*
X504331Y-151771D01*
X498969Y-147657D01*
X492725Y-145070D01*
X486024Y-144188D01*
D02*
G37*
G36*
X200194Y-168228D02*
X193506D01*
X187328Y-170788D01*
X182599Y-175517D01*
X180039Y-181696D01*
Y-188383D01*
X182599Y-194562D01*
X187328Y-199291D01*
X193506Y-201850D01*
X200194D01*
X206373Y-199291D01*
X211102Y-194562D01*
X213661Y-188383D01*
Y-181696D01*
X211102Y-175517D01*
X206373Y-170788D01*
X200194Y-168228D01*
D02*
G37*
G36*
X-544370Y-186102D02*
X-560907D01*
X-557861Y-193457D01*
X-551725Y-199593D01*
X-544370Y-202639D01*
Y-186102D01*
D02*
G37*
G36*
X-504718Y-196842D02*
Y-213379D01*
X-488181D01*
X-491227Y-206024D01*
X-497363Y-199889D01*
X-504718Y-196842D01*
D02*
G37*
G36*
X-517833Y-186102D02*
X-534370D01*
Y-202639D01*
X-530144Y-200889D01*
X-527312Y-205128D01*
X-528208Y-206024D01*
X-531255Y-213379D01*
X-514718D01*
Y-196842D01*
X-518944Y-198593D01*
X-521776Y-194354D01*
X-520880Y-193457D01*
X-517833Y-186102D01*
D02*
G37*
G36*
X-610829Y-183976D02*
X-617517D01*
X-623696Y-186536D01*
X-628425Y-191265D01*
X-630984Y-197444D01*
Y-204131D01*
X-628425Y-210310D01*
X-623696Y-215039D01*
X-617517Y-217598D01*
X-610829D01*
X-604651Y-215039D01*
X-599922Y-210310D01*
X-597362Y-204131D01*
Y-197444D01*
X-599922Y-191265D01*
X-604651Y-186536D01*
X-610829Y-183976D01*
D02*
G37*
G36*
X-488181Y-223379D02*
X-504718D01*
Y-239916D01*
X-497363Y-236870D01*
X-491227Y-230734D01*
X-488181Y-223379D01*
D02*
G37*
G36*
X-514718D02*
X-531255D01*
X-528208Y-230734D01*
X-522073Y-236870D01*
X-514718Y-239916D01*
Y-223379D01*
D02*
G37*
G36*
X-102955Y-212224D02*
X-109643D01*
X-115822Y-214784D01*
X-120551Y-219513D01*
X-123110Y-225691D01*
Y-232379D01*
X-120551Y-238558D01*
X-115822Y-243287D01*
X-109643Y-245846D01*
X-102955D01*
X-96777Y-243287D01*
X-92048Y-238558D01*
X-89488Y-232379D01*
Y-225691D01*
X-92048Y-219513D01*
X-96777Y-214784D01*
X-102955Y-212224D01*
D02*
G37*
G36*
X164761Y-223346D02*
X158073D01*
X151895Y-225906D01*
X147166Y-230635D01*
X144606Y-236814D01*
Y-243501D01*
X147166Y-249680D01*
X151895Y-254409D01*
X158073Y-256969D01*
X164761D01*
X170940Y-254409D01*
X175669Y-249680D01*
X178228Y-243501D01*
Y-236814D01*
X175669Y-230635D01*
X170940Y-225906D01*
X164761Y-223346D01*
D02*
G37*
G36*
X-205317Y-231220D02*
X-212005D01*
X-218184Y-233780D01*
X-222913Y-238509D01*
X-225472Y-244688D01*
Y-251375D01*
X-222913Y-257554D01*
X-218184Y-262283D01*
X-212005Y-264842D01*
X-205317D01*
X-199139Y-262283D01*
X-194410Y-257554D01*
X-191850Y-251375D01*
Y-244688D01*
X-194410Y-238509D01*
X-199139Y-233780D01*
X-205317Y-231220D01*
D02*
G37*
G36*
X-261408Y-234186D02*
X-268095D01*
X-274274Y-236745D01*
X-279003Y-241474D01*
X-281562Y-247653D01*
Y-254340D01*
X-279003Y-260519D01*
X-274274Y-265248D01*
X-268095Y-267808D01*
X-261408D01*
X-255229Y-265248D01*
X-250500Y-260519D01*
X-247940Y-254340D01*
Y-247653D01*
X-250500Y-241474D01*
X-255229Y-236745D01*
X-261408Y-234186D01*
D02*
G37*
G36*
X239564Y-243031D02*
X232877D01*
X226698Y-245591D01*
X221969Y-250320D01*
X219410Y-256499D01*
Y-263186D01*
X221969Y-269365D01*
X226698Y-274094D01*
X232877Y-276654D01*
X239564D01*
X245743Y-274094D01*
X250472Y-269365D01*
X253031Y-263186D01*
Y-256499D01*
X250472Y-250320D01*
X245743Y-245591D01*
X239564Y-243031D01*
D02*
G37*
G36*
X-473034Y-250905D02*
X-479722D01*
X-485901Y-253465D01*
X-490630Y-258194D01*
X-493189Y-264373D01*
Y-271060D01*
X-490630Y-277239D01*
X-485901Y-281968D01*
X-479722Y-284527D01*
X-473034D01*
X-466855Y-281968D01*
X-462126Y-277239D01*
X-459567Y-271060D01*
Y-264373D01*
X-462126Y-258194D01*
X-466855Y-253465D01*
X-473034Y-250905D01*
D02*
G37*
G36*
X-391388Y-226369D02*
X-398076D01*
X-404254Y-228928D01*
X-408983Y-233657D01*
X-411543Y-239836D01*
Y-246523D01*
X-408983Y-252702D01*
X-406683Y-255002D01*
X-407161Y-257402D01*
X-411889Y-262131D01*
X-414449Y-268310D01*
Y-274997D01*
X-411889Y-281176D01*
X-407160Y-285905D01*
X-400982Y-288464D01*
X-394294D01*
X-388115Y-285905D01*
X-383386Y-281176D01*
X-380827Y-274997D01*
Y-268310D01*
X-383386Y-262131D01*
X-385686Y-259831D01*
X-385209Y-257431D01*
X-380480Y-252702D01*
X-377921Y-246523D01*
Y-239836D01*
X-380480Y-233657D01*
X-385209Y-228928D01*
X-391388Y-226369D01*
D02*
G37*
G36*
X-597352Y-281601D02*
X-604040D01*
X-610219Y-284161D01*
X-614948Y-288890D01*
X-617507Y-295068D01*
Y-301756D01*
X-614948Y-307935D01*
X-610219Y-312664D01*
X-604040Y-315223D01*
X-597352D01*
X-591174Y-312664D01*
X-586445Y-307935D01*
X-583885Y-301756D01*
Y-295068D01*
X-586445Y-288890D01*
X-591174Y-284161D01*
X-597352Y-281601D01*
D02*
G37*
G36*
X604040Y-281601D02*
X597353D01*
X591174Y-284161D01*
X586445Y-288890D01*
X583885Y-295068D01*
Y-301756D01*
X586445Y-307935D01*
X591174Y-312664D01*
X597353Y-315223D01*
X604040D01*
X610219Y-312664D01*
X614948Y-307935D01*
X617508Y-301756D01*
Y-295068D01*
X614948Y-288890D01*
X610219Y-284161D01*
X604040Y-281601D01*
D02*
G37*
G36*
X243501Y-321772D02*
X236814D01*
X230635Y-324331D01*
X225906Y-329060D01*
X223346Y-335239D01*
Y-341927D01*
X225906Y-348105D01*
X230635Y-352834D01*
X236814Y-355394D01*
X243501D01*
X249680Y-352834D01*
X254409Y-348105D01*
X256969Y-341927D01*
Y-335239D01*
X254409Y-329060D01*
X249680Y-324331D01*
X243501Y-321772D01*
D02*
G37*
G36*
X125391Y-239095D02*
X118703D01*
X112525Y-241654D01*
X107796Y-246383D01*
X105236Y-252562D01*
Y-259249D01*
X107796Y-265428D01*
X111412Y-269044D01*
X111122Y-274576D01*
X111082Y-274592D01*
X106353Y-279322D01*
X103794Y-285500D01*
Y-289053D01*
X100957Y-292792D01*
X99174Y-293171D01*
X93981D01*
X87802Y-295730D01*
X83073Y-300459D01*
X80514Y-306638D01*
Y-313326D01*
X83073Y-319505D01*
X84866Y-321297D01*
X85114Y-328120D01*
X84174Y-329060D01*
X81614Y-335239D01*
Y-341927D01*
X84174Y-348105D01*
X88903Y-352834D01*
X95081Y-355394D01*
X101769D01*
X107948Y-352834D01*
X112677Y-348105D01*
X115236Y-341927D01*
Y-335239D01*
X112677Y-329060D01*
X110884Y-327268D01*
X110636Y-320445D01*
X111576Y-319505D01*
X114136Y-313326D01*
Y-309773D01*
X116973Y-306034D01*
X118755Y-305655D01*
X123949D01*
X130127Y-303096D01*
X134856Y-298367D01*
X137416Y-292188D01*
Y-285500D01*
X134856Y-279322D01*
X131240Y-275706D01*
X131530Y-270173D01*
X131570Y-270157D01*
X136299Y-265428D01*
X138858Y-259249D01*
Y-252562D01*
X136299Y-246383D01*
X131570Y-241654D01*
X125391Y-239095D01*
D02*
G37*
G36*
X-496928Y-323464D02*
X-503615D01*
X-509794Y-326024D01*
X-514523Y-330753D01*
X-517082Y-336932D01*
Y-343619D01*
X-514523Y-349798D01*
X-509794Y-354527D01*
X-503615Y-357087D01*
X-496928D01*
X-490749Y-354527D01*
X-486020Y-349798D01*
X-483461Y-343619D01*
Y-336932D01*
X-486020Y-330753D01*
X-490749Y-326024D01*
X-496928Y-323464D01*
D02*
G37*
G36*
X-102955Y-323819D02*
X-109643D01*
X-115822Y-326378D01*
X-120551Y-331107D01*
X-123110Y-337286D01*
Y-343974D01*
X-120551Y-350152D01*
X-115822Y-354882D01*
X-109643Y-357441D01*
X-102955D01*
X-96777Y-354882D01*
X-92048Y-350152D01*
X-89488Y-343974D01*
Y-337286D01*
X-92048Y-331107D01*
X-96777Y-326378D01*
X-102955Y-323819D01*
D02*
G37*
G36*
X-394294Y-335236D02*
X-400982D01*
X-407160Y-337796D01*
X-411889Y-342525D01*
X-414449Y-348703D01*
Y-355391D01*
X-411889Y-361570D01*
X-407160Y-366299D01*
X-400982Y-368858D01*
X-394294D01*
X-388115Y-366299D01*
X-383386Y-361570D01*
X-380827Y-355391D01*
Y-348703D01*
X-383386Y-342525D01*
X-388115Y-337796D01*
X-394294Y-335236D01*
D02*
G37*
G36*
X-185632Y-349331D02*
X-192320D01*
X-198499Y-351890D01*
X-203228Y-356619D01*
X-205787Y-362798D01*
Y-369486D01*
X-203228Y-375664D01*
X-198499Y-380393D01*
X-192320Y-382953D01*
X-185632D01*
X-179454Y-380393D01*
X-174725Y-375664D01*
X-172165Y-369486D01*
Y-362798D01*
X-174725Y-356619D01*
X-179454Y-351890D01*
X-185632Y-349331D01*
D02*
G37*
G36*
X156887Y-353268D02*
X150199D01*
X144021Y-355827D01*
X139292Y-360556D01*
X136732Y-366735D01*
Y-373423D01*
X139292Y-379601D01*
X144021Y-384330D01*
X150199Y-386890D01*
X156887D01*
X163066Y-384330D01*
X167795Y-379601D01*
X170354Y-373423D01*
Y-366735D01*
X167795Y-360556D01*
X163066Y-355827D01*
X156887Y-353268D01*
D02*
G37*
G36*
X408856Y-357205D02*
X402168D01*
X395989Y-359764D01*
X391260Y-364493D01*
X388701Y-370672D01*
Y-377360D01*
X391260Y-383538D01*
X395989Y-388267D01*
X402168Y-390827D01*
X408856D01*
X415034Y-388267D01*
X419763Y-383538D01*
X422323Y-377360D01*
Y-370672D01*
X419763Y-364493D01*
X415034Y-359764D01*
X408856Y-357205D01*
D02*
G37*
G36*
X213661Y-376101D02*
Y-392638D01*
X230198D01*
X227152Y-385283D01*
X221016Y-379147D01*
X213661Y-376101D01*
D02*
G37*
G36*
X203661D02*
X196306Y-379147D01*
X190171Y-385283D01*
X187124Y-392638D01*
X203661D01*
Y-376101D01*
D02*
G37*
G36*
X-323428Y-372953D02*
X-330116D01*
X-336294Y-375512D01*
X-341023Y-380241D01*
X-343583Y-386420D01*
Y-393108D01*
X-341023Y-399286D01*
X-336294Y-404015D01*
X-330116Y-406575D01*
X-323428D01*
X-317249Y-404015D01*
X-312520Y-399286D01*
X-309961Y-393108D01*
Y-386420D01*
X-312520Y-380241D01*
X-317249Y-375512D01*
X-323428Y-372953D01*
D02*
G37*
G36*
X-91144Y-384764D02*
X-97832D01*
X-104011Y-387323D01*
X-108740Y-392052D01*
X-111299Y-398231D01*
Y-404919D01*
X-108740Y-411097D01*
X-104011Y-415826D01*
X-97832Y-418386D01*
X-91144D01*
X-84966Y-415826D01*
X-80237Y-411097D01*
X-77677Y-404919D01*
Y-398231D01*
X-80237Y-392052D01*
X-84966Y-387323D01*
X-91144Y-384764D01*
D02*
G37*
G36*
X-20591Y-407597D02*
Y-424134D01*
X-4054D01*
X-7100Y-416779D01*
X-13236Y-410643D01*
X-20591Y-407597D01*
D02*
G37*
G36*
X-30591D02*
X-37946Y-410643D01*
X-44081Y-416779D01*
X-47128Y-424134D01*
X-30591D01*
Y-407597D01*
D02*
G37*
G36*
X-520160Y-400468D02*
X-526847D01*
X-533026Y-403027D01*
X-537755Y-407756D01*
X-540314Y-413935D01*
Y-420623D01*
X-537755Y-426801D01*
X-533026Y-431530D01*
X-526847Y-434090D01*
X-520160D01*
X-513981Y-431530D01*
X-509252Y-426801D01*
X-506692Y-420623D01*
Y-413935D01*
X-509252Y-407756D01*
X-513981Y-403027D01*
X-520160Y-400468D01*
D02*
G37*
G36*
X526847Y-400468D02*
X520160D01*
X513981Y-403027D01*
X509252Y-407756D01*
X506693Y-413935D01*
Y-420623D01*
X509252Y-426801D01*
X513981Y-431531D01*
X520160Y-434090D01*
X526847D01*
X533026Y-431531D01*
X537755Y-426801D01*
X540315Y-420623D01*
Y-413935D01*
X537755Y-407756D01*
X533026Y-403027D01*
X526847Y-400468D01*
D02*
G37*
G36*
X-4054Y-434134D02*
X-20591D01*
Y-450671D01*
X-13236Y-447624D01*
X-7100Y-441489D01*
X-4054Y-434134D01*
D02*
G37*
G36*
X-30591D02*
X-47128D01*
X-44081Y-441489D01*
X-37946Y-447624D01*
X-30591Y-450671D01*
Y-434134D01*
D02*
G37*
G36*
X-120893Y-417685D02*
X-127580D01*
X-133759Y-420244D01*
X-138488Y-424973D01*
X-141048Y-431152D01*
Y-437840D01*
X-138488Y-444018D01*
X-133759Y-448747D01*
X-127580Y-451307D01*
X-120893D01*
X-114714Y-448747D01*
X-109985Y-444018D01*
X-107425Y-437840D01*
Y-431152D01*
X-109985Y-424973D01*
X-114714Y-420244D01*
X-120893Y-417685D01*
D02*
G37*
G36*
X230198Y-402638D02*
X187124D01*
X190171Y-409993D01*
X196306Y-416128D01*
X199190Y-417323D01*
X199190Y-422735D01*
X199139Y-422756D01*
X194410Y-427485D01*
X191850Y-433664D01*
Y-440352D01*
X194410Y-446531D01*
X199139Y-451260D01*
X205317Y-453819D01*
X212005D01*
X218184Y-451260D01*
X222913Y-446531D01*
X225472Y-440352D01*
Y-433664D01*
X222913Y-427485D01*
X218184Y-422756D01*
X218132Y-422735D01*
X218132Y-417323D01*
X221016Y-416128D01*
X227152Y-409993D01*
X230198Y-402638D01*
D02*
G37*
G36*
X-319491Y-447756D02*
X-326178D01*
X-332357Y-450315D01*
X-337086Y-455044D01*
X-339646Y-461223D01*
Y-467911D01*
X-337086Y-474089D01*
X-332357Y-478818D01*
X-326178Y-481378D01*
X-319491D01*
X-313312Y-478818D01*
X-308583Y-474089D01*
X-306024Y-467911D01*
Y-461223D01*
X-308583Y-455044D01*
X-313312Y-450315D01*
X-319491Y-447756D01*
D02*
G37*
G36*
X304213Y-482400D02*
Y-498937D01*
X320750D01*
X317703Y-491582D01*
X311567Y-485447D01*
X304213Y-482400D01*
D02*
G37*
G36*
X294213D02*
X286858Y-485447D01*
X280722Y-491582D01*
X277676Y-498937D01*
X294213D01*
Y-482400D01*
D02*
G37*
G36*
X320750Y-508937D02*
X304213D01*
Y-525474D01*
X311567Y-522428D01*
X317703Y-516292D01*
X320750Y-508937D01*
D02*
G37*
G36*
X294213D02*
X277676D01*
X280722Y-516292D01*
X286858Y-522428D01*
X294213Y-525474D01*
Y-508937D01*
D02*
G37*
G36*
X-248625Y-498937D02*
X-255312D01*
X-261491Y-501496D01*
X-266220Y-506225D01*
X-268779Y-512404D01*
Y-519092D01*
X-266220Y-525271D01*
X-261491Y-530000D01*
X-255312Y-532559D01*
X-248625D01*
X-242446Y-530000D01*
X-237717Y-525271D01*
X-235157Y-519092D01*
Y-512404D01*
X-237717Y-506225D01*
X-242446Y-501496D01*
X-248625Y-498937D01*
D02*
G37*
G36*
X-217444Y-530433D02*
X-224131D01*
X-230310Y-532992D01*
X-235039Y-537721D01*
X-237598Y-543900D01*
Y-550588D01*
X-235039Y-556767D01*
X-230310Y-561496D01*
X-224131Y-564055D01*
X-217444D01*
X-211265Y-561496D01*
X-206536Y-556767D01*
X-203976Y-550588D01*
Y-543900D01*
X-206536Y-537721D01*
X-211265Y-532992D01*
X-217444Y-530433D01*
D02*
G37*
G36*
X318305Y-538307D02*
X311617D01*
X305438Y-540866D01*
X300709Y-545596D01*
X298150Y-551774D01*
Y-558462D01*
X300709Y-564641D01*
X305438Y-569370D01*
X311617Y-571929D01*
X318305D01*
X324483Y-569370D01*
X329212Y-564641D01*
X331772Y-558462D01*
Y-551774D01*
X329212Y-545596D01*
X324483Y-540866D01*
X318305Y-538307D01*
D02*
G37*
G36*
X353738Y-561929D02*
X347050D01*
X340871Y-564489D01*
X336142Y-569218D01*
X333583Y-575396D01*
Y-582084D01*
X336142Y-588263D01*
X340871Y-592992D01*
X347050Y-595551D01*
X353738D01*
X359916Y-592992D01*
X364645Y-588263D01*
X367205Y-582084D01*
Y-575396D01*
X364645Y-569218D01*
X359916Y-564489D01*
X353738Y-561929D01*
D02*
G37*
G36*
X274997Y-577677D02*
X268310D01*
X262131Y-580237D01*
X257402Y-584966D01*
X254843Y-591144D01*
Y-597832D01*
X257402Y-604011D01*
X262131Y-608740D01*
X268310Y-611299D01*
X274997D01*
X281176Y-608740D01*
X285905Y-604011D01*
X288464Y-597832D01*
Y-591144D01*
X285905Y-584966D01*
X281176Y-580237D01*
X274997Y-577677D01*
D02*
G37*
G36*
X212005Y-585551D02*
X205317D01*
X199139Y-588111D01*
X194410Y-592840D01*
X191850Y-599018D01*
Y-605706D01*
X194410Y-611885D01*
X199139Y-616614D01*
X205317Y-619173D01*
X212005D01*
X218184Y-616614D01*
X222913Y-611885D01*
X225472Y-605706D01*
Y-599018D01*
X222913Y-592840D01*
X218184Y-588111D01*
X212005Y-585551D01*
D02*
G37*
G36*
X156887Y-593425D02*
X150199D01*
X144021Y-595985D01*
X139292Y-600714D01*
X136732Y-606892D01*
Y-613580D01*
X139292Y-619759D01*
X144021Y-624488D01*
X150199Y-627047D01*
X156887D01*
X163066Y-624488D01*
X167795Y-619759D01*
X170354Y-613580D01*
Y-606892D01*
X167795Y-600714D01*
X163066Y-595985D01*
X156887Y-593425D01*
D02*
G37*
G36*
X-154136D02*
X-160824D01*
X-167003Y-595985D01*
X-171732Y-600714D01*
X-174291Y-606892D01*
Y-613580D01*
X-171732Y-619759D01*
X-167003Y-624488D01*
X-160824Y-627047D01*
X-154136D01*
X-147958Y-624488D01*
X-143229Y-619759D01*
X-140669Y-613580D01*
Y-606892D01*
X-143229Y-600714D01*
X-147958Y-595985D01*
X-154136Y-593425D01*
D02*
G37*
G36*
X-205317Y-613110D02*
X-212005D01*
X-218184Y-615670D01*
X-222913Y-620399D01*
X-225472Y-626577D01*
Y-633265D01*
X-222913Y-639444D01*
X-218184Y-644173D01*
X-212005Y-646732D01*
X-205317D01*
X-199139Y-644173D01*
X-194410Y-639444D01*
X-191850Y-633265D01*
Y-626577D01*
X-194410Y-620399D01*
X-199139Y-615670D01*
X-205317Y-613110D01*
D02*
G37*
G36*
X263186Y-617047D02*
X256499D01*
X250320Y-619607D01*
X245591Y-624336D01*
X243031Y-630514D01*
Y-637202D01*
X245591Y-643381D01*
X250320Y-648110D01*
X256499Y-650669D01*
X263186D01*
X269365Y-648110D01*
X274094Y-643381D01*
X276654Y-637202D01*
Y-630514D01*
X274094Y-624336D01*
X269365Y-619607D01*
X263186Y-617047D01*
D02*
G37*
G36*
X212005Y-628858D02*
X205317D01*
X199139Y-631418D01*
X194410Y-636147D01*
X191850Y-642325D01*
Y-649013D01*
X194410Y-655192D01*
X199139Y-659921D01*
X205317Y-662480D01*
X212005D01*
X218184Y-659921D01*
X222913Y-655192D01*
X225472Y-649013D01*
Y-642325D01*
X222913Y-636147D01*
X218184Y-631418D01*
X212005Y-628858D01*
D02*
G37*
G36*
X156887Y-636732D02*
X150199D01*
X144021Y-639292D01*
X139292Y-644021D01*
X136732Y-650199D01*
Y-656887D01*
X139292Y-663066D01*
X144021Y-667795D01*
X150199Y-670354D01*
X156887D01*
X163066Y-667795D01*
X167795Y-663066D01*
X170354Y-656887D01*
Y-650199D01*
X167795Y-644021D01*
X163066Y-639292D01*
X156887Y-636732D01*
D02*
G37*
G36*
X-162010Y-644606D02*
X-168698D01*
X-174877Y-647166D01*
X-179606Y-651895D01*
X-182165Y-658073D01*
Y-664761D01*
X-179606Y-670940D01*
X-174877Y-675669D01*
X-168698Y-678228D01*
X-162010D01*
X-155832Y-675669D01*
X-151103Y-670940D01*
X-148543Y-664761D01*
Y-658073D01*
X-151103Y-651895D01*
X-155832Y-647166D01*
X-162010Y-644606D01*
D02*
G37*
G36*
X3344Y-585551D02*
X-3344D01*
X-9523Y-588111D01*
X-14252Y-592840D01*
X-16811Y-599018D01*
Y-605706D01*
X-14252Y-611885D01*
X-9523Y-616614D01*
X-7690Y-617373D01*
Y-622785D01*
X-9523Y-623544D01*
X-14252Y-628273D01*
X-16811Y-634451D01*
Y-641139D01*
X-14252Y-647318D01*
X-9523Y-652047D01*
X-7691Y-652806D01*
Y-658218D01*
X-9523Y-658977D01*
X-14252Y-663706D01*
X-16811Y-669884D01*
Y-676572D01*
X-14252Y-682751D01*
X-9523Y-687480D01*
X-3344Y-690039D01*
X3344D01*
X9523Y-687480D01*
X14252Y-682751D01*
X16811Y-676572D01*
Y-669884D01*
X14252Y-663706D01*
X9523Y-658977D01*
X7691Y-658218D01*
Y-652806D01*
X9523Y-652047D01*
X14252Y-647318D01*
X16811Y-641139D01*
Y-634451D01*
X14252Y-628273D01*
X9523Y-623544D01*
X7690Y-622785D01*
Y-617373D01*
X9523Y-616614D01*
X14252Y-611885D01*
X16811Y-605706D01*
Y-599018D01*
X14252Y-592840D01*
X9523Y-588111D01*
X3344Y-585551D01*
D02*
G37*
%LPD*%
D52*
X485039Y-113779D02*
D03*
Y113779D02*
D03*
D53*
X465354Y170079D02*
D03*
Y-170079D02*
D03*
D54*
X629921Y170079D02*
D03*
Y-170079D02*
D03*
D55*
X598425Y-59055D02*
D03*
Y0D02*
D03*
Y59055D02*
D03*
X397638Y468504D02*
D03*
Y531496D02*
D03*
X342520Y496063D02*
D03*
X-208661Y-629921D02*
D03*
X-165354Y-661417D02*
D03*
X259842Y-633858D02*
D03*
X208661Y-645669D02*
D03*
Y-602362D02*
D03*
X153543Y-653543D02*
D03*
Y-610236D02*
D03*
X0Y-602362D02*
D03*
Y-637795D02*
D03*
Y-673228D02*
D03*
X-602362Y23622D02*
D03*
X-665354D02*
D03*
X350394Y-578740D02*
D03*
X334646Y-165354D02*
D03*
Y-137795D02*
D03*
X196850Y-185039D02*
D03*
X-106299Y-229035D02*
D03*
X98425Y-338583D02*
D03*
X-208661Y-248031D02*
D03*
X342520Y437008D02*
D03*
X-397638Y-271654D02*
D03*
X-264752Y-250997D02*
D03*
X342520Y555118D02*
D03*
X600697Y298412D02*
D03*
X519685Y409449D02*
D03*
X-59055Y350394D02*
D03*
X0D02*
D03*
X-200787D02*
D03*
X59055D02*
D03*
Y409449D02*
D03*
X0D02*
D03*
X-59055D02*
D03*
Y468504D02*
D03*
X0D02*
D03*
X59055D02*
D03*
X-523504Y417279D02*
D03*
X-600696Y298412D02*
D03*
X649606Y59055D02*
D03*
Y0D02*
D03*
Y-59055D02*
D03*
X600697Y-298412D02*
D03*
X523504Y-417279D02*
D03*
X-523504Y-417279D02*
D03*
X-600696Y-298412D02*
D03*
X-157480Y-610236D02*
D03*
X-225606Y-149606D02*
D03*
X-322835Y-464567D02*
D03*
X-251969Y-515748D02*
D03*
X-18840Y-167693D02*
D03*
X1032Y-85683D02*
D03*
X16461Y-110484D02*
D03*
X-106299Y-340630D02*
D03*
X-25591Y-429134D02*
D03*
X-78740Y-149606D02*
D03*
X98425Y-137795D02*
D03*
X169291Y-102362D02*
D03*
X200787D02*
D03*
X-287402Y507874D02*
D03*
X208661Y-397638D02*
D03*
X-500272Y-340276D02*
D03*
X-394732Y-243179D02*
D03*
X-476378Y-267716D02*
D03*
X-327772Y173223D02*
D03*
X-374016Y165354D02*
D03*
X-421260Y-139980D02*
D03*
X-452756Y-137795D02*
D03*
X-488189Y-169291D02*
D03*
X-510224Y-148019D02*
D03*
X-614173Y-200787D02*
D03*
X-509718Y-218379D02*
D03*
X-539370Y-181102D02*
D03*
X-220787Y-547244D02*
D03*
X-188976Y-366142D02*
D03*
X-502849Y-27559D02*
D03*
X125984Y251969D02*
D03*
X193196Y-19879D02*
D03*
X-578740Y-27559D02*
D03*
X-531471D02*
D03*
X-371200Y411337D02*
D03*
X361000Y-43000D02*
D03*
X-20149Y64025D02*
D03*
X163261Y167198D02*
D03*
X239195Y140197D02*
D03*
X267716Y137795D02*
D03*
X-94488Y-401575D02*
D03*
X-326772Y-389764D02*
D03*
X153543Y-370079D02*
D03*
X97325Y-309982D02*
D03*
X120605Y-288844D02*
D03*
X161417Y-240157D02*
D03*
X122047Y-255905D02*
D03*
X-397638Y-352047D02*
D03*
X-124237Y-434496D02*
D03*
X236220Y-259842D02*
D03*
X42244Y-161417D02*
D03*
X70866D02*
D03*
X405512Y-374016D02*
D03*
X314961Y-555118D02*
D03*
X299213Y-503937D02*
D03*
X508000Y34000D02*
D03*
X378674Y161000D02*
D03*
X508000Y5378D02*
D03*
X350000Y161000D02*
D03*
X478000Y298000D02*
D03*
X476378Y232284D02*
D03*
X363000Y-10000D02*
D03*
X318898Y62992D02*
D03*
X-322835Y-125984D02*
D03*
X-125984Y248031D02*
D03*
X-22364Y117274D02*
D03*
X-98425Y118110D02*
D03*
X-291339Y362205D02*
D03*
X-188976Y157480D02*
D03*
X62691Y251293D02*
D03*
X98425Y94488D02*
D03*
X94488Y161417D02*
D03*
X200787Y413386D02*
D03*
X-488189Y74803D02*
D03*
Y46181D02*
D03*
X-204724Y255905D02*
D03*
X200787Y444882D02*
D03*
X-605236Y90551D02*
D03*
X-633858D02*
D03*
X-661417Y-43307D02*
D03*
X-610236Y-47244D02*
D03*
X271654Y-594488D02*
D03*
X-224409Y157480D02*
D03*
X-429134Y267716D02*
D03*
X267716Y216535D02*
D03*
X-267716D02*
D03*
X240157Y-338583D02*
D03*
X-22364Y23622D02*
D03*
Y92126D02*
D03*
X-98425Y70866D02*
D03*
Y42244D02*
D03*
X59055Y141732D02*
D03*
X-381890Y118110D02*
D03*
Y51181D02*
D03*
X-240157Y70866D02*
D03*
X-274987Y-117023D02*
D03*
X-283464Y20590D02*
D03*
X-239433Y35433D02*
D03*
X208661Y-437008D02*
D03*
X-419000Y47000D02*
D03*
X-420000Y0D02*
D03*
X-456000Y149000D02*
D03*
Y-102000D02*
D03*
X-238000Y-25000D02*
D03*
X-237000Y-87000D02*
D03*
X-97000Y-112976D02*
D03*
Y-83000D02*
D03*
X-472000Y354000D02*
D03*
X-428000Y451000D02*
D03*
X-425000Y512000D02*
D03*
X-98425Y0D02*
D03*
%TF.MD5,0db7c2576bc45b86c4f3a294a1321487*%
M02*
