%TF.GenerationSoftware,Altium Limited,Altium Designer,22.4.2 (48)*%
G04 Layer_Color=128*
%FSLAX26Y26*%
%MOIN*%
%TF.SameCoordinates,EEB37D52-3F05-4F2D-94FA-AFEEE7D9EDB4*%
%TF.FilePolarity,Positive*%
%TF.FileFunction,Paste,Bot*%
%TF.Part,Single*%
G01*
G75*
%TA.AperFunction,SMDPad,CuDef*%
%ADD56R,0.039370X0.011811*%
%TA.AperFunction,ConnectorPad*%
%ADD57R,0.013780X0.098425*%
D56*
X-58858Y-115157D02*
D03*
Y-92126D02*
D03*
Y-69094D02*
D03*
Y-46063D02*
D03*
Y-23032D02*
D03*
Y0D02*
D03*
Y23032D02*
D03*
Y46063D02*
D03*
Y69094D02*
D03*
Y92126D02*
D03*
Y115157D02*
D03*
X58858Y-115157D02*
D03*
Y-92126D02*
D03*
Y-69094D02*
D03*
Y-46063D02*
D03*
Y-23032D02*
D03*
Y0D02*
D03*
Y23032D02*
D03*
Y46063D02*
D03*
Y69094D02*
D03*
Y92126D02*
D03*
Y115157D02*
D03*
D57*
X-151575Y-511811D02*
D03*
X-124016D02*
D03*
X-96457D02*
D03*
X-68898D02*
D03*
X-41339D02*
D03*
X-13780D02*
D03*
X13780D02*
D03*
X41339D02*
D03*
X68898D02*
D03*
X96457D02*
D03*
X124016D02*
D03*
X151575D02*
D03*
%TF.MD5,20ec51543303b512fc145c3bf9582789*%
M02*
