%TF.GenerationSoftware,Altium Limited,Altium Designer,22.4.2 (48)*%
G04 Layer_Physical_Order=4*
G04 Layer_Color=16711680*
%FSLAX26Y26*%
%MOIN*%
%TF.SameCoordinates,EEB37D52-3F05-4F2D-94FA-AFEEE7D9EDB4*%
%TF.FilePolarity,Positive*%
%TF.FileFunction,Copper,L4,Bot,Signal*%
%TF.Part,Single*%
G01*
G75*
%TA.AperFunction,Conductor*%
%ADD45C,0.005000*%
%ADD46C,0.015000*%
%ADD48C,0.010000*%
%ADD49C,0.030000*%
%ADD50C,0.008000*%
%TA.AperFunction,ComponentPad*%
%ADD52C,0.025591*%
%ADD53O,0.082677X0.041339*%
%ADD54O,0.070866X0.039370*%
%TA.AperFunction,ViaPad*%
%ADD55C,0.023622*%
%TA.AperFunction,SMDPad,CuDef*%
%ADD56R,0.039370X0.011811*%
%TA.AperFunction,ConnectorPad*%
%ADD57R,0.013780X0.098425*%
G36*
X69740Y708081D02*
X115901Y702004D01*
X161566Y692920D01*
X206540Y680870D01*
X250628Y665904D01*
X293644Y648086D01*
X335402Y627493D01*
X375724Y604213D01*
X414437Y578346D01*
X451375Y550002D01*
X486381Y519303D01*
X519303Y486381D01*
X550002Y451375D01*
X578346Y414437D01*
X604213Y375724D01*
X627493Y335402D01*
X648086Y293644D01*
X665904Y250628D01*
X680870Y206540D01*
X692920Y161566D01*
X702004Y115901D01*
X708081Y69740D01*
X711126Y23280D01*
Y-23280D01*
X708081Y-69740D01*
X702004Y-115901D01*
X692920Y-161566D01*
X680870Y-206540D01*
X665904Y-250628D01*
X648086Y-293644D01*
X627493Y-335402D01*
X604213Y-375724D01*
X578346Y-414437D01*
X550002Y-451375D01*
X519303Y-486381D01*
X486381Y-519303D01*
X451375Y-550002D01*
X414437Y-578346D01*
X375724Y-604213D01*
X335402Y-627493D01*
X293644Y-648086D01*
X276381Y-655237D01*
X273548Y-650998D01*
X278333Y-646213D01*
X281380Y-638858D01*
X238305D01*
X241352Y-646213D01*
X247488Y-652349D01*
X255504Y-655669D01*
X262270D01*
X263265Y-660669D01*
X250628Y-665904D01*
X206540Y-680870D01*
X161566Y-692920D01*
X115901Y-702004D01*
X69740Y-708081D01*
X23280Y-711126D01*
X-23280D01*
X-69740Y-708081D01*
X-115901Y-702004D01*
X-161566Y-692920D01*
X-206540Y-680870D01*
X-250628Y-665904D01*
X-293644Y-648086D01*
X-335402Y-627493D01*
X-375724Y-604213D01*
X-414437Y-578346D01*
X-451375Y-550002D01*
X-486381Y-519303D01*
X-519303Y-486381D01*
X-550002Y-451375D01*
X-578346Y-414437D01*
X-604213Y-375724D01*
X-627493Y-335402D01*
X-648086Y-293644D01*
X-665904Y-250628D01*
X-680870Y-206540D01*
X-692920Y-161566D01*
X-702004Y-115901D01*
X-708081Y-69740D01*
X-711126Y-23280D01*
Y23280D01*
X-708081Y69740D01*
X-702004Y115901D01*
X-692920Y161566D01*
X-680870Y206540D01*
X-665904Y250628D01*
X-648086Y293644D01*
X-627493Y335402D01*
X-604213Y375724D01*
X-578346Y414437D01*
X-550002Y451375D01*
X-519303Y486381D01*
X-486381Y519303D01*
X-451375Y550002D01*
X-414437Y578346D01*
X-375724Y604213D01*
X-335402Y627493D01*
X-293644Y648086D01*
X-250628Y665904D01*
X-206540Y680870D01*
X-161566Y692920D01*
X-115901Y702004D01*
X-69740Y708081D01*
X-23280Y711126D01*
X23280D01*
X69740Y708081D01*
D02*
G37*
%LPC*%
G36*
X347520Y576655D02*
Y560118D01*
X364057D01*
X361010Y567473D01*
X354875Y573609D01*
X347520Y576655D01*
D02*
G37*
G36*
X337520D02*
X330165Y573609D01*
X324029Y567473D01*
X320983Y560118D01*
X337520D01*
Y576655D01*
D02*
G37*
G36*
X402638Y553033D02*
Y536496D01*
X419175D01*
X416128Y543851D01*
X409993Y549987D01*
X402638Y553033D01*
D02*
G37*
G36*
X392638D02*
X385283Y549987D01*
X379147Y543851D01*
X376101Y536496D01*
X392638D01*
Y553033D01*
D02*
G37*
G36*
X364057Y550118D02*
X347520D01*
Y533581D01*
X354875Y536628D01*
X361010Y542763D01*
X364057Y550118D01*
D02*
G37*
G36*
X337520D02*
X320983D01*
X324029Y542763D01*
X330165Y536628D01*
X337520Y533581D01*
Y550118D01*
D02*
G37*
G36*
X-420000Y533537D02*
Y517000D01*
X-403463D01*
X-406510Y524355D01*
X-412645Y530490D01*
X-420000Y533537D01*
D02*
G37*
G36*
X-430000D02*
X-437355Y530490D01*
X-443490Y524355D01*
X-446537Y517000D01*
X-430000D01*
Y533537D01*
D02*
G37*
G36*
X419175Y526496D02*
X402638D01*
Y509959D01*
X409993Y513006D01*
X416128Y519141D01*
X419175Y526496D01*
D02*
G37*
G36*
X392638D02*
X376101D01*
X379147Y519141D01*
X385283Y513006D01*
X392638Y509959D01*
Y526496D01*
D02*
G37*
G36*
X347520Y517600D02*
Y501063D01*
X364057D01*
X361010Y508418D01*
X354875Y514553D01*
X347520Y517600D01*
D02*
G37*
G36*
X337520D02*
X330165Y514553D01*
X324029Y508418D01*
X320983Y501063D01*
X337520D01*
Y517600D01*
D02*
G37*
G36*
X-284058Y524685D02*
X-290745D01*
X-296924Y522126D01*
X-301653Y517397D01*
X-304213Y511218D01*
Y504530D01*
X-301653Y498351D01*
X-296924Y493622D01*
X-290745Y491063D01*
X-284058D01*
X-277879Y493622D01*
X-273150Y498351D01*
X-270591Y504530D01*
Y511218D01*
X-273150Y517397D01*
X-277879Y522126D01*
X-284058Y524685D01*
D02*
G37*
G36*
X-403463Y507000D02*
X-420000D01*
Y490463D01*
X-412645Y493510D01*
X-406510Y499645D01*
X-403463Y507000D01*
D02*
G37*
G36*
X-430000D02*
X-446537D01*
X-443490Y499645D01*
X-437355Y493510D01*
X-430000Y490463D01*
Y507000D01*
D02*
G37*
G36*
X364057Y491063D02*
X347520D01*
Y474526D01*
X354875Y477572D01*
X361010Y483708D01*
X364057Y491063D01*
D02*
G37*
G36*
X337520D02*
X320983D01*
X324029Y483708D01*
X330165Y477572D01*
X337520Y474526D01*
Y491063D01*
D02*
G37*
G36*
X402638Y490041D02*
Y473504D01*
X419175D01*
X416128Y480859D01*
X409993Y486994D01*
X402638Y490041D01*
D02*
G37*
G36*
X392638D02*
X385283Y486994D01*
X379147Y480859D01*
X376101Y473504D01*
X392638D01*
Y490041D01*
D02*
G37*
G36*
X64055D02*
Y473504D01*
X80592D01*
X77546Y480859D01*
X71410Y486994D01*
X64055Y490041D01*
D02*
G37*
G36*
X54055D02*
X46700Y486994D01*
X40565Y480859D01*
X37518Y473504D01*
X54055D01*
Y490041D01*
D02*
G37*
G36*
X5000D02*
Y473504D01*
X21537D01*
X18491Y480859D01*
X12355Y486994D01*
X5000Y490041D01*
D02*
G37*
G36*
X-5000D02*
X-12355Y486994D01*
X-18491Y480859D01*
X-21537Y473504D01*
X-5000D01*
Y490041D01*
D02*
G37*
G36*
X-54055D02*
Y473504D01*
X-37518D01*
X-40565Y480859D01*
X-46700Y486994D01*
X-54055Y490041D01*
D02*
G37*
G36*
X-64055D02*
X-71410Y486994D01*
X-77546Y480859D01*
X-80592Y473504D01*
X-64055D01*
Y490041D01*
D02*
G37*
G36*
X80592Y463504D02*
X37518D01*
X39993Y457529D01*
X37652Y452529D01*
X21403D01*
X19062Y457529D01*
X21537Y463504D01*
X-21537D01*
X-19062Y457529D01*
X-21403Y452529D01*
X-37652D01*
X-39993Y457529D01*
X-37518Y463504D01*
X-80592D01*
X-78117Y457529D01*
X-80458Y452529D01*
X-155874D01*
X-155874Y452529D01*
X-158801Y451947D01*
X-161281Y450289D01*
X-430604Y180966D01*
X-432262Y178486D01*
X-432844Y175559D01*
Y133089D01*
X-477772Y88160D01*
X-478666Y89055D01*
X-484845Y91614D01*
X-491533D01*
X-497712Y89055D01*
X-502441Y84326D01*
X-505000Y78147D01*
Y71459D01*
X-502441Y65281D01*
X-500919Y63758D01*
X-497769Y60492D01*
X-500919Y57226D01*
X-502441Y55704D01*
X-505000Y49525D01*
Y42837D01*
X-502441Y36658D01*
X-497712Y31930D01*
X-494392Y30554D01*
X-493124Y24751D01*
X-508257Y9618D01*
X-509914Y7137D01*
X-510496Y4211D01*
Y-8070D01*
X-510751Y-8590D01*
X-510788Y-9188D01*
X-510850Y-9522D01*
X-510978Y-9949D01*
X-511192Y-10472D01*
X-511509Y-11088D01*
X-511939Y-11787D01*
X-512450Y-12505D01*
X-513934Y-14251D01*
X-514045Y-14364D01*
X-514838Y-14684D01*
X-516040Y-14878D01*
X-518230Y-14874D01*
X-519156Y-14741D01*
X-520372Y-14237D01*
X-521217Y-13338D01*
X-521856Y-12547D01*
X-522408Y-11774D01*
X-522838Y-11077D01*
X-523154Y-10464D01*
X-523368Y-9942D01*
X-523496Y-9516D01*
X-523557Y-9183D01*
X-523595Y-8585D01*
X-523849Y-8065D01*
Y97646D01*
X-477430Y144065D01*
X-471627Y142797D01*
X-470252Y139477D01*
X-465523Y134748D01*
X-459344Y132189D01*
X-452656D01*
X-446477Y134748D01*
X-441748Y139477D01*
X-439189Y145656D01*
Y152344D01*
X-441748Y158523D01*
X-446477Y163252D01*
X-449797Y164627D01*
X-451065Y170430D01*
X-365793Y255702D01*
X-365793Y255702D01*
X-364135Y258183D01*
X-363553Y261110D01*
Y391848D01*
X-363299Y392368D01*
X-363261Y392966D01*
X-363200Y393299D01*
X-363072Y393727D01*
X-362858Y394249D01*
X-362541Y394865D01*
X-362110Y395565D01*
X-361599Y396282D01*
X-360027Y398133D01*
X-359065Y399116D01*
X-358674Y400088D01*
X-356949Y401814D01*
X-354389Y407993D01*
Y414680D01*
X-356949Y420859D01*
X-361678Y425588D01*
X-367856Y428147D01*
X-374544D01*
X-380723Y425588D01*
X-385452Y420859D01*
X-388011Y414680D01*
Y407993D01*
X-385452Y401814D01*
X-383767Y400129D01*
X-383418Y399202D01*
X-381480Y397133D01*
X-380843Y396342D01*
X-380290Y395565D01*
X-379860Y394866D01*
X-379543Y394250D01*
X-379328Y393726D01*
X-379200Y393299D01*
X-379139Y392966D01*
X-379102Y392368D01*
X-378847Y391848D01*
Y264277D01*
X-536903Y106221D01*
X-538561Y103740D01*
X-539143Y100814D01*
Y40492D01*
X-541668Y39682D01*
X-544143Y39660D01*
X-545375Y41505D01*
X-586049Y82178D01*
X-586236Y82725D01*
X-586632Y83175D01*
X-586825Y83454D01*
X-587037Y83846D01*
X-587255Y84368D01*
X-587466Y85026D01*
X-587657Y85827D01*
X-587803Y86695D01*
X-587999Y89115D01*
X-588014Y90491D01*
X-588425Y91454D01*
Y93895D01*
X-590985Y100074D01*
X-595714Y104803D01*
X-601892Y107362D01*
X-608580D01*
X-614759Y104803D01*
X-616281Y103281D01*
X-619547Y100131D01*
X-622814Y103281D01*
X-624336Y104803D01*
X-630514Y107362D01*
X-637202D01*
X-643381Y104803D01*
X-648110Y100074D01*
X-650669Y93895D01*
Y87207D01*
X-648110Y81029D01*
X-646425Y79344D01*
X-646076Y78417D01*
X-644138Y76348D01*
X-643501Y75557D01*
X-642948Y74779D01*
X-642518Y74081D01*
X-642201Y73465D01*
X-641986Y72941D01*
X-641859Y72514D01*
X-641797Y72180D01*
X-641760Y71582D01*
X-641505Y71063D01*
Y36106D01*
X-646505Y35111D01*
X-646864Y35977D01*
X-652999Y42112D01*
X-660354Y45159D01*
Y23622D01*
Y2085D01*
X-652999Y5131D01*
X-646864Y11267D01*
X-646505Y12133D01*
X-641505Y11138D01*
Y-34384D01*
X-646505Y-35379D01*
X-647166Y-33785D01*
X-651895Y-29055D01*
X-658073Y-26496D01*
X-664761D01*
X-670940Y-29055D01*
X-675669Y-33785D01*
X-678228Y-39963D01*
Y-46651D01*
X-675669Y-52830D01*
X-673984Y-54515D01*
X-673635Y-55441D01*
X-671697Y-57511D01*
X-671061Y-58302D01*
X-670507Y-59079D01*
X-670077Y-59778D01*
X-669760Y-60394D01*
X-669545Y-60917D01*
X-669418Y-61344D01*
X-669356Y-61678D01*
X-669319Y-62276D01*
X-669064Y-62796D01*
Y-185039D01*
X-668482Y-187966D01*
X-666824Y-190446D01*
X-530899Y-326371D01*
X-530899Y-326372D01*
X-528418Y-328029D01*
X-525492Y-328611D01*
X-525492Y-328611D01*
X-518914D01*
X-515707Y-333611D01*
X-517082Y-336932D01*
Y-343619D01*
X-514523Y-349798D01*
X-509794Y-354527D01*
X-503615Y-357087D01*
X-499173D01*
X-498211Y-357374D01*
X-496873Y-357236D01*
X-495793Y-357185D01*
X-494839Y-357201D01*
X-494022Y-357273D01*
X-493337Y-357390D01*
X-492783Y-357538D01*
X-492351Y-357702D01*
X-492021Y-357872D01*
X-491769Y-358043D01*
X-491307Y-358450D01*
X-491151Y-358503D01*
X-491070Y-358646D01*
X-490627Y-358770D01*
X-233754Y-615643D01*
X-231273Y-617301D01*
X-229314Y-622785D01*
X-230198Y-624921D01*
X-187124D01*
X-187466Y-624097D01*
X-186400Y-621861D01*
X-183902Y-619635D01*
X-181947Y-620032D01*
X-179102Y-620815D01*
X-176681Y-621702D01*
X-174687Y-622664D01*
X-173113Y-623668D01*
X-171596Y-624964D01*
X-171287Y-625064D01*
X-165284Y-629076D01*
X-157480Y-630628D01*
X-149677Y-629076D01*
X-143061Y-624655D01*
X-138641Y-618040D01*
X-137089Y-610236D01*
X-138641Y-602433D01*
X-143061Y-595817D01*
X-163235Y-575643D01*
X-161322Y-571024D01*
X-156575D01*
Y-511811D01*
Y-452598D01*
X-168464D01*
X-168585Y-447648D01*
Y-366142D01*
X-170137Y-358338D01*
X-173519Y-353277D01*
X-171399Y-348277D01*
X-125788D01*
X-125268Y-348531D01*
X-124670Y-348569D01*
X-124337Y-348630D01*
X-123909Y-348758D01*
X-123386Y-348972D01*
X-122770Y-349289D01*
X-122071Y-349720D01*
X-121353Y-350231D01*
X-119503Y-351803D01*
X-118520Y-352765D01*
X-117548Y-353156D01*
X-115822Y-354882D01*
X-109643Y-357441D01*
X-102955D01*
X-96777Y-354882D01*
X-92048Y-350152D01*
X-90000Y-345209D01*
X-84869Y-343268D01*
X-20434Y-407704D01*
X-21589Y-410647D01*
X-22885Y-412323D01*
X-28934D01*
X-35113Y-414882D01*
X-39842Y-419611D01*
X-41976Y-424763D01*
X-42379Y-425299D01*
X-42543Y-425943D01*
X-42702Y-426413D01*
X-42912Y-426917D01*
X-43180Y-427456D01*
X-43510Y-428030D01*
X-43904Y-428633D01*
X-44333Y-429218D01*
X-45555Y-430661D01*
X-46269Y-431403D01*
X-46465Y-431903D01*
X-50145Y-435583D01*
X-53933D01*
X-57835Y-436359D01*
X-61143Y-438569D01*
X-74217Y-451644D01*
X-76428Y-454952D01*
X-76954Y-457598D01*
X-80787Y-457598D01*
X-84567D01*
X-86296Y-452751D01*
Y-420971D01*
X-86082Y-420560D01*
X-86124Y-420427D01*
X-86065Y-420300D01*
X-86029Y-419415D01*
X-85952Y-418807D01*
X-85831Y-418250D01*
X-85667Y-417732D01*
X-85458Y-417240D01*
X-85200Y-416762D01*
X-84885Y-416287D01*
X-84502Y-415811D01*
X-84041Y-415326D01*
X-83344Y-414703D01*
X-82882Y-413743D01*
X-80237Y-411097D01*
X-77677Y-404919D01*
Y-398231D01*
X-80237Y-392052D01*
X-84966Y-387323D01*
X-91144Y-384764D01*
X-97832D01*
X-104011Y-387323D01*
X-108740Y-392052D01*
X-111299Y-398231D01*
Y-404919D01*
X-108740Y-411097D01*
X-107842Y-411995D01*
X-107632Y-412702D01*
X-106987Y-413496D01*
X-106517Y-414156D01*
X-106117Y-414805D01*
X-105780Y-415446D01*
X-105503Y-416082D01*
X-105281Y-416718D01*
X-105110Y-417356D01*
X-104987Y-418007D01*
X-104913Y-418678D01*
X-104881Y-419566D01*
X-104649Y-420073D01*
Y-424790D01*
X-109649Y-425785D01*
X-109985Y-424973D01*
X-114714Y-420244D01*
X-120893Y-417685D01*
X-127580D01*
X-133759Y-420244D01*
X-138488Y-424973D01*
X-141048Y-431152D01*
Y-437840D01*
X-138488Y-444018D01*
X-136716Y-445791D01*
X-136362Y-446721D01*
X-137404Y-451590D01*
X-137652Y-451817D01*
X-138214Y-452185D01*
X-138742Y-452413D01*
X-139535Y-452598D01*
X-146575D01*
Y-511811D01*
Y-571024D01*
X-134685D01*
Y-566024D01*
X-113347D01*
X-112126Y-566024D01*
X-108346D01*
X-107126Y-566024D01*
X-85787D01*
X-84567Y-566024D01*
X-80787D01*
X-79567Y-566024D01*
X-58228D01*
Y-571024D01*
X-46339D01*
Y-511811D01*
X-36339D01*
Y-571024D01*
X-18779D01*
Y-511811D01*
X-8780D01*
Y-571024D01*
X3110D01*
Y-566024D01*
X25669D01*
Y-566024D01*
X29449D01*
Y-566024D01*
X53228D01*
Y-566024D01*
X57008D01*
Y-566024D01*
X67306D01*
X67880Y-566884D01*
X93018Y-592021D01*
X95499Y-593679D01*
X98425Y-594261D01*
X132140D01*
X134481Y-599261D01*
X132006Y-605236D01*
X175080D01*
X172605Y-599261D01*
X174946Y-594261D01*
X182997D01*
X186173Y-597362D01*
X230198D01*
X227152Y-590007D01*
X221016Y-583872D01*
X213000Y-580551D01*
X208988D01*
X206917Y-575551D01*
X277061Y-505407D01*
X277402Y-504897D01*
X282402Y-506414D01*
Y-507281D01*
X284961Y-513460D01*
X289690Y-518189D01*
X295869Y-520748D01*
X302557D01*
X308735Y-518189D01*
X313464Y-513460D01*
X316024Y-507281D01*
Y-500593D01*
X313464Y-494414D01*
X308735Y-489685D01*
X302557Y-487126D01*
X295869D01*
X289690Y-489685D01*
X284961Y-494414D01*
X284300Y-496009D01*
X279300Y-495014D01*
Y-173228D01*
X278718Y-170302D01*
X277061Y-167821D01*
X219975Y-110735D01*
X219787Y-110188D01*
X219391Y-109739D01*
X219198Y-109459D01*
X218987Y-109067D01*
X218768Y-108545D01*
X218557Y-107887D01*
X218367Y-107086D01*
X218221Y-106219D01*
X218024Y-103798D01*
X218010Y-102422D01*
X217598Y-101459D01*
Y-99018D01*
X215039Y-92840D01*
X213941Y-91741D01*
X216012Y-86741D01*
X324906D01*
X327832Y-86159D01*
X330313Y-84502D01*
X352627Y-62188D01*
X353174Y-62000D01*
X353623Y-61604D01*
X353903Y-61411D01*
X354295Y-61200D01*
X354817Y-60981D01*
X355475Y-60770D01*
X356276Y-60580D01*
X357143Y-60434D01*
X359243Y-60263D01*
X359653Y-60305D01*
X363747Y-63453D01*
X364097Y-63857D01*
X364243Y-64592D01*
Y-522581D01*
X339740Y-547083D01*
X334836Y-546108D01*
X333451Y-542763D01*
X327315Y-536628D01*
X319961Y-533581D01*
Y-555118D01*
X314961D01*
Y-560118D01*
X293424D01*
X296470Y-567473D01*
X302606Y-573609D01*
X305950Y-574994D01*
X306925Y-579898D01*
X299982Y-586841D01*
X291142D01*
X290622Y-586587D01*
X290024Y-586549D01*
X289691Y-586488D01*
X289263Y-586360D01*
X288741Y-586146D01*
X288125Y-585829D01*
X287425Y-585398D01*
X286708Y-584888D01*
X284857Y-583316D01*
X283874Y-582353D01*
X282902Y-581962D01*
X281176Y-580237D01*
X274997Y-577677D01*
X268310D01*
X262131Y-580237D01*
X257402Y-584966D01*
X254843Y-591144D01*
Y-597832D01*
X257402Y-604011D01*
X260438Y-607047D01*
X258367Y-612047D01*
X255504D01*
X247488Y-615368D01*
X241352Y-621503D01*
X238305Y-628858D01*
X281380D01*
X278333Y-621503D01*
X273129Y-616299D01*
X274280Y-611929D01*
X274662Y-611299D01*
X274997D01*
X281176Y-608740D01*
X282861Y-607055D01*
X283788Y-606706D01*
X285857Y-604768D01*
X286648Y-604131D01*
X287425Y-603578D01*
X288124Y-603148D01*
X288740Y-602831D01*
X289264Y-602616D01*
X289691Y-602488D01*
X290024Y-602427D01*
X290622Y-602390D01*
X291142Y-602135D01*
X303150D01*
X306076Y-601553D01*
X308557Y-599895D01*
X328583Y-579870D01*
X333583Y-581941D01*
Y-582084D01*
X336142Y-588263D01*
X340871Y-592992D01*
X347050Y-595551D01*
X353738D01*
X359916Y-592992D01*
X364645Y-588263D01*
X367205Y-582084D01*
Y-579701D01*
X367613Y-578799D01*
X367706Y-575967D01*
X367815Y-574954D01*
X367973Y-574016D01*
X368164Y-573216D01*
X368375Y-572558D01*
X368594Y-572035D01*
X368805Y-571643D01*
X368998Y-571363D01*
X369394Y-570915D01*
X369581Y-570367D01*
X387297Y-552651D01*
X388955Y-550170D01*
X389537Y-547244D01*
Y-388886D01*
X394537Y-386815D01*
X395989Y-388267D01*
X402168Y-390827D01*
X408856D01*
X415034Y-388267D01*
X419763Y-383538D01*
X422323Y-377360D01*
Y-370672D01*
X419763Y-364493D01*
X415034Y-359764D01*
X410007Y-357682D01*
X409414Y-357242D01*
X406284Y-356458D01*
X405099Y-356106D01*
X402889Y-355315D01*
X402123Y-354979D01*
X401466Y-354646D01*
X400980Y-354354D01*
X400669Y-354131D01*
X400274Y-353781D01*
X399722Y-353589D01*
X399647Y-353514D01*
Y-8590D01*
X399647Y-8589D01*
X399065Y-5663D01*
X397407Y-3182D01*
X376818Y17407D01*
X374337Y19065D01*
X371411Y19647D01*
X317939D01*
X181176Y156410D01*
X181141Y156622D01*
X180762Y156893D01*
X180612Y157333D01*
X180197Y157805D01*
X180046Y158030D01*
X179913Y158299D01*
X179792Y158644D01*
X179692Y159092D01*
X179627Y159660D01*
X179613Y160360D01*
X179667Y161190D01*
X179800Y162150D01*
X180055Y163383D01*
X179999Y163676D01*
X180072Y163854D01*
Y170542D01*
X177513Y176721D01*
X172784Y181450D01*
X166605Y184009D01*
X159917D01*
X153739Y181450D01*
X149010Y176721D01*
X146450Y170542D01*
Y163854D01*
X149010Y157676D01*
X153739Y152947D01*
X158959Y150784D01*
X159494Y150393D01*
X162614Y149637D01*
X163794Y149295D01*
X165993Y148521D01*
X166754Y148191D01*
X167406Y147862D01*
X167890Y147573D01*
X168202Y147350D01*
X168598Y146998D01*
X169151Y146807D01*
X309364Y6593D01*
X309364Y6593D01*
X311845Y4935D01*
X314772Y4353D01*
X314772Y4353D01*
X346508D01*
X348748Y-478D01*
X346189Y-6656D01*
Y-9039D01*
X345781Y-9941D01*
X345688Y-12773D01*
X345578Y-13786D01*
X345421Y-14724D01*
X345230Y-15524D01*
X345019Y-16183D01*
X344800Y-16706D01*
X344589Y-17097D01*
X344396Y-17377D01*
X344000Y-17826D01*
X343812Y-18373D01*
X300738Y-61448D01*
X84801D01*
X83543Y-56969D01*
X83543Y-56968D01*
X83543D01*
X83543Y-56968D01*
Y-35158D01*
X83543D01*
Y-33937D01*
X83543D01*
X83543Y-12126D01*
X83543Y-7126D01*
X83543Y10906D01*
X83543Y15906D01*
X83543Y33937D01*
X83543Y38937D01*
Y53189D01*
X88543D01*
Y60360D01*
X89650Y60580D01*
X92958Y62790D01*
X102902Y72734D01*
X110780Y75998D01*
X116916Y82133D01*
X118301Y85478D01*
X123205Y86453D01*
X185549Y24109D01*
Y-390D01*
X185294Y-910D01*
X185257Y-1508D01*
X185196Y-1841D01*
X185068Y-2269D01*
X184854Y-2791D01*
X184537Y-3407D01*
X184106Y-4107D01*
X183595Y-4824D01*
X182023Y-6675D01*
X181061Y-7658D01*
X180670Y-8630D01*
X178944Y-10356D01*
X176385Y-16535D01*
Y-23223D01*
X178944Y-29401D01*
X183673Y-34130D01*
X189852Y-36690D01*
X196540D01*
X202719Y-34130D01*
X207447Y-29401D01*
X210007Y-23223D01*
Y-16535D01*
X207447Y-10356D01*
X205762Y-8671D01*
X205414Y-7744D01*
X203476Y-5675D01*
X202839Y-4884D01*
X202286Y-4107D01*
X201855Y-3408D01*
X201538Y-2792D01*
X201324Y-2268D01*
X201196Y-1841D01*
X201135Y-1508D01*
X201097Y-910D01*
X200843Y-390D01*
Y27276D01*
X200843Y27276D01*
X200261Y30203D01*
X198603Y32684D01*
X102135Y129152D01*
Y141929D01*
X102390Y142448D01*
X102427Y143046D01*
X102488Y143380D01*
X102616Y143808D01*
X102830Y144330D01*
X103147Y144946D01*
X103578Y145646D01*
X104089Y146363D01*
X105661Y148213D01*
X106624Y149197D01*
X107014Y150169D01*
X108740Y151895D01*
X111299Y158073D01*
Y164761D01*
X108740Y170940D01*
X104011Y175669D01*
X97832Y178228D01*
X91144D01*
X84966Y175669D01*
X80237Y170940D01*
X77677Y164761D01*
Y158073D01*
X80237Y151895D01*
X81922Y150210D01*
X82270Y149283D01*
X84208Y147214D01*
X84845Y146423D01*
X85399Y145645D01*
X85829Y144947D01*
X86146Y144331D01*
X86360Y143807D01*
X86488Y143380D01*
X86549Y143047D01*
X86587Y142448D01*
X86841Y141929D01*
Y129697D01*
X83543Y126063D01*
X74814D01*
X73512Y127378D01*
X72443Y129173D01*
X72160Y131063D01*
X73307Y132210D01*
X75866Y138388D01*
Y145076D01*
X73307Y151255D01*
X68578Y155984D01*
X62399Y158543D01*
X55711D01*
X49532Y155984D01*
X44803Y151255D01*
X42244Y145076D01*
Y138388D01*
X44803Y132210D01*
X45950Y131063D01*
X45668Y129173D01*
X44599Y127378D01*
X43296Y126063D01*
X34173D01*
Y108031D01*
X29173D01*
Y97126D01*
X58858D01*
Y87126D01*
X29173D01*
Y76221D01*
Y74094D01*
X58858D01*
Y64094D01*
X29173D01*
Y53189D01*
X30638D01*
X34173Y49653D01*
X34173Y35157D01*
X34173Y30157D01*
X34173Y12126D01*
X34173Y7126D01*
X34173Y-12173D01*
X29173Y-14244D01*
X17273Y-2344D01*
Y127103D01*
X16691Y130029D01*
X15033Y132510D01*
X15033Y132510D01*
X-7471Y155013D01*
X-9951Y156671D01*
X-12878Y157253D01*
X-172165D01*
Y160824D01*
X-174725Y167003D01*
X-179454Y171732D01*
X-185632Y174291D01*
X-192320D01*
X-198499Y171732D01*
X-203228Y167003D01*
X-203987Y165171D01*
X-209399D01*
X-210158Y167003D01*
X-214887Y171732D01*
X-221065Y174291D01*
X-227753D01*
X-233932Y171732D01*
X-238661Y167003D01*
X-241220Y160824D01*
Y154136D01*
X-238661Y147958D01*
X-233932Y143229D01*
X-227753Y140669D01*
X-225370D01*
X-224468Y140261D01*
X-221636Y140168D01*
X-220624Y140059D01*
X-219685Y139901D01*
X-218885Y139710D01*
X-218227Y139500D01*
X-217704Y139280D01*
X-217312Y139069D01*
X-217033Y138876D01*
X-216584Y138480D01*
X-216036Y138293D01*
X-210506Y132762D01*
X-208025Y131105D01*
X-205098Y130522D01*
X-205098Y130522D01*
X-116320D01*
X-113551Y125522D01*
X-115236Y121454D01*
Y119071D01*
X-115645Y118169D01*
X-115737Y115337D01*
X-115847Y114324D01*
X-116005Y113386D01*
X-116195Y112586D01*
X-116406Y111928D01*
X-116625Y111405D01*
X-116836Y111013D01*
X-117029Y110733D01*
X-117425Y110285D01*
X-117613Y109737D01*
X-131392Y95958D01*
X-133049Y93478D01*
X-133631Y90551D01*
Y-114173D01*
X-133049Y-117100D01*
X-131392Y-119580D01*
X-98708Y-152264D01*
X-96227Y-153922D01*
X-96074Y-156813D01*
X-100012Y-161270D01*
X-206963D01*
X-210171Y-156270D01*
X-208795Y-152950D01*
Y-146262D01*
X-211355Y-140084D01*
X-216084Y-135355D01*
X-222262Y-132795D01*
X-228950D01*
X-235129Y-135355D01*
X-239858Y-140084D01*
X-242417Y-146262D01*
Y-152950D01*
X-241042Y-156270D01*
X-244249Y-161270D01*
X-415664D01*
X-416658Y-156270D01*
X-411737Y-154232D01*
X-407008Y-149503D01*
X-404449Y-143324D01*
Y-142294D01*
X-404124Y-141705D01*
X-403959Y-140232D01*
X-403518Y-137642D01*
X-403282Y-136666D01*
X-403015Y-135778D01*
X-402739Y-135037D01*
X-402469Y-134447D01*
X-402221Y-134007D01*
X-402009Y-133706D01*
X-401629Y-133276D01*
X-401440Y-132727D01*
X-338923Y-70210D01*
X-337266Y-67730D01*
X-336684Y-64803D01*
X-336684Y-64803D01*
Y81636D01*
X-209431Y208889D01*
X31496D01*
X34422Y209471D01*
X36903Y211128D01*
X56709Y230934D01*
X57261Y231125D01*
X57660Y231479D01*
X57972Y231702D01*
X58381Y231946D01*
X59984Y232689D01*
X60788Y232987D01*
X64743Y234109D01*
X66249Y234442D01*
X66249D01*
X66249Y234442D01*
X66262Y234445D01*
X66723Y234767D01*
X72213Y237041D01*
X76942Y241770D01*
X79502Y247949D01*
Y254637D01*
X76942Y260816D01*
X75189Y262570D01*
X77260Y267570D01*
X99569D01*
X106797Y260342D01*
X106984Y259794D01*
X107380Y259345D01*
X107573Y259065D01*
X107785Y258673D01*
X108004Y258151D01*
X108214Y257493D01*
X108405Y256693D01*
X108550Y255825D01*
X108747Y253404D01*
X108762Y252029D01*
X109173Y251065D01*
Y248625D01*
X111733Y242446D01*
X116462Y237717D01*
X122640Y235157D01*
X129328D01*
X135507Y237717D01*
X140236Y242446D01*
X142795Y248625D01*
Y255312D01*
X140236Y261491D01*
X135507Y266220D01*
X129328Y268779D01*
X126945D01*
X126043Y269188D01*
X123211Y269281D01*
X122198Y269390D01*
X121260Y269548D01*
X120460Y269738D01*
X119802Y269949D01*
X119279Y270168D01*
X118887Y270380D01*
X118608Y270573D01*
X118159Y270969D01*
X117611Y271156D01*
X108144Y280624D01*
X105663Y282281D01*
X102736Y282863D01*
X-286403D01*
X-288317Y287483D01*
X-222598Y353201D01*
X-217598Y351130D01*
Y347050D01*
X-215039Y340871D01*
X-210310Y336142D01*
X-204131Y333583D01*
X-201748D01*
X-200846Y333174D01*
X-198014Y333082D01*
X-197001Y332972D01*
X-196064Y332814D01*
X-195263Y332624D01*
X-194605Y332413D01*
X-194082Y332194D01*
X-193690Y331983D01*
X-193411Y331790D01*
X-192962Y331394D01*
X-192414Y331206D01*
X-186510Y325301D01*
X-184029Y323644D01*
X-181102Y323062D01*
X299982D01*
X396168Y226876D01*
X398649Y225219D01*
X401575Y224637D01*
X456889D01*
X457409Y224382D01*
X458007Y224345D01*
X458341Y224283D01*
X458768Y224155D01*
X459291Y223941D01*
X459907Y223624D01*
X460606Y223194D01*
X461324Y222683D01*
X463174Y221111D01*
X464158Y220148D01*
X465130Y219758D01*
X466855Y218032D01*
X473034Y215472D01*
X479722D01*
X485901Y218032D01*
X490630Y222761D01*
X493189Y228940D01*
Y235627D01*
X490630Y241806D01*
X485901Y246535D01*
X479722Y249095D01*
X473034D01*
X466855Y246535D01*
X465170Y244850D01*
X464243Y244501D01*
X462175Y242564D01*
X461383Y241926D01*
X460606Y241373D01*
X459907Y240943D01*
X459291Y240626D01*
X458768Y240411D01*
X458341Y240284D01*
X458007Y240222D01*
X457409Y240185D01*
X456889Y239930D01*
X404742D01*
X308557Y336116D01*
X306076Y337774D01*
X303150Y338356D01*
X82177D01*
X79399Y342513D01*
X80592Y345394D01*
X59055D01*
Y355394D01*
X80592D01*
X77546Y362749D01*
X71410Y368884D01*
X70544Y369243D01*
X71539Y374243D01*
X164856D01*
X167782Y374825D01*
X170263Y376483D01*
X189530Y395750D01*
X189627Y395761D01*
X189950Y396169D01*
X190015Y396235D01*
X190560Y396421D01*
X191035Y396838D01*
X191250Y396982D01*
X191491Y397100D01*
X191795Y397203D01*
X192192Y397284D01*
X192706Y397331D01*
X193348Y397324D01*
X194123Y397247D01*
X195025Y397084D01*
X196210Y396784D01*
X196749Y396863D01*
X197444Y396575D01*
X204131D01*
X210310Y399134D01*
X215039Y403863D01*
X217598Y410042D01*
Y416730D01*
X215039Y422908D01*
X212021Y425927D01*
X210854Y429134D01*
X212021Y432341D01*
X215039Y435359D01*
X217598Y441538D01*
Y448226D01*
X215039Y454404D01*
X210310Y459134D01*
X204131Y461693D01*
X197444D01*
X191265Y459134D01*
X189580Y457448D01*
X188653Y457100D01*
X186584Y455162D01*
X185793Y454525D01*
X185016Y453971D01*
X184317Y453541D01*
X183701Y453224D01*
X183177Y453010D01*
X182750Y452882D01*
X182417Y452821D01*
X181819Y452783D01*
X181299Y452529D01*
X80458D01*
X78117Y457529D01*
X80592Y463504D01*
D02*
G37*
G36*
X419175D02*
X402638D01*
Y446967D01*
X409993Y450013D01*
X416128Y456149D01*
X419175Y463504D01*
D02*
G37*
G36*
X392638D02*
X376101D01*
X379147Y456149D01*
X385283Y450013D01*
X392638Y446967D01*
Y463504D01*
D02*
G37*
G36*
X347520Y458545D02*
Y442008D01*
X364057D01*
X361010Y449363D01*
X354875Y455498D01*
X347520Y458545D01*
D02*
G37*
G36*
X337520D02*
X330165Y455498D01*
X324029Y449363D01*
X320983Y442008D01*
X337520D01*
Y458545D01*
D02*
G37*
G36*
X-424656Y467811D02*
X-431344D01*
X-437523Y465252D01*
X-442252Y460523D01*
X-444811Y454344D01*
Y447656D01*
X-442252Y441477D01*
X-437523Y436748D01*
X-431344Y434189D01*
X-424656D01*
X-418477Y436748D01*
X-413748Y441477D01*
X-411189Y447656D01*
Y454344D01*
X-413748Y460523D01*
X-418477Y465252D01*
X-424656Y467811D01*
D02*
G37*
G36*
X-518504Y438816D02*
Y422279D01*
X-501966D01*
X-505013Y429634D01*
X-511149Y435769D01*
X-518504Y438816D01*
D02*
G37*
G36*
X-528504D02*
X-535858Y435769D01*
X-541994Y429634D01*
X-545040Y422279D01*
X-528504D01*
Y438816D01*
D02*
G37*
G36*
X364057Y432008D02*
X347520D01*
Y415471D01*
X354875Y418517D01*
X361010Y424653D01*
X364057Y432008D01*
D02*
G37*
G36*
X337520D02*
X320983D01*
X324029Y424653D01*
X330165Y418517D01*
X337520Y415471D01*
Y432008D01*
D02*
G37*
G36*
X524685Y430986D02*
Y414449D01*
X541222D01*
X538176Y421804D01*
X532040Y427939D01*
X524685Y430986D01*
D02*
G37*
G36*
X514685D02*
X507330Y427939D01*
X501195Y421804D01*
X498148Y414449D01*
X514685D01*
Y430986D01*
D02*
G37*
G36*
X-501966Y412279D02*
X-518504D01*
Y395742D01*
X-511149Y398788D01*
X-505013Y404924D01*
X-501966Y412279D01*
D02*
G37*
G36*
X-528504D02*
X-545040D01*
X-541994Y404924D01*
X-535858Y398788D01*
X-528504Y395742D01*
Y412279D01*
D02*
G37*
G36*
X541222Y404449D02*
X524685D01*
Y387912D01*
X532040Y390958D01*
X538176Y397094D01*
X541222Y404449D01*
D02*
G37*
G36*
X514685D02*
X498148D01*
X501195Y397094D01*
X507330Y390958D01*
X514685Y387912D01*
Y404449D01*
D02*
G37*
G36*
X-286339Y383742D02*
Y367205D01*
X-269802D01*
X-272848Y374560D01*
X-278984Y380695D01*
X-286339Y383742D01*
D02*
G37*
G36*
X-296339D02*
X-303693Y380695D01*
X-309829Y374560D01*
X-312876Y367205D01*
X-296339D01*
Y383742D01*
D02*
G37*
G36*
X-269802Y357205D02*
X-286339D01*
Y340668D01*
X-278984Y343714D01*
X-272848Y349850D01*
X-269802Y357205D01*
D02*
G37*
G36*
X-296339D02*
X-312876D01*
X-309829Y349850D01*
X-303693Y343714D01*
X-296339Y340668D01*
Y357205D01*
D02*
G37*
G36*
X-468656Y370811D02*
X-475344D01*
X-481523Y368252D01*
X-486252Y363523D01*
X-488811Y357344D01*
Y350656D01*
X-486252Y344477D01*
X-481523Y339748D01*
X-475344Y337189D01*
X-468656D01*
X-462477Y339748D01*
X-457748Y344477D01*
X-455189Y350656D01*
Y357344D01*
X-457748Y363523D01*
X-462477Y368252D01*
X-468656Y370811D01*
D02*
G37*
G36*
X605697Y319949D02*
Y303412D01*
X622234D01*
X619187Y310767D01*
X613051Y316903D01*
X605697Y319949D01*
D02*
G37*
G36*
X595697D02*
X588342Y316903D01*
X582206Y310767D01*
X579159Y303412D01*
X595697D01*
Y319949D01*
D02*
G37*
G36*
X-595696Y319949D02*
Y303412D01*
X-579159D01*
X-582206Y310767D01*
X-588341Y316903D01*
X-595696Y319949D01*
D02*
G37*
G36*
X-605696D02*
X-613051Y316903D01*
X-619187Y310767D01*
X-622233Y303412D01*
X-605696D01*
Y319949D01*
D02*
G37*
G36*
X481344Y314811D02*
X474656D01*
X468477Y312252D01*
X463748Y307523D01*
X461189Y301344D01*
Y294656D01*
X463748Y288477D01*
X468477Y283748D01*
X474656Y281189D01*
X481344D01*
X487523Y283748D01*
X492252Y288477D01*
X494811Y294656D01*
Y301344D01*
X492252Y307523D01*
X487523Y312252D01*
X481344Y314811D01*
D02*
G37*
G36*
X622234Y293412D02*
X605697D01*
Y276875D01*
X613051Y279922D01*
X619187Y286057D01*
X622234Y293412D01*
D02*
G37*
G36*
X595697D02*
X579159D01*
X582206Y286057D01*
X588342Y279922D01*
X595697Y276875D01*
Y293412D01*
D02*
G37*
G36*
X-579159Y293412D02*
X-595696D01*
Y276875D01*
X-588341Y279922D01*
X-582206Y286057D01*
X-579159Y293412D01*
D02*
G37*
G36*
X-605696D02*
X-622233D01*
X-619187Y286057D01*
X-613051Y279922D01*
X-605696Y276875D01*
Y293412D01*
D02*
G37*
G36*
X-424134Y289253D02*
Y272716D01*
X-407597D01*
X-410643Y280071D01*
X-416779Y286207D01*
X-424134Y289253D01*
D02*
G37*
G36*
X-434134D02*
X-441489Y286207D01*
X-447624Y280071D01*
X-450671Y272716D01*
X-434134D01*
Y289253D01*
D02*
G37*
G36*
X-407597Y262716D02*
X-424134D01*
Y246179D01*
X-416779Y249226D01*
X-410643Y255362D01*
X-407597Y262716D01*
D02*
G37*
G36*
X-434134D02*
X-450671D01*
X-447624Y255362D01*
X-441489Y249226D01*
X-434134Y246179D01*
Y262716D01*
D02*
G37*
G36*
X272716Y238072D02*
Y221535D01*
X289253D01*
X286207Y228890D01*
X280071Y235026D01*
X272716Y238072D01*
D02*
G37*
G36*
X262716D02*
X255362Y235026D01*
X249226Y228890D01*
X246179Y221535D01*
X262716D01*
Y238072D01*
D02*
G37*
G36*
X289253Y211535D02*
X272716D01*
Y194998D01*
X280071Y198045D01*
X286207Y204180D01*
X289253Y211535D01*
D02*
G37*
G36*
X262716D02*
X246179D01*
X249226Y204180D01*
X255362Y198045D01*
X262716Y194998D01*
Y211535D01*
D02*
G37*
G36*
X486024Y201013D02*
X470354D01*
Y175079D01*
X516299D01*
X515904Y178085D01*
X512813Y185546D01*
X507897Y191952D01*
X501491Y196868D01*
X494030Y199959D01*
X486024Y201013D01*
D02*
G37*
G36*
X645669Y200020D02*
X634921D01*
Y175079D01*
X674952D01*
X674590Y177828D01*
X671599Y185049D01*
X666841Y191250D01*
X660640Y196008D01*
X653419Y199000D01*
X645669Y200020D01*
D02*
G37*
G36*
X624921D02*
X614173D01*
X606424Y199000D01*
X599203Y196008D01*
X593002Y191250D01*
X588244Y185049D01*
X585252Y177828D01*
X584890Y175079D01*
X624921D01*
Y200020D01*
D02*
G37*
G36*
X460354Y201013D02*
X444685D01*
X436679Y199959D01*
X429218Y196868D01*
X422812Y191952D01*
X417896Y185546D01*
X414805Y178085D01*
X414409Y175079D01*
X460354D01*
Y201013D01*
D02*
G37*
G36*
X382018Y177811D02*
X375330D01*
X369152Y175252D01*
X367604Y173703D01*
X364337Y170604D01*
X361071Y173703D01*
X359523Y175252D01*
X353344Y177811D01*
X346656D01*
X340477Y175252D01*
X335748Y170523D01*
X333189Y164344D01*
Y157656D01*
X335748Y151477D01*
X340477Y146748D01*
X346656Y144189D01*
X351664D01*
Y70547D01*
X352246Y67621D01*
X353904Y65140D01*
X366911Y52132D01*
X409762Y9282D01*
X412243Y7624D01*
X415169Y7042D01*
X415170Y7042D01*
X491189D01*
Y2034D01*
X493748Y-4145D01*
X498477Y-8874D01*
X504656Y-11433D01*
X511344D01*
X517523Y-8874D01*
X522252Y-4145D01*
X524811Y2034D01*
Y8722D01*
X522252Y14901D01*
X520730Y16423D01*
X517580Y19689D01*
X520730Y22955D01*
X522252Y24477D01*
X524811Y30656D01*
Y37344D01*
X522252Y43523D01*
X517523Y48252D01*
X511344Y50811D01*
X504656D01*
X498477Y48252D01*
X493748Y43523D01*
X491189Y37344D01*
Y32466D01*
X422348D01*
X420987Y33827D01*
X420987Y33827D01*
X420642Y34173D01*
X420642Y34173D01*
X416837Y37977D01*
X416996Y38214D01*
X417578Y41140D01*
X416996Y44066D01*
X415338Y46547D01*
X408267Y53618D01*
X405786Y55276D01*
X402860Y55858D01*
X400098Y55308D01*
X400074Y55428D01*
X398416Y57909D01*
X398416Y57910D01*
X391345Y64980D01*
X388864Y66638D01*
X388005Y66809D01*
X384175Y70639D01*
X384175Y70640D01*
X382407Y72407D01*
X382407Y72407D01*
X376958Y77857D01*
Y108845D01*
X376958Y108845D01*
Y144189D01*
X382018D01*
X388197Y146749D01*
X392926Y151477D01*
X395485Y157656D01*
Y164344D01*
X392926Y170523D01*
X388197Y175252D01*
X382018Y177811D01*
D02*
G37*
G36*
X262716Y159332D02*
X255362Y156286D01*
X251121Y152045D01*
X248718Y154448D01*
X242539Y157008D01*
X235851D01*
X229673Y154448D01*
X224944Y149720D01*
X222384Y143541D01*
Y136853D01*
X224944Y130674D01*
X229673Y125945D01*
X235851Y123386D01*
X242539D01*
X244354Y124138D01*
X249224Y125440D01*
X252255Y122411D01*
X255362Y119305D01*
X262716Y116258D01*
Y137795D01*
Y159332D01*
D02*
G37*
G36*
X272716D02*
Y142795D01*
X289253D01*
X286207Y150150D01*
X280071Y156286D01*
X272716Y159332D01*
D02*
G37*
G36*
X674952Y165079D02*
X634921D01*
Y140137D01*
X645669D01*
X653419Y141158D01*
X660640Y144149D01*
X666841Y148907D01*
X671599Y155108D01*
X674590Y162329D01*
X674952Y165079D01*
D02*
G37*
G36*
X624921D02*
X584890D01*
X585252Y162329D01*
X588244Y155108D01*
X593002Y148907D01*
X599203Y144149D01*
X606424Y141158D01*
X614173Y140137D01*
X624921D01*
Y165079D01*
D02*
G37*
G36*
X516299D02*
X470354D01*
Y139145D01*
X486024D01*
X494030Y140199D01*
X501491Y143289D01*
X507897Y148205D01*
X512813Y154612D01*
X515904Y162072D01*
X516299Y165079D01*
D02*
G37*
G36*
X460354D02*
X414409D01*
X414805Y162072D01*
X417896Y154612D01*
X422812Y148205D01*
X429218Y143289D01*
X436679Y140199D01*
X444685Y139145D01*
X460354D01*
Y165079D01*
D02*
G37*
G36*
X289253Y132795D02*
X272716D01*
Y116258D01*
X280071Y119305D01*
X286207Y125440D01*
X289253Y132795D01*
D02*
G37*
G36*
X488579Y131575D02*
X481500D01*
X474959Y128866D01*
X469953Y123860D01*
X467244Y117319D01*
Y110240D01*
X469953Y103699D01*
X474959Y98693D01*
X481500Y95984D01*
X488579D01*
X495120Y98693D01*
X500125Y103699D01*
X502835Y110240D01*
Y117319D01*
X500125Y123860D01*
X495120Y128866D01*
X488579Y131575D01*
D02*
G37*
G36*
X-235157Y92403D02*
Y75866D01*
X-218620D01*
X-221667Y83221D01*
X-227803Y89357D01*
X-235157Y92403D01*
D02*
G37*
G36*
X-245157D02*
X-252512Y89357D01*
X-258648Y83221D01*
X-261695Y75866D01*
X-245157D01*
Y92403D01*
D02*
G37*
G36*
X654606Y80592D02*
Y64055D01*
X671143D01*
X668097Y71410D01*
X661961Y77546D01*
X654606Y80592D01*
D02*
G37*
G36*
X644606D02*
X637251Y77546D01*
X631116Y71410D01*
X628069Y64055D01*
X644606D01*
Y80592D01*
D02*
G37*
G36*
X603425D02*
Y64055D01*
X619962D01*
X616916Y71410D01*
X610780Y77546D01*
X603425Y80592D01*
D02*
G37*
G36*
X593425D02*
X586070Y77546D01*
X579935Y71410D01*
X576888Y64055D01*
X593425D01*
Y80592D01*
D02*
G37*
G36*
X322241Y79803D02*
X315554D01*
X309375Y77244D01*
X304646Y72515D01*
X302087Y66336D01*
Y59648D01*
X304646Y53469D01*
X309375Y48740D01*
X315554Y46181D01*
X322241D01*
X328420Y48740D01*
X333149Y53469D01*
X335709Y59648D01*
Y66336D01*
X333149Y72515D01*
X328420Y77244D01*
X322241Y79803D01*
D02*
G37*
G36*
X671143Y54055D02*
X654606D01*
Y37518D01*
X661961Y40565D01*
X668097Y46700D01*
X671143Y54055D01*
D02*
G37*
G36*
X644606D02*
X628069D01*
X631116Y46700D01*
X637251Y40565D01*
X644606Y37518D01*
Y54055D01*
D02*
G37*
G36*
X619962D02*
X603425D01*
Y37518D01*
X610780Y40565D01*
X616916Y46700D01*
X619962Y54055D01*
D02*
G37*
G36*
X593425D02*
X576888D01*
X579935Y46700D01*
X586070Y40565D01*
X593425Y37518D01*
Y54055D01*
D02*
G37*
G36*
X-218620Y65866D02*
X-261695D01*
X-258648Y58511D01*
X-252924Y52787D01*
X-257924Y47788D01*
X-261244Y39772D01*
Y36012D01*
X-266244Y34216D01*
X-271109Y39081D01*
X-278464Y42127D01*
Y20590D01*
Y-946D01*
X-271109Y2100D01*
X-264974Y8236D01*
X-261653Y16252D01*
Y20011D01*
X-256653Y21808D01*
X-251788Y16943D01*
X-244433Y13896D01*
Y35433D01*
X-239433D01*
Y40433D01*
X-217896D01*
X-220943Y47788D01*
X-226666Y53512D01*
X-221667Y58511D01*
X-218620Y65866D01*
D02*
G37*
G36*
X-670354Y45159D02*
X-677709Y42112D01*
X-683845Y35977D01*
X-686891Y28622D01*
X-670354D01*
Y45159D01*
D02*
G37*
G36*
X-288464Y42127D02*
X-295819Y39081D01*
X-301955Y32945D01*
X-305001Y25590D01*
X-288464D01*
Y42127D01*
D02*
G37*
G36*
X-217896Y30433D02*
X-234433D01*
Y13896D01*
X-227078Y16943D01*
X-220943Y23078D01*
X-217896Y30433D01*
D02*
G37*
G36*
X654606Y21537D02*
Y5000D01*
X671143D01*
X668097Y12355D01*
X661961Y18491D01*
X654606Y21537D01*
D02*
G37*
G36*
X644606D02*
X637251Y18491D01*
X631116Y12355D01*
X628069Y5000D01*
X644606D01*
Y21537D01*
D02*
G37*
G36*
X603425D02*
Y5000D01*
X619962D01*
X616916Y12355D01*
X610780Y18491D01*
X603425Y21537D01*
D02*
G37*
G36*
X593425D02*
X586070Y18491D01*
X579935Y12355D01*
X576888Y5000D01*
X593425D01*
Y21537D01*
D02*
G37*
G36*
X-670354Y18622D02*
X-686891D01*
X-683845Y11267D01*
X-677709Y5131D01*
X-670354Y2085D01*
Y18622D01*
D02*
G37*
G36*
X-288464Y15591D02*
X-305001D01*
X-301955Y8236D01*
X-295819Y2100D01*
X-288464Y-946D01*
Y15591D01*
D02*
G37*
G36*
X-233000Y-3463D02*
Y-20000D01*
X-216463D01*
X-219510Y-12645D01*
X-225645Y-6510D01*
X-233000Y-3463D01*
D02*
G37*
G36*
X-243000D02*
X-250355Y-6510D01*
X-256490Y-12645D01*
X-259537Y-20000D01*
X-243000D01*
Y-3463D01*
D02*
G37*
G36*
X671143Y-5000D02*
X654606D01*
Y-21537D01*
X661961Y-18491D01*
X668097Y-12355D01*
X671143Y-5000D01*
D02*
G37*
G36*
X644606D02*
X628069D01*
X631116Y-12355D01*
X637251Y-18491D01*
X644606Y-21537D01*
Y-5000D01*
D02*
G37*
G36*
X619962D02*
X603425D01*
Y-21537D01*
X610780Y-18491D01*
X616916Y-12355D01*
X619962Y-5000D01*
D02*
G37*
G36*
X593425D02*
X576888D01*
X579935Y-12355D01*
X586070Y-18491D01*
X593425Y-21537D01*
Y-5000D01*
D02*
G37*
G36*
X-216463Y-30000D02*
X-233000D01*
Y-46537D01*
X-225645Y-43490D01*
X-219510Y-37355D01*
X-216463Y-30000D01*
D02*
G37*
G36*
X-243000D02*
X-259537D01*
X-256490Y-37355D01*
X-250355Y-43490D01*
X-243000Y-46537D01*
Y-30000D01*
D02*
G37*
G36*
X654606Y-37518D02*
Y-54055D01*
X671143D01*
X668097Y-46700D01*
X661961Y-40565D01*
X654606Y-37518D01*
D02*
G37*
G36*
X644606D02*
X637251Y-40565D01*
X631116Y-46700D01*
X628069Y-54055D01*
X644606D01*
Y-37518D01*
D02*
G37*
G36*
X603425D02*
Y-54055D01*
X619962D01*
X616916Y-46700D01*
X610780Y-40565D01*
X603425Y-37518D01*
D02*
G37*
G36*
X593425D02*
X586070Y-40565D01*
X579935Y-46700D01*
X576888Y-54055D01*
X593425D01*
Y-37518D01*
D02*
G37*
G36*
X671143Y-64055D02*
X654606D01*
Y-80592D01*
X661961Y-77546D01*
X668097Y-71410D01*
X671143Y-64055D01*
D02*
G37*
G36*
X644606D02*
X628069D01*
X631116Y-71410D01*
X637251Y-77546D01*
X644606Y-80592D01*
Y-64055D01*
D02*
G37*
G36*
X619962D02*
X603425D01*
Y-80592D01*
X610780Y-77546D01*
X616916Y-71410D01*
X619962Y-64055D01*
D02*
G37*
G36*
X593425D02*
X576888D01*
X579935Y-71410D01*
X586070Y-77546D01*
X593425Y-80592D01*
Y-64055D01*
D02*
G37*
G36*
X-232000Y-65463D02*
Y-82000D01*
X-215463D01*
X-218510Y-74645D01*
X-224645Y-68510D01*
X-232000Y-65463D01*
D02*
G37*
G36*
X-242000D02*
X-249355Y-68510D01*
X-255490Y-74645D01*
X-258537Y-82000D01*
X-242000D01*
Y-65463D01*
D02*
G37*
G36*
X-215463Y-92000D02*
X-232000D01*
Y-108537D01*
X-224645Y-105490D01*
X-218510Y-99355D01*
X-215463Y-92000D01*
D02*
G37*
G36*
X-242000D02*
X-258537D01*
X-255490Y-99355D01*
X-249355Y-105490D01*
X-242000Y-108537D01*
Y-92000D01*
D02*
G37*
G36*
X488579Y-95984D02*
X481500D01*
X474959Y-98693D01*
X469953Y-103699D01*
X467244Y-110240D01*
Y-117319D01*
X469953Y-123860D01*
X474959Y-128866D01*
X481500Y-131575D01*
X488579D01*
X495120Y-128866D01*
X500125Y-123860D01*
X502835Y-117319D01*
Y-110240D01*
X500125Y-103699D01*
X495120Y-98693D01*
X488579Y-95984D01*
D02*
G37*
G36*
X339646Y-116258D02*
Y-132795D01*
X356183D01*
X353136Y-125440D01*
X347001Y-119305D01*
X339646Y-116258D01*
D02*
G37*
G36*
X329646D02*
X322291Y-119305D01*
X316155Y-125440D01*
X313109Y-132795D01*
X329646D01*
Y-116258D01*
D02*
G37*
G36*
X-271643Y-100212D02*
X-278331D01*
X-284510Y-102771D01*
X-289238Y-107500D01*
X-291798Y-113679D01*
Y-120367D01*
X-289238Y-126546D01*
X-284510Y-131274D01*
X-278331Y-133834D01*
X-271643D01*
X-265464Y-131274D01*
X-260735Y-126546D01*
X-258176Y-120367D01*
Y-113679D01*
X-260735Y-107500D01*
X-265464Y-102771D01*
X-271643Y-100212D01*
D02*
G37*
G36*
X-319491Y-109173D02*
X-326178D01*
X-332357Y-111733D01*
X-337086Y-116462D01*
X-339646Y-122640D01*
Y-129328D01*
X-337086Y-135507D01*
X-332357Y-140236D01*
X-326178Y-142795D01*
X-319491D01*
X-313312Y-140236D01*
X-308583Y-135507D01*
X-306024Y-129328D01*
Y-122640D01*
X-308583Y-116462D01*
X-313312Y-111733D01*
X-319491Y-109173D01*
D02*
G37*
G36*
X356183Y-142795D02*
X313109D01*
X316155Y-150150D01*
X317580Y-151575D01*
X316155Y-152999D01*
X313109Y-160354D01*
X356183D01*
X353136Y-152999D01*
X351712Y-151575D01*
X353136Y-150150D01*
X356183Y-142795D01*
D02*
G37*
G36*
X486024Y-139145D02*
X470354D01*
Y-165079D01*
X516299D01*
X515904Y-162072D01*
X512813Y-154612D01*
X507897Y-148205D01*
X501491Y-143289D01*
X494030Y-140199D01*
X486024Y-139145D01*
D02*
G37*
G36*
X645669Y-140137D02*
X634921D01*
Y-165079D01*
X674952D01*
X674590Y-162329D01*
X671599Y-155108D01*
X666841Y-148907D01*
X660640Y-144149D01*
X653419Y-141158D01*
X645669Y-140137D01*
D02*
G37*
G36*
X624921D02*
X614173D01*
X606424Y-141158D01*
X599203Y-144149D01*
X593002Y-148907D01*
X588244Y-155108D01*
X585252Y-162329D01*
X584890Y-165079D01*
X624921D01*
Y-140137D01*
D02*
G37*
G36*
X460354Y-139145D02*
X444685D01*
X436679Y-140199D01*
X429218Y-143289D01*
X422812Y-148205D01*
X417896Y-154612D01*
X414805Y-162072D01*
X414409Y-165079D01*
X460354D01*
Y-139145D01*
D02*
G37*
G36*
X356183Y-170354D02*
X339646D01*
Y-186891D01*
X347001Y-183845D01*
X353136Y-177709D01*
X356183Y-170354D01*
D02*
G37*
G36*
X329646D02*
X313109D01*
X316155Y-177709D01*
X322291Y-183845D01*
X329646Y-186891D01*
Y-170354D01*
D02*
G37*
G36*
X674952Y-175079D02*
X634921D01*
Y-200020D01*
X645669D01*
X653419Y-199000D01*
X660640Y-196008D01*
X666841Y-191250D01*
X671599Y-185049D01*
X674590Y-177828D01*
X674952Y-175079D01*
D02*
G37*
G36*
X624921D02*
X584890D01*
X585252Y-177828D01*
X588244Y-185049D01*
X593002Y-191250D01*
X599203Y-196008D01*
X606424Y-199000D01*
X614173Y-200020D01*
X624921D01*
Y-175079D01*
D02*
G37*
G36*
X516299D02*
X470354D01*
Y-201013D01*
X486024D01*
X494030Y-199959D01*
X501491Y-196868D01*
X507897Y-191952D01*
X512813Y-185546D01*
X515904Y-178085D01*
X516299Y-175079D01*
D02*
G37*
G36*
X460354D02*
X414409D01*
X414805Y-178085D01*
X417896Y-185546D01*
X422812Y-191952D01*
X429218Y-196868D01*
X436679Y-199959D01*
X444685Y-201013D01*
X460354D01*
Y-175079D01*
D02*
G37*
G36*
X-595696Y-276875D02*
Y-293412D01*
X-579159D01*
X-582206Y-286057D01*
X-588341Y-279922D01*
X-595696Y-276875D01*
D02*
G37*
G36*
X-605696D02*
X-613051Y-279922D01*
X-619187Y-286057D01*
X-622233Y-293412D01*
X-605696D01*
Y-276875D01*
D02*
G37*
G36*
X605697Y-276875D02*
Y-293412D01*
X622234D01*
X619187Y-286057D01*
X613051Y-279922D01*
X605697Y-276875D01*
D02*
G37*
G36*
X595697D02*
X588342Y-279922D01*
X582206Y-286057D01*
X579159Y-293412D01*
X595697D01*
Y-276875D01*
D02*
G37*
G36*
X-579159Y-303412D02*
X-595696D01*
Y-319949D01*
X-588341Y-316903D01*
X-582206Y-310767D01*
X-579159Y-303412D01*
D02*
G37*
G36*
X-605696D02*
X-622233D01*
X-619187Y-310767D01*
X-613051Y-316903D01*
X-605696Y-319949D01*
Y-303412D01*
D02*
G37*
G36*
X622234Y-303412D02*
X605697D01*
Y-319949D01*
X613051Y-316903D01*
X619187Y-310767D01*
X622234Y-303412D01*
D02*
G37*
G36*
X595697D02*
X579159D01*
X582206Y-310767D01*
X588342Y-316903D01*
X595697Y-319949D01*
Y-303412D01*
D02*
G37*
G36*
X-518504Y-395742D02*
Y-412279D01*
X-501966D01*
X-505013Y-404924D01*
X-511149Y-398788D01*
X-518504Y-395742D01*
D02*
G37*
G36*
X-528504D02*
X-535858Y-398788D01*
X-541994Y-404924D01*
X-545040Y-412279D01*
X-528504D01*
Y-395742D01*
D02*
G37*
G36*
X528504Y-395742D02*
Y-412279D01*
X545041D01*
X541994Y-404924D01*
X535859Y-398788D01*
X528504Y-395742D01*
D02*
G37*
G36*
X518504D02*
X511149Y-398788D01*
X505013Y-404924D01*
X501967Y-412279D01*
X518504D01*
Y-395742D01*
D02*
G37*
G36*
X-501966Y-422279D02*
X-518504D01*
Y-438816D01*
X-511149Y-435769D01*
X-505013Y-429634D01*
X-501966Y-422279D01*
D02*
G37*
G36*
X-528504D02*
X-545040D01*
X-541994Y-429634D01*
X-535858Y-435769D01*
X-528504Y-438816D01*
Y-422279D01*
D02*
G37*
G36*
X545041Y-422279D02*
X528504D01*
Y-438816D01*
X535859Y-435769D01*
X541994Y-429634D01*
X545041Y-422279D01*
D02*
G37*
G36*
X518504D02*
X501967D01*
X505013Y-429634D01*
X511149Y-435769D01*
X518504Y-438816D01*
Y-422279D01*
D02*
G37*
G36*
X309961Y-533581D02*
X302606Y-536628D01*
X296470Y-542763D01*
X293424Y-550118D01*
X309961D01*
Y-533581D01*
D02*
G37*
G36*
X5000Y-580825D02*
Y-597362D01*
X21537D01*
X18491Y-590007D01*
X12355Y-583872D01*
X5000Y-580825D01*
D02*
G37*
G36*
X-5000D02*
X-12355Y-583872D01*
X-18491Y-590007D01*
X-21537Y-597362D01*
X-5000D01*
Y-580825D01*
D02*
G37*
G36*
X21537Y-607362D02*
X-21537D01*
X-18491Y-614717D01*
X-13129Y-620079D01*
X-18491Y-625440D01*
X-21537Y-632795D01*
X21537D01*
X18491Y-625440D01*
X13129Y-620079D01*
X18491Y-614717D01*
X21537Y-607362D01*
D02*
G37*
G36*
X230198D02*
X187124D01*
X190171Y-614717D01*
X196306Y-620853D01*
X197907Y-621516D01*
Y-626516D01*
X196306Y-627179D01*
X190171Y-633314D01*
X187124Y-640669D01*
X230198D01*
X227152Y-633314D01*
X221016Y-627179D01*
X219416Y-626516D01*
Y-621516D01*
X221016Y-620853D01*
X227152Y-614717D01*
X230198Y-607362D01*
D02*
G37*
G36*
X175080Y-615236D02*
X132006D01*
X135053Y-622591D01*
X141188Y-628727D01*
X142789Y-629390D01*
Y-634390D01*
X141188Y-635053D01*
X135053Y-641188D01*
X132006Y-648543D01*
X175080D01*
X172034Y-641188D01*
X165898Y-635053D01*
X164298Y-634390D01*
Y-629390D01*
X165898Y-628727D01*
X172034Y-622591D01*
X175080Y-615236D01*
D02*
G37*
G36*
X-187124Y-634921D02*
X-203661D01*
Y-651458D01*
X-196306Y-648412D01*
X-190171Y-642276D01*
X-187124Y-634921D01*
D02*
G37*
G36*
X-213661D02*
X-230198D01*
X-227152Y-642276D01*
X-221016Y-648412D01*
X-213661Y-651458D01*
Y-634921D01*
D02*
G37*
G36*
X-160354Y-639880D02*
Y-656417D01*
X-143817D01*
X-146864Y-649062D01*
X-152999Y-642927D01*
X-160354Y-639880D01*
D02*
G37*
G36*
X-170354D02*
X-177709Y-642927D01*
X-183845Y-649062D01*
X-186891Y-656417D01*
X-170354D01*
Y-639880D01*
D02*
G37*
G36*
X230198Y-650669D02*
X213661D01*
Y-667206D01*
X221016Y-664160D01*
X227152Y-658024D01*
X230198Y-650669D01*
D02*
G37*
G36*
X203661D02*
X187124D01*
X190171Y-658024D01*
X196306Y-664160D01*
X203661Y-667206D01*
Y-650669D01*
D02*
G37*
G36*
X21537Y-642795D02*
X-21537D01*
X-18491Y-650150D01*
X-13129Y-655512D01*
X-18491Y-660873D01*
X-21537Y-668228D01*
X21537D01*
X18491Y-660873D01*
X13129Y-655512D01*
X18491Y-650150D01*
X21537Y-642795D01*
D02*
G37*
G36*
X175080Y-658543D02*
X158543D01*
Y-675080D01*
X165898Y-672034D01*
X172034Y-665898D01*
X175080Y-658543D01*
D02*
G37*
G36*
X148543D02*
X132006D01*
X135053Y-665898D01*
X141188Y-672034D01*
X148543Y-675080D01*
Y-658543D01*
D02*
G37*
G36*
X-143817Y-666417D02*
X-160354D01*
Y-682954D01*
X-152999Y-679908D01*
X-146864Y-673772D01*
X-143817Y-666417D01*
D02*
G37*
G36*
X-170354D02*
X-186891D01*
X-183845Y-673772D01*
X-177709Y-679908D01*
X-170354Y-682954D01*
Y-666417D01*
D02*
G37*
G36*
X21537Y-678228D02*
X5000D01*
Y-694765D01*
X12355Y-691719D01*
X18491Y-685583D01*
X21537Y-678228D01*
D02*
G37*
G36*
X-5000D02*
X-21537D01*
X-18491Y-685583D01*
X-12355Y-691719D01*
X-5000Y-694765D01*
Y-678228D01*
D02*
G37*
%LPD*%
G36*
X192353Y436614D02*
X191233Y437710D01*
X189061Y439556D01*
X188008Y440305D01*
X186977Y440940D01*
X185969Y441459D01*
X184982Y441863D01*
X184019Y442151D01*
X183077Y442324D01*
X182157Y442382D01*
Y447382D01*
X183077Y447440D01*
X184019Y447613D01*
X184982Y447901D01*
X185969Y448305D01*
X186977Y448824D01*
X188008Y449458D01*
X189061Y450208D01*
X190136Y451073D01*
X192353Y453150D01*
Y436614D01*
D02*
G37*
G36*
X197537Y402031D02*
X196171Y402376D01*
X194875Y402610D01*
X193647Y402733D01*
X192489Y402745D01*
X191399Y402647D01*
X190379Y402436D01*
X189427Y402115D01*
X188545Y401683D01*
X187731Y401140D01*
X186987Y400486D01*
X184452Y405021D01*
X184967Y405601D01*
X185477Y406305D01*
X185982Y407134D01*
X186481Y408086D01*
X186976Y409163D01*
X187949Y411688D01*
X188901Y414711D01*
X189370Y416408D01*
X197537Y402031D01*
D02*
G37*
G36*
X-364028Y401782D02*
X-365874Y399610D01*
X-366624Y398557D01*
X-367258Y397526D01*
X-367777Y396518D01*
X-368181Y395532D01*
X-368469Y394568D01*
X-368642Y393626D01*
X-368700Y392707D01*
X-373700D01*
X-373758Y393626D01*
X-373931Y394568D01*
X-374219Y395532D01*
X-374623Y396518D01*
X-375142Y397526D01*
X-375777Y398557D01*
X-376526Y399610D01*
X-377392Y400685D01*
X-379468Y402902D01*
X-362933D01*
X-364028Y401782D01*
D02*
G37*
G36*
X181819Y436981D02*
X182417Y436943D01*
X182750Y436882D01*
X183178Y436754D01*
X183700Y436540D01*
X184316Y436223D01*
X185016Y435792D01*
X185733Y435281D01*
X187583Y433709D01*
X188567Y432747D01*
X189539Y432356D01*
X189554Y432341D01*
X190720Y429134D01*
X189554Y425927D01*
X186536Y422908D01*
X184765Y418634D01*
X184153Y417848D01*
X183710Y416243D01*
X182838Y413476D01*
X181987Y411268D01*
X181622Y410473D01*
X181269Y409801D01*
X180968Y409307D01*
X180742Y408995D01*
X180406Y408616D01*
X180214Y408062D01*
X161688Y389537D01*
X77059D01*
X74988Y394537D01*
X77546Y397094D01*
X80592Y404449D01*
X37518D01*
X40565Y397094D01*
X43122Y394537D01*
X41051Y389537D01*
X18004D01*
X15933Y394537D01*
X18491Y397094D01*
X21537Y404449D01*
X-21537D01*
X-18491Y397094D01*
X-15933Y394537D01*
X-18004Y389537D01*
X-41051D01*
X-43122Y394537D01*
X-40565Y397094D01*
X-37518Y404449D01*
X-80592D01*
X-77546Y397094D01*
X-74988Y394537D01*
X-77059Y389537D01*
X-193872D01*
X-195786Y394156D01*
X-152707Y437235D01*
X181299D01*
X181819Y436981D01*
D02*
G37*
G36*
X-70544Y369243D02*
X-71410Y368884D01*
X-77546Y362749D01*
X-80592Y355394D01*
X-59055D01*
Y345394D01*
X-80592D01*
X-79399Y342513D01*
X-82177Y338356D01*
X-177935D01*
X-181600Y342021D01*
X-181787Y342568D01*
X-182184Y343017D01*
X-182376Y343297D01*
X-182588Y343689D01*
X-182807Y344211D01*
X-183017Y344869D01*
X-183208Y345670D01*
X-183354Y346537D01*
X-183550Y348958D01*
X-183565Y350334D01*
X-183976Y351297D01*
Y353738D01*
X-186536Y359916D01*
X-191265Y364645D01*
X-197444Y367205D01*
X-198120D01*
X-200625Y372205D01*
X-199100Y374243D01*
X-71539D01*
X-70544Y369243D01*
D02*
G37*
G36*
X-188960Y348709D02*
X-188729Y345868D01*
X-188515Y344593D01*
X-188235Y343416D01*
X-187889Y342336D01*
X-187477Y341353D01*
X-186999Y340467D01*
X-186456Y339679D01*
X-185846Y338988D01*
X-189382Y335452D01*
X-190073Y336062D01*
X-190861Y336606D01*
X-191746Y337083D01*
X-192729Y337495D01*
X-193809Y337841D01*
X-194987Y338121D01*
X-196262Y338335D01*
X-197633Y338484D01*
X-200669Y338583D01*
X-188977Y350276D01*
X-188960Y348709D01*
D02*
G37*
G36*
X50193Y262570D02*
X48439Y260816D01*
X45880Y254637D01*
Y247949D01*
X45919Y247855D01*
X45869Y247605D01*
X46115Y246363D01*
X46244Y245395D01*
X46293Y244555D01*
X46276Y243846D01*
X46207Y243270D01*
X46104Y242813D01*
X45980Y242462D01*
X45844Y242189D01*
X45691Y241961D01*
X45277Y241490D01*
X45134Y241070D01*
X44771Y240815D01*
X44731Y240585D01*
X28329Y224182D01*
X-113501D01*
X-114495Y229182D01*
X-113629Y229541D01*
X-107494Y235677D01*
X-104447Y243031D01*
X-147521D01*
X-144475Y235677D01*
X-138339Y229541D01*
X-137474Y229182D01*
X-138468Y224182D01*
X-212598D01*
X-215525Y223600D01*
X-218006Y221943D01*
X-342064Y97884D01*
X-346684Y99797D01*
Y143497D01*
X-336145Y154035D01*
X-335598Y154223D01*
X-335149Y154619D01*
X-334869Y154812D01*
X-334477Y155023D01*
X-333955Y155242D01*
X-333297Y155453D01*
X-332496Y155643D01*
X-331629Y155789D01*
X-329208Y155986D01*
X-327832Y156001D01*
X-326869Y156412D01*
X-324428D01*
X-318249Y158971D01*
X-313520Y163700D01*
X-310961Y169879D01*
Y176567D01*
X-313520Y182746D01*
X-318249Y187475D01*
X-324428Y190034D01*
X-331116D01*
X-337295Y187475D01*
X-342024Y182746D01*
X-344583Y176567D01*
Y174184D01*
X-344991Y173282D01*
X-345084Y170450D01*
X-345194Y169437D01*
X-345238Y169171D01*
X-346827Y167599D01*
X-347205Y167369D01*
X-351504Y169091D01*
X-352205Y169693D01*
X-355525Y177709D01*
X-361661Y183845D01*
X-368082Y186505D01*
X-369873Y191785D01*
X-294088Y267570D01*
X-228001D01*
X-225223Y263412D01*
X-226261Y260906D01*
X-183187D01*
X-184226Y263412D01*
X-181448Y267570D01*
X-144363D01*
X-142292Y262570D01*
X-144475Y260386D01*
X-147521Y253031D01*
X-104447D01*
X-107494Y260386D01*
X-109677Y262570D01*
X-107606Y267570D01*
X48122D01*
X50193Y262570D01*
D02*
G37*
G36*
X115270Y266300D02*
X116058Y265757D01*
X116943Y265279D01*
X117926Y264867D01*
X119006Y264521D01*
X120184Y264241D01*
X121458Y264027D01*
X122830Y263878D01*
X125866Y263779D01*
X114174Y252087D01*
X114157Y253653D01*
X113926Y256494D01*
X113712Y257769D01*
X113432Y258947D01*
X113086Y260027D01*
X112674Y261009D01*
X112196Y261895D01*
X111653Y262683D01*
X111043Y263374D01*
X114579Y266910D01*
X115270Y266300D01*
D02*
G37*
G36*
X65095Y239729D02*
X63419Y239359D01*
X59104Y238135D01*
X57902Y237689D01*
X55854Y236739D01*
X55007Y236236D01*
X54279Y235714D01*
X53669Y235173D01*
X49342Y237917D01*
X49989Y238653D01*
X50533Y239465D01*
X50975Y240351D01*
X51313Y241313D01*
X51548Y242349D01*
X51680Y243461D01*
X51709Y244648D01*
X51635Y245910D01*
X51458Y247246D01*
X51178Y248659D01*
X65095Y239729D01*
D02*
G37*
G36*
X467943Y224016D02*
X466824Y225112D01*
X464651Y226957D01*
X463598Y227707D01*
X462568Y228341D01*
X461559Y228861D01*
X460573Y229264D01*
X459609Y229553D01*
X458668Y229726D01*
X457748Y229783D01*
Y234783D01*
X458668Y234841D01*
X459609Y235014D01*
X460573Y235303D01*
X461559Y235706D01*
X462568Y236225D01*
X463598Y236860D01*
X464651Y237610D01*
X465726Y238475D01*
X467943Y240551D01*
X467943Y224016D01*
D02*
G37*
G36*
X-327890Y161413D02*
X-329457Y161396D01*
X-332298Y161165D01*
X-333572Y160950D01*
X-334750Y160670D01*
X-335830Y160324D01*
X-336813Y159912D01*
X-337698Y159435D01*
X-338487Y158891D01*
X-339178Y158282D01*
X-342713Y161817D01*
X-342104Y162508D01*
X-341560Y163297D01*
X-341082Y164182D01*
X-340671Y165165D01*
X-340325Y166245D01*
X-340045Y167422D01*
X-339830Y168697D01*
X-339682Y170069D01*
X-339582Y173105D01*
X-327890Y161413D01*
D02*
G37*
G36*
X174464Y163070D02*
X174279Y161738D01*
X174198Y160481D01*
X174221Y159298D01*
X174348Y158190D01*
X174579Y157155D01*
X174915Y156195D01*
X175355Y155309D01*
X175899Y154497D01*
X176547Y153760D01*
X172191Y151045D01*
X171585Y151583D01*
X170860Y152104D01*
X170015Y152607D01*
X169052Y153094D01*
X167969Y153563D01*
X165447Y154451D01*
X164007Y154869D01*
X160769Y155653D01*
X174754Y164476D01*
X174464Y163070D01*
D02*
G37*
G36*
X-177502Y154544D02*
X-177447Y154356D01*
X-177336Y154127D01*
X-177168Y153857D01*
X-176944Y153546D01*
X-176324Y152800D01*
X-175477Y151891D01*
X-174969Y151374D01*
X-178504Y147839D01*
X-178832Y148155D01*
X-179421Y148654D01*
X-179682Y148835D01*
X-179921Y148972D01*
X-180137Y149064D01*
X-180330Y149110D01*
X-180502Y149111D01*
X-180651Y149068D01*
X-180777Y148979D01*
X-177500Y154691D01*
X-177502Y154544D01*
D02*
G37*
G36*
X101660Y151863D02*
X99814Y149690D01*
X99065Y148638D01*
X98430Y147607D01*
X97911Y146599D01*
X97507Y145612D01*
X97219Y144649D01*
X97046Y143707D01*
X96988Y142787D01*
X91988D01*
X91930Y143707D01*
X91757Y144649D01*
X91469Y145612D01*
X91065Y146599D01*
X90546Y147607D01*
X89912Y148638D01*
X89162Y149690D01*
X88297Y150766D01*
X86221Y152983D01*
X102756D01*
X101660Y151863D01*
D02*
G37*
G36*
X-212582Y155796D02*
X-212351Y152954D01*
X-212137Y151680D01*
X-211857Y150502D01*
X-211511Y149422D01*
X-211099Y148439D01*
X-210621Y147554D01*
X-210078Y146766D01*
X-209468Y146075D01*
X-213004Y142539D01*
X-213695Y143149D01*
X-214483Y143692D01*
X-215369Y144170D01*
X-216351Y144582D01*
X-217431Y144928D01*
X-218609Y145208D01*
X-219883Y145422D01*
X-221256Y145571D01*
X-224291Y145670D01*
X-212599Y157362D01*
X-212582Y155796D01*
D02*
G37*
G36*
X66702Y132627D02*
X66146Y131899D01*
X65656Y131111D01*
X65231Y130264D01*
X64872Y129358D01*
X64578Y128393D01*
X64349Y127370D01*
X64299Y127035D01*
X64505Y125782D01*
X64855Y124466D01*
X65305Y123353D01*
X65855Y122442D01*
X66505Y121734D01*
X67255Y121228D01*
X68105Y120924D01*
X69055Y120823D01*
X49055D01*
X50005Y120924D01*
X50855Y121228D01*
X51605Y121734D01*
X52255Y122442D01*
X52805Y123353D01*
X53255Y124466D01*
X53605Y125782D01*
X53812Y127035D01*
X53761Y127370D01*
X53532Y128393D01*
X53238Y129358D01*
X52879Y130264D01*
X52454Y131111D01*
X51964Y131899D01*
X51408Y132627D01*
X50787Y133298D01*
X67323D01*
X66702Y132627D01*
D02*
G37*
G36*
X-31233Y121059D02*
X-29293Y121063D01*
Y111063D01*
X-30202Y111055D01*
X-29906Y108185D01*
X-30626Y108732D01*
X-31400Y109221D01*
X-32226Y109653D01*
X-33105Y110027D01*
X-34038Y110344D01*
X-35023Y110603D01*
X-35646Y110723D01*
X-36793Y110640D01*
X-37693Y110454D01*
X-38393Y110234D01*
X-38893Y109981D01*
X-39193Y109693D01*
X-39293Y109372D01*
Y111058D01*
X-39496Y111063D01*
X-40637Y121063D01*
X-39432Y121099D01*
X-38294Y121206D01*
X-37223Y121384D01*
X-36219Y121634D01*
X-35282Y121956D01*
X-34412Y122348D01*
X-33609Y122812D01*
X-32873Y123348D01*
X-32204Y123955D01*
X-31602Y124633D01*
X-31233Y121059D01*
D02*
G37*
G36*
X-98543Y106300D02*
X-100110Y106283D01*
X-102951Y106052D01*
X-104226Y105838D01*
X-105403Y105558D01*
X-106483Y105212D01*
X-107466Y104800D01*
X-108352Y104322D01*
X-109140Y103778D01*
X-109831Y103169D01*
X-113366Y106705D01*
X-112757Y107395D01*
X-112213Y108184D01*
X-111736Y109069D01*
X-111324Y110052D01*
X-110978Y111132D01*
X-110698Y112310D01*
X-110484Y113584D01*
X-110335Y114956D01*
X-110236Y117992D01*
X-98543Y106300D01*
D02*
G37*
G36*
X-30798Y97156D02*
X-29293Y97126D01*
Y87126D01*
X-30798Y87120D01*
Y83858D01*
X-31468Y84479D01*
X-32197Y85035D01*
X-32985Y85525D01*
X-33832Y85950D01*
X-34738Y86309D01*
X-35703Y86603D01*
X-36485Y86778D01*
X-38893Y86623D01*
X-39193Y86490D01*
X-39293Y86341D01*
Y87103D01*
X-40151Y87126D01*
Y97126D01*
X-39293Y97149D01*
Y97912D01*
X-39193Y97762D01*
X-38893Y97629D01*
X-38393Y97511D01*
X-37693Y97409D01*
X-37106Y97363D01*
X-36726Y97420D01*
X-35703Y97649D01*
X-34738Y97943D01*
X-33832Y98302D01*
X-32985Y98727D01*
X-32197Y99217D01*
X-31468Y99773D01*
X-30798Y100394D01*
Y97156D01*
D02*
G37*
G36*
X91075Y85243D02*
X90347Y85773D01*
X89567Y86247D01*
X88735Y86665D01*
X87851Y87028D01*
X86915Y87335D01*
X85926Y87585D01*
X84885Y87781D01*
X84309Y87854D01*
X80923Y87609D01*
X80023Y87423D01*
X79323Y87203D01*
X78823Y86949D01*
X78523Y86662D01*
X78423Y86341D01*
Y97912D01*
X78523Y97934D01*
X78823Y97955D01*
X80080Y97973D01*
X80072Y98031D01*
X81277Y98068D01*
X82414Y98176D01*
X83483Y98357D01*
X84482Y98611D01*
X85413Y98937D01*
X86275Y99335D01*
X87068Y99806D01*
X87793Y100349D01*
X88448Y100965D01*
X89035Y101653D01*
X91075Y85243D01*
D02*
G37*
G36*
X-593409Y88867D02*
X-593178Y86025D01*
X-592964Y84751D01*
X-592684Y83573D01*
X-592338Y82493D01*
X-591926Y81510D01*
X-591448Y80625D01*
X-590904Y79837D01*
X-590295Y79146D01*
X-593831Y75610D01*
X-594522Y76219D01*
X-595310Y76763D01*
X-596195Y77241D01*
X-597178Y77653D01*
X-598258Y77999D01*
X-599436Y78279D01*
X-600710Y78493D01*
X-602082Y78641D01*
X-605118Y78741D01*
X-593426Y90433D01*
X-593409Y88867D01*
D02*
G37*
G36*
X-626687Y80997D02*
X-628532Y78824D01*
X-629282Y77772D01*
X-629916Y76741D01*
X-630436Y75733D01*
X-630839Y74746D01*
X-631128Y73782D01*
X-631301Y72841D01*
X-631358Y71921D01*
X-636358D01*
X-636416Y72841D01*
X-636589Y73782D01*
X-636877Y74746D01*
X-637281Y75733D01*
X-637800Y76741D01*
X-638435Y77772D01*
X-639184Y78824D01*
X-640050Y79900D01*
X-642126Y82117D01*
X-625591D01*
X-626687Y80997D01*
D02*
G37*
G36*
X85748Y65000D02*
X84356Y64983D01*
X81060Y64729D01*
X80254Y64577D01*
X79595Y64391D01*
X79082Y64171D01*
X78716Y63918D01*
X78496Y63630D01*
X78423Y63309D01*
Y74880D01*
X78496Y74903D01*
X78716Y74923D01*
X79595Y74957D01*
X85748Y75000D01*
Y65000D01*
D02*
G37*
G36*
X-88772Y77813D02*
X-88086Y77219D01*
X-87335Y76694D01*
X-86519Y76239D01*
X-85638Y75855D01*
X-84694Y75540D01*
X-83684Y75295D01*
X-82610Y75120D01*
X-81471Y75015D01*
X-80267Y74980D01*
X-80274Y74899D01*
X-78423Y74880D01*
Y63309D01*
X-78523Y63626D01*
X-78823Y63911D01*
X-79323Y64161D01*
X-80023Y64379D01*
X-80923Y64562D01*
X-82023Y64713D01*
X-83662Y64830D01*
X-84530Y64711D01*
X-85566Y64502D01*
X-86546Y64233D01*
X-87473Y63904D01*
X-88345Y63515D01*
X-89162Y63066D01*
X-89925Y62557D01*
X-90634Y61989D01*
X-89394Y78478D01*
X-88772Y77813D01*
D02*
G37*
G36*
X-473248Y57587D02*
X-473857Y56896D01*
X-474401Y56108D01*
X-474878Y55222D01*
X-475290Y54239D01*
X-475636Y53159D01*
X-475916Y51982D01*
X-476131Y50707D01*
X-476279Y49335D01*
X-476379Y46299D01*
X-488071Y57992D01*
X-486504Y58008D01*
X-483663Y58239D01*
X-482388Y58454D01*
X-481211Y58734D01*
X-480131Y59080D01*
X-479148Y59492D01*
X-478263Y59969D01*
X-477474Y60513D01*
X-476783Y61122D01*
X-473248Y57587D01*
D02*
G37*
G36*
X-91548Y51923D02*
X-90754Y51552D01*
X-89910Y51225D01*
X-89014Y50942D01*
X-88068Y50702D01*
X-87070Y50506D01*
X-85158Y50273D01*
X-80923Y50580D01*
X-80023Y50766D01*
X-79323Y50986D01*
X-78823Y51240D01*
X-78523Y51527D01*
X-78423Y51849D01*
Y40278D01*
X-78523Y40255D01*
X-78823Y40234D01*
X-79731Y40221D01*
X-79713Y40157D01*
X-80926Y40119D01*
X-82058Y40004D01*
X-83110Y39811D01*
X-84080Y39542D01*
X-84971Y39196D01*
X-85780Y38773D01*
X-86509Y38273D01*
X-87157Y37697D01*
X-87725Y37043D01*
X-88212Y36312D01*
X-92290Y52337D01*
X-91548Y51923D01*
D02*
G37*
G36*
X-31031Y28066D02*
X-29293Y28032D01*
Y18032D01*
X-30529Y18026D01*
X-30374Y14943D01*
X-31072Y15530D01*
X-31824Y16055D01*
X-32633Y16518D01*
X-33497Y16920D01*
X-34417Y17259D01*
X-35393Y17537D01*
X-36184Y17703D01*
X-38893Y17529D01*
X-39193Y17395D01*
X-39293Y17246D01*
Y18017D01*
X-39854Y18032D01*
X-40407Y28032D01*
X-39293Y28063D01*
Y28817D01*
X-39193Y28668D01*
X-38893Y28534D01*
X-38393Y28416D01*
X-37693Y28314D01*
X-37329Y28286D01*
X-36988Y28340D01*
X-35973Y28580D01*
X-35022Y28888D01*
X-34132Y29265D01*
X-33306Y29710D01*
X-32541Y30224D01*
X-31840Y30807D01*
X-31201Y31458D01*
X-31031Y28066D01*
D02*
G37*
G36*
X-616717Y78243D02*
X-616281Y77822D01*
X-614759Y76300D01*
X-608580Y73740D01*
X-606197D01*
X-605295Y73332D01*
X-602463Y73239D01*
X-601450Y73129D01*
X-600512Y72972D01*
X-599712Y72781D01*
X-599054Y72570D01*
X-598531Y72351D01*
X-598139Y72140D01*
X-597860Y71947D01*
X-597411Y71551D01*
X-596863Y71364D01*
X-558429Y32930D01*
Y-19599D01*
X-563429Y-20593D01*
X-564489Y-18037D01*
X-569218Y-13307D01*
X-575396Y-10748D01*
X-582084D01*
X-588263Y-13307D01*
X-592992Y-18037D01*
X-595551Y-24215D01*
Y-30903D01*
X-595423Y-31212D01*
X-599662Y-34044D01*
X-600714Y-32992D01*
X-606892Y-30433D01*
X-613580D01*
X-619759Y-32992D01*
X-621211Y-34445D01*
X-626211Y-32374D01*
Y11139D01*
X-621211Y12133D01*
X-620853Y11267D01*
X-614717Y5131D01*
X-607362Y2085D01*
Y23622D01*
Y45159D01*
X-614717Y42112D01*
X-620853Y35977D01*
X-621211Y35111D01*
X-626211Y36105D01*
Y71063D01*
X-625957Y71582D01*
X-625919Y72180D01*
X-625858Y72514D01*
X-625730Y72941D01*
X-625516Y73464D01*
X-625199Y74080D01*
X-624769Y74780D01*
X-624258Y75497D01*
X-622774Y77243D01*
X-622669Y77350D01*
X-617068Y78249D01*
X-616717Y78243D01*
D02*
G37*
G36*
X-17364Y2085D02*
X-13021Y3884D01*
X-8021Y586D01*
Y-9653D01*
X-7439Y-12579D01*
X-5781Y-15060D01*
X29195Y-50036D01*
X31676Y-51694D01*
X33285Y-52014D01*
X33661Y-52181D01*
X34173Y-56968D01*
Y-58189D01*
X34173D01*
Y-64589D01*
X34153Y-64590D01*
X33561Y-64853D01*
X15159D01*
X15159Y-64853D01*
X12232Y-65435D01*
X10185Y-66803D01*
X9420Y-67064D01*
X8964Y-67466D01*
X8697Y-67649D01*
X8334Y-67840D01*
X7854Y-68032D01*
X7243Y-68212D01*
X6497Y-68365D01*
X5692Y-68469D01*
X3373Y-68549D01*
X2053Y-68491D01*
X1007Y-68872D01*
X-2312D01*
X-8491Y-71432D01*
X-13220Y-76161D01*
X-15779Y-82339D01*
Y-89027D01*
X-13657Y-94151D01*
X-13552Y-94842D01*
X-11947Y-97505D01*
X-11388Y-98541D01*
X-10424Y-100604D01*
X-10133Y-101367D01*
X-10058Y-101606D01*
X-29554Y-121102D01*
X-34173Y-119188D01*
Y-108031D01*
X-34173Y-104252D01*
X-34173D01*
Y-103031D01*
X-34173D01*
Y-81221D01*
X-34173D01*
Y-80000D01*
X-34173D01*
X-34173Y-58189D01*
X-34173Y-53189D01*
X-34173Y-35157D01*
X-34173Y-30157D01*
X-34173Y-12126D01*
X-34173Y-7126D01*
Y406D01*
X-30016Y3184D01*
X-27364Y2085D01*
Y23622D01*
X-17364D01*
Y2085D01*
D02*
G37*
G36*
X-89320Y7647D02*
X-88591Y7091D01*
X-87803Y6601D01*
X-86957Y6176D01*
X-86051Y5817D01*
X-85086Y5523D01*
X-84063Y5294D01*
X-83467Y5204D01*
X-78823Y5503D01*
X-78523Y5636D01*
X-78423Y5785D01*
Y-5785D01*
X-78523Y-5636D01*
X-78823Y-5503D01*
X-79323Y-5385D01*
X-80023Y-5283D01*
X-82023Y-5126D01*
X-82754Y-5111D01*
X-82980Y-5131D01*
X-84063Y-5294D01*
X-85086Y-5523D01*
X-86051Y-5817D01*
X-86957Y-6176D01*
X-87803Y-6601D01*
X-88591Y-7091D01*
X-89320Y-7647D01*
X-89990Y-8268D01*
Y8268D01*
X-89320Y7647D01*
D02*
G37*
G36*
X195754Y-2168D02*
X195927Y-3110D01*
X196215Y-4074D01*
X196619Y-5060D01*
X197138Y-6068D01*
X197772Y-7099D01*
X198522Y-8152D01*
X199387Y-9227D01*
X201464Y-11444D01*
X184928D01*
X186024Y-10324D01*
X187870Y-8152D01*
X188619Y-7099D01*
X189254Y-6068D01*
X189773Y-5060D01*
X190177Y-4074D01*
X190465Y-3110D01*
X190638Y-2168D01*
X190696Y-1249D01*
X195696D01*
X195754Y-2168D01*
D02*
G37*
G36*
X-500292Y-9849D02*
X-500119Y-10790D01*
X-499830Y-11754D01*
X-499427Y-12740D01*
X-498908Y-13749D01*
X-498273Y-14780D01*
X-497523Y-15832D01*
X-496658Y-16907D01*
X-494582Y-19124D01*
X-511117D01*
X-510021Y-18005D01*
X-508176Y-15832D01*
X-507426Y-14780D01*
X-506791Y-13749D01*
X-506272Y-12740D01*
X-505869Y-11754D01*
X-505580Y-10790D01*
X-505407Y-9849D01*
X-505349Y-8929D01*
X-500349D01*
X-500292Y-9849D01*
D02*
G37*
G36*
X-528938Y-9844D02*
X-528765Y-10786D01*
X-528476Y-11750D01*
X-528072Y-12736D01*
X-527552Y-13743D01*
X-526917Y-14772D01*
X-526167Y-15823D01*
X-525300Y-16896D01*
X-523221Y-19107D01*
X-539757Y-19142D01*
X-538662Y-18019D01*
X-536819Y-15841D01*
X-536070Y-14787D01*
X-535436Y-13755D01*
X-534918Y-12745D01*
X-534515Y-11759D01*
X-534226Y-10795D01*
X-534054Y-9853D01*
X-533996Y-8934D01*
X-528996Y-8924D01*
X-528938Y-9844D01*
D02*
G37*
G36*
X374827Y-11685D02*
X375058Y-14526D01*
X375273Y-15801D01*
X375553Y-16978D01*
X375899Y-18058D01*
X376311Y-19041D01*
X376788Y-19926D01*
X377332Y-20715D01*
X377941Y-21406D01*
X374406Y-24941D01*
X373715Y-24332D01*
X372926Y-23788D01*
X372041Y-23311D01*
X371058Y-22899D01*
X369978Y-22553D01*
X368801Y-22273D01*
X367526Y-22058D01*
X366154Y-21910D01*
X363118Y-21810D01*
X374810Y-10118D01*
X374827Y-11685D01*
D02*
G37*
G36*
X362882Y-21810D02*
X361315Y-21827D01*
X358474Y-22058D01*
X357199Y-22273D01*
X356022Y-22553D01*
X354942Y-22899D01*
X353959Y-23311D01*
X353074Y-23788D01*
X352285Y-24332D01*
X351594Y-24941D01*
X348059Y-21406D01*
X348668Y-20715D01*
X349212Y-19926D01*
X349689Y-19041D01*
X350101Y-18058D01*
X350447Y-16978D01*
X350727Y-15801D01*
X350942Y-14526D01*
X351090Y-13154D01*
X351190Y-10118D01*
X362882Y-21810D01*
D02*
G37*
G36*
X39293Y-28817D02*
X39243Y-28476D01*
X39093Y-28170D01*
X38843Y-27901D01*
X38493Y-27668D01*
X38043Y-27470D01*
X37493Y-27308D01*
X36843Y-27183D01*
X36093Y-27093D01*
X35243Y-27039D01*
X34293Y-27021D01*
Y-22021D01*
X35260Y-21996D01*
X36126Y-21921D01*
X36891Y-21796D01*
X37555Y-21621D01*
X38117Y-21396D01*
X38579Y-21121D01*
X38939Y-20796D01*
X39198Y-20421D01*
X39356Y-19996D01*
X39413Y-19521D01*
X39293Y-28817D01*
D02*
G37*
G36*
X-440811Y48364D02*
Y42661D01*
X-437490Y34645D01*
X-431355Y28509D01*
X-426294Y26413D01*
Y21001D01*
X-432355Y18491D01*
X-438490Y12355D01*
X-441537Y5000D01*
X-398463D01*
X-401510Y12355D01*
X-407645Y18491D01*
X-412706Y20587D01*
Y25999D01*
X-406645Y28509D01*
X-400510Y34645D01*
X-399247Y37693D01*
X-393349Y38866D01*
X-391412Y36929D01*
X-385234Y34370D01*
X-378546D01*
X-372367Y36929D01*
X-367638Y41658D01*
X-366978Y43253D01*
X-361978Y42259D01*
Y-36203D01*
X-435657Y-109882D01*
X-439896Y-107049D01*
X-439189Y-105344D01*
Y-98656D01*
X-441748Y-92477D01*
X-446477Y-87748D01*
X-452656Y-85189D01*
X-459344D01*
X-465523Y-87748D01*
X-470252Y-92477D01*
X-472811Y-98656D01*
Y-105344D01*
X-470252Y-111523D01*
X-465523Y-116252D01*
X-461631Y-117864D01*
Y-123276D01*
X-462279Y-123544D01*
X-467007Y-128273D01*
X-469567Y-134451D01*
Y-136424D01*
X-474028Y-140372D01*
X-490735D01*
X-491255Y-140118D01*
X-491853Y-140080D01*
X-492186Y-140019D01*
X-492614Y-139891D01*
X-493137Y-139677D01*
X-493752Y-139360D01*
X-494452Y-138929D01*
X-495170Y-138418D01*
X-497020Y-136846D01*
X-498003Y-135884D01*
X-498975Y-135493D01*
X-500701Y-133767D01*
X-506880Y-131208D01*
X-513568D01*
X-519746Y-133767D01*
X-524475Y-138496D01*
X-527035Y-144675D01*
Y-147993D01*
X-532035Y-150064D01*
X-543136Y-138963D01*
Y-46202D01*
X-538135Y-42995D01*
X-534815Y-44370D01*
X-528128D01*
X-521949Y-41811D01*
X-520427Y-40289D01*
X-517160Y-37139D01*
X-513894Y-40289D01*
X-512372Y-41811D01*
X-506193Y-44370D01*
X-499506D01*
X-493327Y-41811D01*
X-488598Y-37082D01*
X-486038Y-30903D01*
Y-24215D01*
X-488598Y-18037D01*
X-490283Y-16351D01*
X-490632Y-15425D01*
X-492570Y-13356D01*
X-493206Y-12565D01*
X-493760Y-11787D01*
X-494190Y-11088D01*
X-494507Y-10472D01*
X-494721Y-9949D01*
X-494849Y-9522D01*
X-494911Y-9188D01*
X-494948Y-8590D01*
X-495203Y-8070D01*
Y1043D01*
X-445811Y50435D01*
X-440811Y48364D01*
D02*
G37*
G36*
X-571568Y-37113D02*
X-573414Y-39286D01*
X-574164Y-40339D01*
X-574798Y-41369D01*
X-575317Y-42378D01*
X-575721Y-43364D01*
X-576010Y-44328D01*
X-576183Y-45270D01*
X-576240Y-46189D01*
X-581240D01*
X-581298Y-45270D01*
X-581471Y-44328D01*
X-581759Y-43364D01*
X-582163Y-42378D01*
X-582682Y-41369D01*
X-583317Y-40339D01*
X-584066Y-39286D01*
X-584932Y-38211D01*
X-587008Y-35994D01*
X-570472D01*
X-571568Y-37113D01*
D02*
G37*
G36*
X39413Y-49320D02*
X39360Y-48904D01*
X39212Y-48532D01*
X38968Y-48203D01*
X38630Y-47918D01*
X38196Y-47677D01*
X37667Y-47480D01*
X37044Y-47327D01*
X36325Y-47217D01*
X35511Y-47151D01*
X34602Y-47129D01*
Y-42129D01*
X35493Y-42111D01*
X36995Y-41963D01*
X37605Y-41833D01*
X38120Y-41666D01*
X38543Y-41463D01*
X38871Y-41222D01*
X39106Y-40944D01*
X39246Y-40629D01*
X39293Y-40278D01*
X39413Y-49320D01*
D02*
G37*
G36*
X371692Y-48147D02*
X371573Y-48734D01*
X371539Y-49322D01*
X371589Y-49911D01*
X371723Y-50501D01*
X371942Y-51093D01*
X372244Y-51686D01*
X372631Y-52280D01*
X373102Y-52875D01*
X373658Y-53472D01*
X370122Y-57008D01*
X369471Y-56395D01*
X368822Y-55862D01*
X368177Y-55410D01*
X367535Y-55038D01*
X366896Y-54745D01*
X366260Y-54533D01*
X365627Y-54402D01*
X364997Y-54350D01*
X364370Y-54379D01*
X363747Y-54487D01*
X371894Y-47562D01*
X371692Y-48147D01*
D02*
G37*
G36*
X360882Y-54810D02*
X359315Y-54827D01*
X356474Y-55058D01*
X355199Y-55273D01*
X354022Y-55553D01*
X352942Y-55899D01*
X351959Y-56311D01*
X351074Y-56788D01*
X350285Y-57332D01*
X349594Y-57941D01*
X346059Y-54406D01*
X346668Y-53715D01*
X347212Y-52926D01*
X347689Y-52041D01*
X348101Y-51058D01*
X348447Y-49978D01*
X348727Y-48801D01*
X348942Y-47526D01*
X349090Y-46154D01*
X349190Y-43118D01*
X360882Y-54810D01*
D02*
G37*
G36*
X-654245Y-52861D02*
X-656091Y-55034D01*
X-656841Y-56087D01*
X-657475Y-57117D01*
X-657995Y-58126D01*
X-658398Y-59112D01*
X-658687Y-60076D01*
X-658860Y-61018D01*
X-658917Y-61937D01*
X-663917D01*
X-663975Y-61018D01*
X-664148Y-60076D01*
X-664436Y-59112D01*
X-664840Y-58126D01*
X-665359Y-57117D01*
X-665994Y-56087D01*
X-666744Y-55034D01*
X-667609Y-53959D01*
X-669685Y-51742D01*
X-653150D01*
X-654245Y-52861D01*
D02*
G37*
G36*
X-603064Y-56798D02*
X-604910Y-58971D01*
X-605660Y-60024D01*
X-606294Y-61054D01*
X-606813Y-62063D01*
X-607217Y-63049D01*
X-607505Y-64013D01*
X-607678Y-64955D01*
X-607736Y-65874D01*
X-612736D01*
X-612794Y-64955D01*
X-612967Y-64013D01*
X-613255Y-63049D01*
X-613659Y-62063D01*
X-614178Y-61054D01*
X-614813Y-60024D01*
X-615562Y-58971D01*
X-616428Y-57896D01*
X-618504Y-55679D01*
X-601968D01*
X-603064Y-56798D01*
D02*
G37*
G36*
X16328Y-74866D02*
X15733Y-75540D01*
X15192Y-76317D01*
X14706Y-77197D01*
X14274Y-78179D01*
X13897Y-79264D01*
X13574Y-80453D01*
X13306Y-81743D01*
X13093Y-83137D01*
X12830Y-86232D01*
X1817Y-73898D01*
X3348Y-73965D01*
X6134Y-73869D01*
X7389Y-73707D01*
X8553Y-73468D01*
X9626Y-73152D01*
X10606Y-72760D01*
X11495Y-72292D01*
X12292Y-71747D01*
X12997Y-71126D01*
X16328Y-74866D01*
D02*
G37*
G36*
X78473Y-64570D02*
X78623Y-64995D01*
X78873Y-65370D01*
X79223Y-65695D01*
X79673Y-65969D01*
X80223Y-66195D01*
X80873Y-66370D01*
X81623Y-66495D01*
X82473Y-66570D01*
X83423Y-66594D01*
Y-71594D01*
X82473Y-71620D01*
X81623Y-71695D01*
X80873Y-71820D01*
X80223Y-71995D01*
X79673Y-72219D01*
X79223Y-72495D01*
X78873Y-72820D01*
X78623Y-73195D01*
X78473Y-73620D01*
X78423Y-74094D01*
Y-64094D01*
X78473Y-64570D01*
D02*
G37*
G36*
X39293Y-74880D02*
X39243Y-74903D01*
X39093Y-74923D01*
X38843Y-74941D01*
X35243Y-74999D01*
X34293Y-75000D01*
Y-70000D01*
X35259Y-69975D01*
X36123Y-69900D01*
X36887Y-69775D01*
X37551Y-69600D01*
X38113Y-69375D01*
X38575Y-69100D01*
X38935Y-68775D01*
X39196Y-68400D01*
X39355Y-67975D01*
X39413Y-67500D01*
X39293Y-74880D01*
D02*
G37*
G36*
X39413Y-97398D02*
X39362Y-96923D01*
X39209Y-96498D01*
X38953Y-96123D01*
X38594Y-95798D01*
X38133Y-95523D01*
X37570Y-95298D01*
X36904Y-95123D01*
X36136Y-94998D01*
X35266Y-94923D01*
X34293Y-94898D01*
Y-89898D01*
X35266Y-89873D01*
X36136Y-89798D01*
X36904Y-89673D01*
X37570Y-89498D01*
X38133Y-89273D01*
X38594Y-88998D01*
X38953Y-88673D01*
X39209Y-88298D01*
X39362Y-87873D01*
X39413Y-87398D01*
Y-97398D01*
D02*
G37*
G36*
X6913Y-95926D02*
X5737Y-96648D01*
X4684Y-97392D01*
X3756Y-98158D01*
X2951Y-98946D01*
X2270Y-99757D01*
X1713Y-100589D01*
X1279Y-101444D01*
X970Y-102320D01*
X784Y-103219D01*
X722Y-104140D01*
X-4278Y-103320D01*
X-4324Y-102484D01*
X-4463Y-101583D01*
X-4695Y-100617D01*
X-5020Y-99587D01*
X-5438Y-98492D01*
X-6551Y-96108D01*
X-7247Y-94820D01*
X-8917Y-92049D01*
X6913Y-95926D01*
D02*
G37*
G36*
X-87123Y-106349D02*
X-86457Y-106958D01*
X-85724Y-107496D01*
X-84924Y-107962D01*
X-84056Y-108356D01*
X-83121Y-108678D01*
X-82118Y-108929D01*
X-81047Y-109109D01*
X-79910Y-109216D01*
X-78705Y-109252D01*
X-78719Y-109368D01*
X-78423Y-109372D01*
Y-120943D01*
X-78523Y-120622D01*
X-78823Y-120334D01*
X-79323Y-120081D01*
X-80023Y-119861D01*
X-80923Y-119675D01*
X-82023Y-119523D01*
X-82873Y-119461D01*
X-83343Y-119509D01*
X-84382Y-119709D01*
X-85368Y-119966D01*
X-86302Y-120280D01*
X-87183Y-120651D01*
X-88011Y-121079D01*
X-88786Y-121564D01*
X-89508Y-122107D01*
X-88423Y-112127D01*
Y-109252D01*
X-88111Y-109256D01*
X-87721Y-105668D01*
X-87123Y-106349D01*
D02*
G37*
G36*
X31011Y-98509D02*
X30390Y-99214D01*
X29845Y-100011D01*
X29377Y-100900D01*
X28985Y-101881D01*
X28670Y-102953D01*
X28432Y-104116D01*
X28270Y-105372D01*
X28185Y-106718D01*
X28177Y-108157D01*
X28245Y-109687D01*
X15899Y-98687D01*
X17499Y-98581D01*
X20390Y-98206D01*
X21681Y-97937D01*
X22869Y-97614D01*
X23954Y-97236D01*
X24937Y-96804D01*
X25817Y-96318D01*
X26593Y-95777D01*
X27267Y-95182D01*
X31011Y-98509D01*
D02*
G37*
G36*
X212615Y-104047D02*
X212846Y-106888D01*
X213060Y-108163D01*
X213340Y-109340D01*
X213686Y-110420D01*
X214098Y-111403D01*
X214576Y-112289D01*
X215119Y-113077D01*
X215729Y-113768D01*
X212193Y-117303D01*
X211502Y-116694D01*
X210714Y-116150D01*
X209828Y-115673D01*
X208845Y-115261D01*
X207765Y-114915D01*
X206588Y-114635D01*
X205313Y-114421D01*
X203941Y-114272D01*
X200905Y-114173D01*
X212598Y-102480D01*
X212615Y-104047D01*
D02*
G37*
G36*
X181119D02*
X181350Y-106888D01*
X181564Y-108163D01*
X181844Y-109340D01*
X182190Y-110420D01*
X182602Y-111403D01*
X183079Y-112289D01*
X183623Y-113077D01*
X184232Y-113768D01*
X180697Y-117303D01*
X180006Y-116694D01*
X179218Y-116150D01*
X178332Y-115673D01*
X177349Y-115261D01*
X176269Y-114915D01*
X175092Y-114635D01*
X173817Y-114421D01*
X172445Y-114272D01*
X169409Y-114173D01*
X181102Y-102480D01*
X181119Y-104047D01*
D02*
G37*
G36*
X15664Y-122268D02*
X14134Y-122200D01*
X11348Y-122293D01*
X10093Y-122455D01*
X8930Y-122693D01*
X7858Y-123008D01*
X6877Y-123400D01*
X5988Y-123868D01*
X5191Y-124413D01*
X4486Y-125034D01*
X1159Y-121290D01*
X1754Y-120617D01*
X2295Y-119840D01*
X2781Y-118960D01*
X3213Y-117978D01*
X3591Y-116892D01*
X3914Y-115704D01*
X4183Y-114413D01*
X4398Y-113019D01*
X4664Y-109923D01*
X15664Y-122268D01*
D02*
G37*
G36*
X-405683Y-129691D02*
X-406264Y-130349D01*
X-406802Y-131113D01*
X-407295Y-131986D01*
X-407743Y-132966D01*
X-408147Y-134053D01*
X-408507Y-135248D01*
X-408822Y-136550D01*
X-409320Y-139477D01*
X-409502Y-141102D01*
X-419904Y-128247D01*
X-418406Y-128383D01*
X-416996Y-128433D01*
X-415672Y-128399D01*
X-414436Y-128279D01*
X-413286Y-128074D01*
X-412222Y-127784D01*
X-411246Y-127409D01*
X-410356Y-126949D01*
X-409553Y-126404D01*
X-408837Y-125774D01*
X-405683Y-129691D01*
D02*
G37*
G36*
X-437815Y-126390D02*
X-438424Y-127081D01*
X-438968Y-127869D01*
X-439445Y-128754D01*
X-439857Y-129737D01*
X-440203Y-130817D01*
X-440483Y-131995D01*
X-440698Y-133269D01*
X-440846Y-134641D01*
X-440945Y-137677D01*
X-452638Y-125985D01*
X-451071Y-125968D01*
X-448230Y-125737D01*
X-446955Y-125523D01*
X-445778Y-125243D01*
X-444698Y-124897D01*
X-443715Y-124485D01*
X-442829Y-124007D01*
X-442041Y-123463D01*
X-441350Y-122854D01*
X-437815Y-126390D01*
D02*
G37*
G36*
X-90519Y-150474D02*
X-90562Y-150262D01*
X-90657Y-150072D01*
X-90804Y-149905D01*
X-91004Y-149759D01*
X-91256Y-149636D01*
X-91560Y-149536D01*
X-91917Y-149458D01*
X-92326Y-149402D01*
X-92787Y-149368D01*
X-93301Y-149357D01*
Y-144357D01*
X-92548Y-144348D01*
X-90701Y-144220D01*
X-90222Y-144142D01*
X-89811Y-144048D01*
X-89468Y-143936D01*
X-89194Y-143808D01*
X-88987Y-143662D01*
X-88850Y-143499D01*
X-90519Y-150474D01*
D02*
G37*
G36*
X156138Y-91741D02*
X155040Y-92840D01*
X152480Y-99018D01*
Y-105706D01*
X155040Y-111885D01*
X159769Y-116614D01*
X165947Y-119173D01*
X168331D01*
X169232Y-119582D01*
X172065Y-119674D01*
X173077Y-119784D01*
X174015Y-119942D01*
X174816Y-120132D01*
X175474Y-120343D01*
X175997Y-120562D01*
X176388Y-120773D01*
X176668Y-120966D01*
X177117Y-121362D01*
X177665Y-121550D01*
X254007Y-197892D01*
Y-246783D01*
X249007Y-248854D01*
X245743Y-245591D01*
X239564Y-243031D01*
X232877D01*
X226698Y-245591D01*
X221969Y-250320D01*
X219410Y-256499D01*
Y-257949D01*
X216432Y-261362D01*
X215606Y-262197D01*
X215443Y-262596D01*
X203382Y-274657D01*
X135854D01*
X135462Y-274490D01*
X133787Y-274473D01*
X132906Y-272759D01*
X132270Y-269457D01*
X136299Y-265428D01*
X138858Y-259249D01*
Y-252562D01*
X136299Y-246383D01*
X131570Y-241654D01*
X125391Y-239095D01*
X118703D01*
X112525Y-241654D01*
X111499Y-242679D01*
X106979Y-242987D01*
X105805Y-242994D01*
X105409Y-243161D01*
X-83130D01*
X-86471Y-238161D01*
X-84762Y-234035D01*
X-127836D01*
X-126127Y-238161D01*
X-129468Y-243161D01*
X-181364D01*
X-183856Y-240669D01*
X-187990Y-237906D01*
X-192868Y-236936D01*
X-195982D01*
X-199139Y-233780D01*
X-205317Y-231220D01*
X-212005D01*
X-218184Y-233780D01*
X-222913Y-238509D01*
X-225472Y-244688D01*
Y-251375D01*
X-222913Y-257554D01*
X-218184Y-262283D01*
X-212005Y-264842D01*
X-205317D01*
X-199484Y-262426D01*
X-198147D01*
X-195655Y-264918D01*
X-191521Y-267680D01*
X-186643Y-268650D01*
X105382D01*
X105772Y-268817D01*
X106449Y-268825D01*
X108605Y-270536D01*
X108682Y-270662D01*
X109369Y-276305D01*
X106353Y-279322D01*
X103794Y-285500D01*
Y-286747D01*
X102325Y-287729D01*
Y-309982D01*
X97325D01*
Y-314982D01*
X75788D01*
X78834Y-322337D01*
X84866Y-328368D01*
X84174Y-329060D01*
X81614Y-335239D01*
Y-341927D01*
X84174Y-348105D01*
X88903Y-352834D01*
X95081Y-355394D01*
X101769D01*
X107948Y-352834D01*
X109633Y-351149D01*
X110559Y-350800D01*
X112629Y-348863D01*
X113420Y-348226D01*
X114197Y-347672D01*
X114896Y-347242D01*
X115512Y-346925D01*
X116035Y-346711D01*
X116463Y-346583D01*
X116796Y-346522D01*
X117394Y-346484D01*
X117914Y-346230D01*
X118880D01*
X134356Y-361705D01*
X134543Y-362253D01*
X134939Y-362702D01*
X135132Y-362982D01*
X135344Y-363374D01*
X135562Y-363896D01*
X135773Y-364554D01*
X135964Y-365355D01*
X136109Y-366222D01*
X136306Y-368643D01*
X136321Y-370019D01*
X136732Y-370982D01*
Y-373423D01*
X139292Y-379601D01*
X144021Y-384330D01*
X150199Y-386890D01*
X156887D01*
X163066Y-384330D01*
X167795Y-379601D01*
X170354Y-373423D01*
Y-366735D01*
X167795Y-360556D01*
X163066Y-355827D01*
X156887Y-353268D01*
X154504D01*
X153602Y-352859D01*
X150770Y-352767D01*
X149757Y-352657D01*
X148819Y-352499D01*
X148019Y-352309D01*
X147361Y-352098D01*
X146838Y-351879D01*
X146446Y-351668D01*
X146167Y-351475D01*
X145718Y-351079D01*
X145170Y-350891D01*
X127454Y-333175D01*
X124974Y-331518D01*
X122047Y-330936D01*
X117914D01*
X117394Y-330681D01*
X116796Y-330644D01*
X116794Y-330643D01*
X114028Y-326380D01*
X114629Y-323523D01*
X115815Y-322337D01*
X119136Y-314320D01*
Y-305655D01*
X123949D01*
X130127Y-303096D01*
X132571Y-300652D01*
X132588Y-300646D01*
X132744Y-300608D01*
X133006Y-300563D01*
X136694Y-300323D01*
X137876Y-300313D01*
X138270Y-300147D01*
X138281D01*
X138694Y-300244D01*
X138852Y-300147D01*
X208661D01*
X213539Y-299176D01*
X217673Y-296414D01*
X233449Y-280638D01*
X233842Y-280481D01*
X235609Y-278756D01*
X236957Y-277524D01*
X237908Y-276743D01*
X238034Y-276654D01*
X239564D01*
X245743Y-274094D01*
X249007Y-270831D01*
X254007Y-272902D01*
Y-315299D01*
X249006Y-318640D01*
X245157Y-317046D01*
Y-338583D01*
Y-360120D01*
X249006Y-358525D01*
X254007Y-361866D01*
Y-492690D01*
X177730Y-568967D01*
X168464D01*
Y-516811D01*
X151575D01*
Y-506811D01*
X168464D01*
Y-452599D01*
X172710Y-450777D01*
X197500D01*
X198464Y-450585D01*
X199139Y-451260D01*
X205317Y-453819D01*
X212005D01*
X218184Y-451260D01*
X222913Y-446531D01*
X225472Y-440352D01*
Y-433664D01*
X222913Y-427485D01*
X218184Y-422756D01*
X212005Y-420197D01*
X205317D01*
X199139Y-422756D01*
X194410Y-427485D01*
X191850Y-433664D01*
Y-435483D01*
X71401D01*
X-78525Y-285557D01*
X-81006Y-283900D01*
X-83932Y-283318D01*
X-374361D01*
X-377139Y-279160D01*
X-376101Y-276654D01*
X-419175D01*
X-418137Y-279160D01*
X-420914Y-283318D01*
X-461134D01*
X-463205Y-278318D01*
X-462126Y-277239D01*
X-459567Y-271060D01*
Y-264373D01*
X-462126Y-258194D01*
X-466855Y-253465D01*
X-473034Y-250905D01*
X-479722D01*
X-485901Y-253465D01*
X-488514Y-256079D01*
X-504783Y-239810D01*
X-503515Y-234006D01*
X-500195Y-232631D01*
X-495466Y-227902D01*
X-492907Y-221723D01*
Y-215035D01*
X-495466Y-208857D01*
X-500195Y-204128D01*
X-506374Y-201568D01*
X-513062D01*
X-519240Y-204128D01*
X-523970Y-208857D01*
X-525345Y-212177D01*
X-531148Y-213444D01*
X-541679Y-202913D01*
X-539608Y-197913D01*
X-536026D01*
X-529847Y-195354D01*
X-525119Y-190625D01*
X-523670Y-187129D01*
X-517940Y-185788D01*
X-509344Y-194383D01*
X-509344Y-194384D01*
X-506863Y-196041D01*
X-503937Y-196623D01*
X-373437D01*
X-371523Y-201243D01*
X-380537Y-210256D01*
X-381129Y-211143D01*
X-392360Y-222374D01*
X-392759Y-222536D01*
X-393664Y-223432D01*
X-395884Y-225518D01*
X-396827Y-226308D01*
X-396910Y-226369D01*
X-398076D01*
X-404254Y-228928D01*
X-408983Y-233657D01*
X-411543Y-239836D01*
Y-246523D01*
X-410882Y-248119D01*
X-409993Y-253163D01*
X-416128Y-259299D01*
X-419175Y-266654D01*
X-376101D01*
X-379147Y-259299D01*
X-383112Y-255334D01*
X-380480Y-252702D01*
X-377921Y-246523D01*
Y-244624D01*
X-377917Y-244618D01*
X-377886Y-244573D01*
X-374994Y-241303D01*
X-374156Y-240454D01*
X-374128Y-240386D01*
X-374061Y-240355D01*
X-373920Y-239982D01*
X-362513Y-228574D01*
X-361920Y-227688D01*
X-351702Y-217469D01*
X-129616D01*
X-126838Y-221627D01*
X-127836Y-224035D01*
X-84762D01*
X-85760Y-221627D01*
X-82982Y-217469D01*
X120705D01*
X140621Y-237386D01*
X140779Y-237779D01*
X142504Y-239546D01*
X143736Y-240894D01*
X144517Y-241845D01*
X144606Y-241971D01*
Y-243501D01*
X147166Y-249680D01*
X151895Y-254409D01*
X158073Y-256969D01*
X164761D01*
X170940Y-254409D01*
X175669Y-249680D01*
X178228Y-243501D01*
Y-236814D01*
X175669Y-230635D01*
X170940Y-225906D01*
X164761Y-223346D01*
X163311D01*
X159898Y-220369D01*
X159063Y-219543D01*
X158664Y-219380D01*
X134996Y-195712D01*
X130862Y-192950D01*
X125984Y-191980D01*
X57657D01*
X55744Y-187360D01*
X65651Y-177453D01*
X67522Y-178228D01*
X74210D01*
X80389Y-175669D01*
X85118Y-170940D01*
X87677Y-164761D01*
Y-158073D01*
X87116Y-156719D01*
X90943Y-152892D01*
X95081Y-154606D01*
X101769D01*
X107948Y-152047D01*
X112677Y-147318D01*
X115236Y-141139D01*
Y-134451D01*
X112677Y-128273D01*
X107948Y-123544D01*
X101769Y-120984D01*
X95081D01*
X88903Y-123544D01*
X88543Y-123903D01*
X83543Y-121832D01*
X83543Y-104252D01*
X83543Y-95754D01*
X85978Y-94128D01*
X93364Y-86741D01*
X154067D01*
X156138Y-91741D01*
D02*
G37*
G36*
X-500669Y-140847D02*
X-498497Y-142693D01*
X-497444Y-143443D01*
X-496413Y-144077D01*
X-495405Y-144596D01*
X-494419Y-145000D01*
X-493455Y-145288D01*
X-492513Y-145461D01*
X-491594Y-145519D01*
Y-150519D01*
X-492513Y-150577D01*
X-493455Y-150750D01*
X-494419Y-151038D01*
X-495405Y-151442D01*
X-496413Y-151961D01*
X-497444Y-152595D01*
X-498497Y-153345D01*
X-499572Y-154210D01*
X-501789Y-156287D01*
Y-139751D01*
X-500669Y-140847D01*
D02*
G37*
G36*
X-476306Y-168695D02*
X-476048Y-169772D01*
X-475728Y-170815D01*
X-475347Y-171824D01*
X-474903Y-172798D01*
X-474397Y-173737D01*
X-473830Y-174642D01*
X-473201Y-175512D01*
X-472509Y-176348D01*
X-471756Y-177149D01*
X-475292Y-180685D01*
X-475927Y-180117D01*
X-476589Y-179657D01*
X-477278Y-179303D01*
X-477995Y-179057D01*
X-478738Y-178919D01*
X-479509Y-178887D01*
X-480307Y-178963D01*
X-481132Y-179146D01*
X-481984Y-179436D01*
X-482863Y-179833D01*
X-476502Y-167583D01*
X-476306Y-168695D01*
D02*
G37*
G36*
X-602346Y-202472D02*
X-602115Y-205313D01*
X-601901Y-206588D01*
X-601620Y-207765D01*
X-601274Y-208845D01*
X-600863Y-209828D01*
X-600385Y-210714D01*
X-599841Y-211502D01*
X-599232Y-212193D01*
X-602768Y-215729D01*
X-603458Y-215119D01*
X-604247Y-214576D01*
X-605132Y-214098D01*
X-606115Y-213686D01*
X-607195Y-213340D01*
X-608373Y-213060D01*
X-609647Y-212846D01*
X-611019Y-212697D01*
X-614055Y-212598D01*
X-602363Y-200905D01*
X-602346Y-202472D01*
D02*
G37*
G36*
X156212Y-224335D02*
X160304Y-227906D01*
X160714Y-228152D01*
X161045Y-228299D01*
X161299Y-228347D01*
X149607Y-240039D01*
X149559Y-239786D01*
X149412Y-239454D01*
X149165Y-239044D01*
X148819Y-238557D01*
X147828Y-237349D01*
X146439Y-235829D01*
X144651Y-233998D01*
X155258Y-223392D01*
X156212Y-224335D01*
D02*
G37*
G36*
X-378007Y-236652D02*
X-378950Y-237606D01*
X-382160Y-241236D01*
X-382502Y-241734D01*
X-382744Y-242156D01*
X-382886Y-242502D01*
X-382928Y-242771D01*
X-394904Y-231370D01*
X-394668Y-231317D01*
X-394352Y-231166D01*
X-393957Y-230915D01*
X-393481Y-230565D01*
X-392291Y-229567D01*
X-389906Y-227328D01*
X-388952Y-226383D01*
X-378007Y-236652D01*
D02*
G37*
G36*
X113612Y-264173D02*
X113399Y-264027D01*
X113061Y-263897D01*
X112597Y-263782D01*
X112007Y-263682D01*
X110452Y-263528D01*
X108395Y-263436D01*
X105837Y-263406D01*
Y-248405D01*
X107178Y-248398D01*
X112597Y-248029D01*
X113061Y-247914D01*
X113399Y-247784D01*
X113612Y-247638D01*
Y-264173D01*
D02*
G37*
G36*
X-488183Y-268100D02*
X-488213Y-267933D01*
X-488292Y-267783D01*
X-488420Y-267650D01*
X-488598Y-267536D01*
X-488824Y-267438D01*
X-489099Y-267359D01*
X-489423Y-267297D01*
X-489796Y-267253D01*
X-490218Y-267227D01*
X-490689Y-267218D01*
Y-262218D01*
X-489957Y-262212D01*
X-487719Y-262060D01*
X-487332Y-261990D01*
X-487014Y-261908D01*
X-486764Y-261812D01*
X-486584Y-261705D01*
X-486473Y-261584D01*
X-488183Y-268100D01*
D02*
G37*
G36*
X236102Y-271653D02*
X235849Y-271700D01*
X235517Y-271848D01*
X235107Y-272094D01*
X234620Y-272441D01*
X233411Y-273432D01*
X231892Y-274821D01*
X230061Y-276608D01*
X219454Y-266002D01*
X220398Y-265048D01*
X223969Y-260956D01*
X224215Y-260546D01*
X224363Y-260214D01*
X224410Y-259961D01*
X236102Y-271653D01*
D02*
G37*
G36*
X128107Y-279664D02*
X128382Y-279714D01*
X128791Y-279758D01*
X130822Y-279855D01*
X135407Y-279902D01*
X137831Y-294902D01*
X136494Y-294913D01*
X132375Y-295181D01*
X131652Y-295304D01*
X131051Y-295450D01*
X130573Y-295617D01*
X130218Y-295807D01*
X129986Y-296020D01*
X127966Y-279608D01*
X128107Y-279664D01*
D02*
G37*
G36*
X107980Y-331411D02*
X110152Y-333257D01*
X111205Y-334006D01*
X112236Y-334641D01*
X113244Y-335160D01*
X114230Y-335564D01*
X115194Y-335852D01*
X116136Y-336025D01*
X117055Y-336083D01*
Y-341083D01*
X116136Y-341140D01*
X115194Y-341313D01*
X114230Y-341602D01*
X113244Y-342005D01*
X112236Y-342525D01*
X111205Y-343159D01*
X110152Y-343909D01*
X109077Y-344774D01*
X106860Y-346850D01*
Y-330315D01*
X107980Y-331411D01*
D02*
G37*
G36*
X-114734Y-348898D02*
X-115853Y-347802D01*
X-118026Y-345956D01*
X-119079Y-345206D01*
X-120109Y-344572D01*
X-121118Y-344053D01*
X-122104Y-343649D01*
X-123068Y-343361D01*
X-124010Y-343188D01*
X-124929Y-343130D01*
Y-338130D01*
X-124010Y-338072D01*
X-123068Y-337899D01*
X-122104Y-337611D01*
X-121118Y-337207D01*
X-120109Y-336688D01*
X-119079Y-336053D01*
X-118026Y-335304D01*
X-116951Y-334439D01*
X-114734Y-332362D01*
Y-348898D01*
D02*
G37*
G36*
X-488326Y-340635D02*
X-487795Y-343571D01*
X-487466Y-344876D01*
X-487097Y-346072D01*
X-486685Y-347159D01*
X-486233Y-348138D01*
X-485738Y-349008D01*
X-485202Y-349770D01*
X-484625Y-350422D01*
X-487731Y-354387D01*
X-488450Y-353754D01*
X-489255Y-353209D01*
X-490144Y-352751D01*
X-491120Y-352380D01*
X-492180Y-352097D01*
X-493326Y-351901D01*
X-494558Y-351793D01*
X-495875Y-351771D01*
X-497277Y-351837D01*
X-498765Y-351990D01*
X-488529Y-339004D01*
X-488326Y-340635D01*
D02*
G37*
G36*
X142829Y-355747D02*
X143617Y-356291D01*
X144502Y-356768D01*
X145485Y-357180D01*
X146565Y-357526D01*
X147743Y-357806D01*
X149017Y-358020D01*
X150389Y-358169D01*
X153425Y-358268D01*
X141733Y-369961D01*
X141716Y-368394D01*
X141485Y-365553D01*
X141271Y-364278D01*
X140991Y-363101D01*
X140645Y-362021D01*
X140233Y-361038D01*
X139755Y-360152D01*
X139212Y-359364D01*
X138602Y-358673D01*
X142138Y-355137D01*
X142829Y-355747D01*
D02*
G37*
G36*
X-390466Y-361602D02*
X-392312Y-363774D01*
X-393061Y-364827D01*
X-393696Y-365858D01*
X-394215Y-366866D01*
X-394619Y-367852D01*
X-394907Y-368816D01*
X-395080Y-369758D01*
X-395138Y-370677D01*
X-400138D01*
X-400195Y-369758D01*
X-400368Y-368816D01*
X-400657Y-367852D01*
X-401061Y-366866D01*
X-401580Y-365858D01*
X-402214Y-364827D01*
X-402964Y-363774D01*
X-403829Y-362699D01*
X-405906Y-360482D01*
X-389370D01*
X-390466Y-361602D01*
D02*
G37*
G36*
X397283Y-358362D02*
X398005Y-358881D01*
X398847Y-359385D01*
X399808Y-359874D01*
X400890Y-360348D01*
X403414Y-361251D01*
X404856Y-361679D01*
X408099Y-362492D01*
X394042Y-371198D01*
X394342Y-369800D01*
X394536Y-368474D01*
X394625Y-367222D01*
X394608Y-366044D01*
X394486Y-364938D01*
X394259Y-363906D01*
X393925Y-362947D01*
X393487Y-362062D01*
X392943Y-361250D01*
X392294Y-360511D01*
X396682Y-357828D01*
X397283Y-358362D01*
D02*
G37*
G36*
X-314945Y-391449D02*
X-314713Y-394290D01*
X-314499Y-395564D01*
X-314219Y-396742D01*
X-313873Y-397822D01*
X-313461Y-398805D01*
X-312983Y-399690D01*
X-312440Y-400478D01*
X-311830Y-401169D01*
X-315366Y-404705D01*
X-316057Y-404096D01*
X-316845Y-403552D01*
X-317731Y-403074D01*
X-318714Y-402663D01*
X-319794Y-402317D01*
X-320971Y-402036D01*
X-322246Y-401822D01*
X-323618Y-401674D01*
X-326654Y-401574D01*
X-314961Y-389882D01*
X-314945Y-391449D01*
D02*
G37*
G36*
X-86952Y-410669D02*
X-87811Y-411438D01*
X-88579Y-412244D01*
X-89257Y-413089D01*
X-89845Y-413973D01*
X-90342Y-414895D01*
X-90749Y-415855D01*
X-91066Y-416854D01*
X-91292Y-417891D01*
X-91427Y-418967D01*
X-91472Y-420081D01*
X-99472Y-419369D01*
X-99512Y-418280D01*
X-99631Y-417209D01*
X-99829Y-416156D01*
X-100106Y-415121D01*
X-100462Y-414104D01*
X-100897Y-413105D01*
X-101412Y-412124D01*
X-102005Y-411162D01*
X-102678Y-410217D01*
X-103430Y-409291D01*
X-86952Y-410669D01*
D02*
G37*
G36*
X-28312Y-440627D02*
X-29184Y-440475D01*
X-30057Y-440433D01*
X-30931Y-440499D01*
X-31807Y-440674D01*
X-32684Y-440959D01*
X-33562Y-441352D01*
X-34441Y-441854D01*
X-35322Y-442466D01*
X-36204Y-443186D01*
X-37087Y-444016D01*
X-42369Y-435155D01*
X-41537Y-434291D01*
X-40079Y-432570D01*
X-39453Y-431714D01*
X-38895Y-430862D01*
X-38406Y-430012D01*
X-37986Y-429165D01*
X-37634Y-428321D01*
X-37351Y-427481D01*
X-37136Y-426643D01*
X-28312Y-440627D01*
D02*
G37*
G36*
X-116505Y-443528D02*
X-117055Y-444262D01*
X-117541Y-445054D01*
X-117961Y-445904D01*
X-118317Y-446813D01*
X-118608Y-447780D01*
X-118835Y-448805D01*
X-118997Y-449889D01*
X-119094Y-451030D01*
X-119126Y-452231D01*
X-129126Y-452334D01*
X-129159Y-451133D01*
X-129258Y-449992D01*
X-129423Y-448910D01*
X-129654Y-447888D01*
X-129951Y-446926D01*
X-130314Y-446023D01*
X-130743Y-445180D01*
X-131237Y-444396D01*
X-131798Y-443672D01*
X-132425Y-443007D01*
X-115890Y-442853D01*
X-116505Y-443528D01*
D02*
G37*
G36*
X-91454Y-456238D02*
X-91187Y-459838D01*
X-91026Y-460718D01*
X-90830Y-461438D01*
X-90598Y-461998D01*
X-90330Y-462398D01*
X-90026Y-462638D01*
X-89687Y-462718D01*
X-103226D01*
X-102513Y-462638D01*
X-101875Y-462398D01*
X-101312Y-461998D01*
X-100824Y-461438D01*
X-100411Y-460718D01*
X-100073Y-459838D01*
X-99810Y-458798D01*
X-99623Y-457598D01*
X-99510Y-456238D01*
X-99472Y-454718D01*
X-91472D01*
X-91454Y-456238D01*
D02*
G37*
G36*
X-119107Y-454618D02*
X-118825Y-459118D01*
X-118656Y-460218D01*
X-118449Y-461118D01*
X-118205Y-461818D01*
X-117923Y-462318D01*
X-117603Y-462618D01*
X-117246Y-462718D01*
X-130785D01*
X-130470Y-462618D01*
X-130188Y-462318D01*
X-129939Y-461818D01*
X-129723Y-461118D01*
X-129541Y-460218D01*
X-129392Y-459118D01*
X-129192Y-456318D01*
X-129126Y-452718D01*
X-119126D01*
X-119107Y-454618D01*
D02*
G37*
G36*
X43864Y-458691D02*
X43939Y-459562D01*
X44064Y-460330D01*
X44239Y-460995D01*
X44464Y-461558D01*
X44739Y-462019D01*
X45064Y-462378D01*
X45439Y-462634D01*
X45864Y-462787D01*
X46339Y-462838D01*
X36339D01*
X36814Y-462787D01*
X37239Y-462634D01*
X37614Y-462378D01*
X37939Y-462019D01*
X38214Y-461558D01*
X38439Y-460995D01*
X38614Y-460330D01*
X38739Y-459562D01*
X38814Y-458691D01*
X38839Y-457718D01*
X43839D01*
X43864Y-458691D01*
D02*
G37*
G36*
X16305D02*
X16380Y-459562D01*
X16505Y-460330D01*
X16680Y-460995D01*
X16904Y-461558D01*
X17180Y-462019D01*
X17505Y-462378D01*
X17880Y-462634D01*
X18305Y-462787D01*
X18779Y-462838D01*
X8780D01*
X9255Y-462787D01*
X9680Y-462634D01*
X10055Y-462378D01*
X10380Y-462019D01*
X10655Y-461558D01*
X10880Y-460995D01*
X11055Y-460330D01*
X11180Y-459562D01*
X11255Y-458691D01*
X11280Y-457718D01*
X16279D01*
X16305Y-458691D01*
D02*
G37*
G36*
X-333549Y-450235D02*
X-332761Y-450779D01*
X-331875Y-451256D01*
X-330893Y-451668D01*
X-329813Y-452014D01*
X-328635Y-452294D01*
X-327361Y-452509D01*
X-325988Y-452657D01*
X-322953Y-452757D01*
X-334645Y-464449D01*
X-334662Y-462882D01*
X-334893Y-460041D01*
X-335107Y-458766D01*
X-335387Y-457589D01*
X-335733Y-456509D01*
X-336145Y-455526D01*
X-336623Y-454640D01*
X-337166Y-453852D01*
X-337776Y-453161D01*
X-334240Y-449626D01*
X-333549Y-450235D01*
D02*
G37*
G36*
X118282Y-460185D02*
X120135Y-461764D01*
X120952Y-462342D01*
X121695Y-462778D01*
X122366Y-463073D01*
X122963Y-463227D01*
X123488Y-463239D01*
X123939Y-463109D01*
X124317Y-462838D01*
X117366Y-469789D01*
X117637Y-469411D01*
X117766Y-468960D01*
X117754Y-468436D01*
X117601Y-467838D01*
X117306Y-467168D01*
X116870Y-466424D01*
X116292Y-465607D01*
X115573Y-464717D01*
X113711Y-462718D01*
X117246Y-459183D01*
X118282Y-460185D01*
D02*
G37*
G36*
X-249411Y-498038D02*
X-249238Y-498979D01*
X-248949Y-499943D01*
X-248546Y-500929D01*
X-248027Y-501938D01*
X-247392Y-502968D01*
X-246642Y-504021D01*
X-245777Y-505096D01*
X-243701Y-507313D01*
X-260236D01*
X-259140Y-506194D01*
X-257295Y-504021D01*
X-256545Y-502968D01*
X-255910Y-501938D01*
X-255391Y-500929D01*
X-254988Y-499943D01*
X-254699Y-498979D01*
X-254526Y-498038D01*
X-254469Y-497118D01*
X-249469D01*
X-249411Y-498038D01*
D02*
G37*
G36*
X-218230Y-529534D02*
X-218057Y-530475D01*
X-217768Y-531439D01*
X-217365Y-532425D01*
X-216845Y-533434D01*
X-216211Y-534465D01*
X-215461Y-535517D01*
X-214596Y-536592D01*
X-212520Y-538809D01*
X-229055D01*
X-227959Y-537690D01*
X-226114Y-535517D01*
X-225364Y-534465D01*
X-224729Y-533434D01*
X-224210Y-532425D01*
X-223806Y-531439D01*
X-223518Y-530475D01*
X-223345Y-529534D01*
X-223287Y-528614D01*
X-218287D01*
X-218230Y-529534D01*
D02*
G37*
G36*
X365335Y-567335D02*
X364726Y-568025D01*
X364182Y-568814D01*
X363704Y-569699D01*
X363292Y-570682D01*
X362946Y-571762D01*
X362666Y-572940D01*
X362452Y-574214D01*
X362303Y-575586D01*
X362204Y-578622D01*
X350512Y-566930D01*
X352078Y-566913D01*
X354920Y-566682D01*
X356194Y-566468D01*
X357372Y-566188D01*
X358452Y-565841D01*
X359435Y-565430D01*
X360320Y-564952D01*
X361108Y-564408D01*
X361799Y-563799D01*
X365335Y-567335D01*
D02*
G37*
G36*
X281208Y-587316D02*
X283380Y-589162D01*
X284433Y-589912D01*
X285464Y-590546D01*
X286472Y-591065D01*
X287458Y-591469D01*
X288422Y-591758D01*
X289364Y-591931D01*
X290284Y-591988D01*
Y-596988D01*
X289364Y-597046D01*
X288422Y-597219D01*
X287458Y-597507D01*
X286472Y-597911D01*
X285464Y-598430D01*
X284433Y-599065D01*
X283380Y-599814D01*
X282305Y-600679D01*
X280088Y-602756D01*
Y-586221D01*
X281208Y-587316D01*
D02*
G37*
G36*
X-168080Y-603996D02*
X-165915Y-601968D01*
Y-618504D01*
X-167035Y-617408D01*
X-168080Y-616520D01*
Y-620849D01*
X-169884Y-619308D01*
X-172047Y-617929D01*
X-174569Y-616712D01*
X-177450Y-615657D01*
X-180690Y-614764D01*
X-184288Y-614034D01*
X-188245Y-613466D01*
X-197237Y-612817D01*
X-202270Y-612736D01*
Y-607736D01*
X-197237Y-607655D01*
X-188245Y-607006D01*
X-184288Y-606438D01*
X-180690Y-605708D01*
X-177450Y-604815D01*
X-174569Y-603761D01*
X-172047Y-602544D01*
X-169884Y-601164D01*
X-168080Y-599623D01*
Y-603996D01*
D02*
G37*
%LPC*%
G36*
X64055Y430986D02*
Y414449D01*
X80592D01*
X77546Y421804D01*
X71410Y427939D01*
X64055Y430986D01*
D02*
G37*
G36*
X54055D02*
X46700Y427939D01*
X40565Y421804D01*
X37518Y414449D01*
X54055D01*
Y430986D01*
D02*
G37*
G36*
X5000D02*
Y414449D01*
X21537D01*
X18491Y421804D01*
X12355Y427939D01*
X5000Y430986D01*
D02*
G37*
G36*
X-5000D02*
X-12355Y427939D01*
X-18491Y421804D01*
X-21537Y414449D01*
X-5000D01*
Y430986D01*
D02*
G37*
G36*
X-54055D02*
Y414449D01*
X-37518D01*
X-40565Y421804D01*
X-46700Y427939D01*
X-54055Y430986D01*
D02*
G37*
G36*
X-64055D02*
X-71410Y427939D01*
X-77546Y421804D01*
X-80592Y414449D01*
X-64055D01*
Y430986D01*
D02*
G37*
G36*
X-183187Y250905D02*
X-199724D01*
Y234369D01*
X-192369Y237415D01*
X-186234Y243551D01*
X-183187Y250905D01*
D02*
G37*
G36*
X-209724D02*
X-226261D01*
X-223215Y243551D01*
X-217079Y237415D01*
X-209724Y234369D01*
Y250905D01*
D02*
G37*
G36*
X-262716Y238072D02*
Y221535D01*
X-246179D01*
X-249226Y228890D01*
X-255362Y235026D01*
X-262716Y238072D01*
D02*
G37*
G36*
X-272716D02*
X-280071Y235026D01*
X-286207Y228890D01*
X-289253Y221535D01*
X-272716D01*
Y238072D01*
D02*
G37*
G36*
X-246179Y211535D02*
X-262716D01*
Y194998D01*
X-255362Y198045D01*
X-249226Y204180D01*
X-246179Y211535D01*
D02*
G37*
G36*
X-272716D02*
X-289253D01*
X-286207Y204180D01*
X-280071Y198045D01*
X-272716Y194998D01*
Y211535D01*
D02*
G37*
G36*
X-597362Y45159D02*
Y28622D01*
X-580825D01*
X-583872Y35977D01*
X-590007Y42112D01*
X-597362Y45159D01*
D02*
G37*
G36*
X-580825Y18622D02*
X-597362D01*
Y2085D01*
X-590007Y5131D01*
X-583872Y11267D01*
X-580825Y18622D01*
D02*
G37*
G36*
X-398463Y-5000D02*
X-415000D01*
Y-21537D01*
X-407645Y-18491D01*
X-401510Y-12355D01*
X-398463Y-5000D01*
D02*
G37*
G36*
X-425000D02*
X-441537D01*
X-438490Y-12355D01*
X-432355Y-18491D01*
X-425000Y-21537D01*
Y-5000D01*
D02*
G37*
G36*
X201850Y-163502D02*
Y-180039D01*
X218387D01*
X215341Y-172685D01*
X209205Y-166549D01*
X201850Y-163502D01*
D02*
G37*
G36*
X191850D02*
X184495Y-166549D01*
X178360Y-172685D01*
X175313Y-180039D01*
X191850D01*
Y-163502D01*
D02*
G37*
G36*
X218387Y-190039D02*
X201850D01*
Y-206576D01*
X209205Y-203530D01*
X215341Y-197394D01*
X218387Y-190039D01*
D02*
G37*
G36*
X191850D02*
X175313D01*
X178360Y-197394D01*
X184495Y-203530D01*
X191850Y-206576D01*
Y-190039D01*
D02*
G37*
G36*
X-259752Y-229460D02*
Y-245997D01*
X-243214D01*
X-246261Y-238642D01*
X-252397Y-232506D01*
X-259752Y-229460D01*
D02*
G37*
G36*
X-269752D02*
X-277106Y-232506D01*
X-283242Y-238642D01*
X-286288Y-245997D01*
X-269752D01*
Y-229460D01*
D02*
G37*
G36*
X-243214Y-255997D02*
X-259752D01*
Y-272534D01*
X-252397Y-269487D01*
X-246261Y-263351D01*
X-243214Y-255997D01*
D02*
G37*
G36*
X-269752D02*
X-286288D01*
X-283242Y-263351D01*
X-277106Y-269487D01*
X-269752Y-272534D01*
Y-255997D01*
D02*
G37*
G36*
X92325Y-288445D02*
X84970Y-291491D01*
X78834Y-297627D01*
X75788Y-304982D01*
X92325D01*
Y-288445D01*
D02*
G37*
G36*
X235157Y-317046D02*
X227803Y-320092D01*
X221667Y-326228D01*
X218620Y-333583D01*
X235157D01*
Y-317046D01*
D02*
G37*
G36*
Y-343583D02*
X218620D01*
X221667Y-350938D01*
X227803Y-357073D01*
X235157Y-360120D01*
Y-343583D01*
D02*
G37*
G36*
X212005Y-380827D02*
X205317D01*
X199139Y-383386D01*
X194410Y-388115D01*
X191850Y-394294D01*
Y-400982D01*
X194410Y-407160D01*
X199139Y-411889D01*
X205317Y-414449D01*
X212005D01*
X218184Y-411889D01*
X222913Y-407160D01*
X225472Y-400982D01*
Y-394294D01*
X222913Y-388115D01*
X218184Y-383386D01*
X212005Y-380827D01*
D02*
G37*
%LPD*%
G36*
X375817Y149540D02*
X375454Y149593D01*
X375066Y149578D01*
X374654Y149494D01*
X374217Y149342D01*
X373756Y149122D01*
X373270Y148833D01*
X372759Y148475D01*
X372223Y148049D01*
X371079Y146992D01*
X367543Y150528D01*
X367980Y150990D01*
X368349Y151437D01*
X368651Y151867D01*
X368884Y152281D01*
X369050Y152679D01*
X369149Y153060D01*
X369179Y153425D01*
X369142Y153774D01*
X369037Y154107D01*
X368864Y154424D01*
X375817Y149540D01*
D02*
G37*
G36*
X359598Y154052D02*
X359494Y153727D01*
X359457Y153385D01*
X359488Y153027D01*
X359586Y152652D01*
X359750Y152260D01*
X359982Y151852D01*
X360280Y151427D01*
X360646Y150986D01*
X361079Y150528D01*
X357543Y146992D01*
X356961Y147553D01*
X355872Y148471D01*
X355366Y148828D01*
X354885Y149116D01*
X354429Y149337D01*
X353998Y149490D01*
X353593Y149575D01*
X353213Y149591D01*
X352858Y149540D01*
X359768Y154361D01*
X359598Y154052D01*
D02*
G37*
G36*
X501206Y24338D02*
X500917Y24503D01*
X500610Y24603D01*
X500286Y24637D01*
X499944Y24607D01*
X499585Y24510D01*
X499208Y24349D01*
X498814Y24123D01*
X498403Y23831D01*
X497974Y23474D01*
X497528Y23052D01*
X493992Y26587D01*
X494548Y27163D01*
X495460Y28235D01*
X495815Y28731D01*
X496103Y29200D01*
X496325Y29642D01*
X496479Y30057D01*
X496566Y30445D01*
X496587Y30807D01*
X496540Y31141D01*
X501206Y24338D01*
D02*
G37*
G36*
X497986Y16024D02*
X498427Y15658D01*
X498852Y15360D01*
X499260Y15128D01*
X499652Y14963D01*
X500027Y14866D01*
X500385Y14835D01*
X500727Y14872D01*
X501052Y14976D01*
X501361Y15146D01*
X496540Y8236D01*
X496591Y8591D01*
X496575Y8971D01*
X496490Y9376D01*
X496337Y9807D01*
X496116Y10263D01*
X495828Y10744D01*
X495471Y11250D01*
X495046Y11782D01*
X493992Y12921D01*
X497528Y16457D01*
X497986Y16024D01*
D02*
G37*
D45*
X381890Y-547244D02*
Y-28890D01*
X350394Y-578740D02*
X381890Y-547244D01*
X98425Y-338583D02*
X122047D01*
X153543Y-370079D01*
X-83932Y-290964D02*
X68233Y-443130D01*
X-525492Y-320964D02*
X-96358D01*
X13780Y-431102D01*
X-486686Y-300964D02*
X-88074D01*
X66060Y-455098D01*
X-503996Y-310964D02*
X-92216D01*
X-482544Y-290964D02*
X-83932D01*
X-92216Y-310964D02*
X41339Y-444519D01*
X-155874Y444882D02*
X200787D01*
X-425197Y175559D02*
X-155874Y444882D01*
X-200787Y350394D02*
X-181102Y330709D01*
X164856Y381890D02*
X196352Y413386D01*
X-204724Y381890D02*
X164856D01*
X-413386Y173228D02*
X-204724Y381890D01*
X303150Y330709D02*
X401575Y232283D01*
X-181102Y330709D02*
X303150D01*
X196352Y413386D02*
X200787D01*
X-228346Y-610236D02*
X-157480D01*
X73287Y-561476D02*
Y-516201D01*
Y-561476D02*
X98425Y-586614D01*
X68898Y-511811D02*
X73287Y-516201D01*
X-251969Y-515748D02*
Y-464567D01*
X-326772Y-389764D02*
X-251969Y-464567D01*
X-397638Y-389764D02*
X-322835Y-464567D01*
X-397638Y-389764D02*
Y-352047D01*
X-488189Y46181D02*
X-413386Y120984D01*
Y173228D01*
X-500272Y-340276D02*
X-498307D01*
X-228346Y-610236D01*
X-57374Y-178917D02*
X-25959Y-147502D01*
X-21517D01*
X-473524Y-178917D02*
X-57374D01*
X15500Y-110484D02*
X16461D01*
X-21517Y-147502D02*
X15500Y-110484D01*
X-550783Y-142131D02*
X-503937Y-188976D01*
X43313D02*
X70866Y-161423D01*
X-503937Y-188976D02*
X43313D01*
X1032Y-85683D02*
X1975D01*
X-1778Y-88493D02*
X1032Y-85683D01*
X-66555Y-168917D02*
X-1778Y-104140D01*
Y-88493D01*
X15748Y-110236D02*
X33586Y-92398D01*
X41339Y-511811D02*
Y-444519D01*
X-195284Y-340630D02*
X-106299D01*
X66060Y-455098D02*
X109626D01*
X13780Y-511811D02*
Y-431102D01*
X68233Y-443130D02*
X197500D01*
X-633858Y-153792D02*
X-486686Y-300964D01*
X-610236Y-163273D02*
X-482544Y-290964D01*
X-220787Y-366133D02*
X-195284Y-340630D01*
X70866Y-161423D02*
Y-161417D01*
X-453130Y-168917D02*
X-66555D01*
X-81490Y-146857D02*
X-78740Y-149606D01*
X261654Y-495858D02*
Y-194724D01*
X169291Y-102362D02*
X261654Y-194724D01*
X200787Y-102362D02*
X271654Y-173228D01*
Y-500000D02*
Y-173228D01*
X-614173Y-200787D02*
X-503996Y-310964D01*
X-661417Y-185039D02*
X-525492Y-320964D01*
X-490689Y-264718D02*
X-479377D01*
X-476378Y-267716D01*
X-354331Y-39370D02*
Y146664D01*
X-327772Y173223D01*
X-452756Y-137795D02*
X-354331Y-39370D01*
X-344331Y84803D02*
X-212598Y216536D01*
X-344331Y-64803D02*
Y84803D01*
X-419508Y-139980D02*
X-344331Y-64803D01*
X-212598Y216536D02*
X31496D01*
X-297255Y275216D02*
X102736D01*
X-425197Y129921D02*
Y175559D01*
X-403386Y103674D02*
Y169086D01*
X-297255Y275216D01*
X-421260Y-139980D02*
X-419508D01*
X-488189Y-169291D02*
X-483150D01*
X-473524Y-178917D01*
X-474028Y-148019D02*
X-453130Y-168917D01*
X-510224Y-148019D02*
X-474028D01*
X-610236Y-163273D02*
Y-47244D01*
X-633858Y-153792D02*
Y90551D01*
X-578740Y-176667D02*
X-490689Y-264718D01*
X-578740Y-176667D02*
Y-27559D01*
X-661417Y-185039D02*
Y-43307D01*
X-550783Y-142131D02*
Y36097D01*
X-220787Y-547244D02*
Y-366133D01*
X102736Y275216D02*
X125984Y251969D01*
X-502849Y4211D02*
X-403386Y103674D01*
X-502849Y-27559D02*
Y4211D01*
X-476752Y78366D02*
X-425197Y129921D01*
X-488189Y74803D02*
X-484626Y78366D01*
X-476752D01*
X90197Y-79094D02*
X324906D01*
X58858Y-92126D02*
X62264Y-88721D01*
X80571D02*
X90197Y-79094D01*
X62264Y-88721D02*
X80571D01*
X58858Y-69094D02*
X303906D01*
X363000Y-10000D01*
X361000Y-44350D02*
X371890Y-55240D01*
X361000Y-44350D02*
Y-43000D01*
X324906Y-79094D02*
X361000Y-43000D01*
X193196Y-19879D02*
Y27276D01*
X33586Y-92398D02*
X58858D01*
X180897Y-576614D02*
X261654Y-495858D01*
X-531496Y-27535D02*
Y100814D01*
Y-27535D02*
X-531471Y-27559D01*
X-371200Y261110D02*
Y411337D01*
X-531496Y100814D02*
X-371200Y261110D01*
X-605236Y90551D02*
X-550783Y36097D01*
X-125984Y-114173D02*
Y90551D01*
X-93301Y-146857D02*
X-81490D01*
X-125984Y-114173D02*
X-93301Y-146857D01*
X163261Y163510D02*
X314772Y12000D01*
X163261Y163510D02*
Y167198D01*
X314772Y12000D02*
X371411D01*
X94488Y125984D02*
X193196Y27276D01*
X94488Y125984D02*
Y161417D01*
X203622Y-437008D02*
X208661D01*
X197500Y-443130D02*
X203622Y-437008D01*
X109626Y-455098D02*
X124016Y-469488D01*
X392000Y-356682D02*
Y-8589D01*
X405512Y-374016D02*
Y-370194D01*
X392000Y-356682D02*
X405512Y-370194D01*
X371411Y12000D02*
X392000Y-8589D01*
X303150Y-594488D02*
X371890Y-525748D01*
Y-55240D01*
X271654Y-594488D02*
X303150D01*
X504941Y34000D02*
X508000D01*
X377000Y67000D02*
X378768Y65232D01*
X385182Y58818D01*
X385938Y59573D01*
X393009Y52502D01*
X392253Y51747D02*
X393009Y52502D01*
X392253Y51747D02*
X399325Y44676D01*
X402860Y48211D01*
X409931Y41140D01*
X406396Y37605D02*
X409931Y41140D01*
X406396Y37605D02*
X413467Y30534D01*
X413466Y30533D02*
X413467Y30534D01*
X413466Y30533D02*
X413467Y30533D01*
Y30533D02*
X415235Y28765D01*
X372245Y71755D02*
X377000Y67000D01*
X415235Y28765D02*
X415580Y28420D01*
X369311Y148760D02*
X378674Y158124D01*
Y161000D01*
X369311Y108845D02*
Y148760D01*
X369311Y74689D02*
X369593Y74407D01*
X369311Y74689D02*
Y108845D01*
X369311Y108845D01*
X369593Y74407D02*
X372245Y71755D01*
X415580Y28420D02*
X419181Y24819D01*
X495760D01*
X504941Y34000D01*
X359311Y70547D02*
X372319Y57539D01*
X505071Y5378D02*
X508000D01*
X415169Y14689D02*
X495760D01*
X359311Y70547D02*
Y148760D01*
X495760Y14689D02*
X505071Y5378D01*
X372319Y57539D02*
X415169Y14689D01*
X350000Y158071D02*
X359311Y148760D01*
X350000Y158071D02*
Y161000D01*
X401575Y232283D02*
X476378D01*
X476378Y232284D01*
X363000Y-10000D02*
X381890Y-28890D01*
X185039Y-586614D02*
X271654Y-500000D01*
X98425Y-586614D02*
X185039D01*
X115984Y-576614D02*
X180897D01*
X1975Y-85683D02*
X15159Y-72500D01*
X55453D01*
X-176736Y149606D02*
X-12878D01*
X-188976Y157480D02*
X-184610D01*
X-224409D02*
X-205098Y138169D01*
X-15583D02*
X-374Y122960D01*
X-205098Y138169D02*
X-15583D01*
X-184610Y157480D02*
X-176736Y149606D01*
X-12878D02*
X9626Y127103D01*
X-125984Y90551D02*
X-98425Y118110D01*
X31496Y216536D02*
X62691Y247730D01*
Y251293D01*
X124016Y-511811D02*
Y-469488D01*
X100847Y-561476D02*
X115984Y-576614D01*
X96457Y-511811D02*
X100847Y-516201D01*
Y-561476D02*
Y-516201D01*
X55453Y-72500D02*
X58858Y-69094D01*
X-374Y-9653D02*
X34602Y-44629D01*
X-374Y-9653D02*
Y122960D01*
X9626Y-5511D02*
X28636Y-24521D01*
X9626Y-5511D02*
Y127103D01*
X34602Y-44629D02*
X57425D01*
X58858Y-46063D01*
X28636Y-24521D02*
X57369D01*
X58858Y-23032D01*
D46*
X-186643Y-255905D02*
X122047D01*
X-208661Y-248031D02*
X-207012Y-249681D01*
X-192868D01*
X-186643Y-255905D01*
X-356981Y-204724D02*
X125984D01*
X-394732Y-243179D02*
Y-242769D01*
X-371525Y-219562D01*
Y-219268D01*
X125984Y-204724D02*
X161417Y-240157D01*
X-371525Y-219268D02*
X-356981Y-204724D01*
X120605Y-288844D02*
X122047Y-287402D01*
X208661D01*
X236220Y-259842D01*
D48*
X-53933Y-445779D02*
X-45922D01*
X-67008Y-458854D02*
X-53933Y-445779D01*
X-29277Y-429134D02*
X-25591D01*
X-45922Y-445779D02*
X-29277Y-429134D01*
X-68898Y-511811D02*
X-67008Y-509921D01*
Y-458854D01*
X-124126Y-511701D02*
X-124016Y-511811D01*
X-124126Y-511701D02*
Y-434606D01*
X-124237Y-434496D02*
X-124126Y-434606D01*
X-58858Y115157D02*
X-57953Y116063D01*
X-23208D02*
X-21997Y117274D01*
X-57953Y116063D02*
X-23208D01*
X96969Y93031D02*
X98425Y94488D01*
X-58858Y23032D02*
X-24212D01*
X-23622Y23622D01*
X95819Y91882D02*
X96969Y93031D01*
X59764D02*
X96969D01*
X58858Y92126D02*
X59764Y93031D01*
X95819Y80071D02*
Y91882D01*
X85748Y70000D02*
X95819Y80071D01*
X58858Y69094D02*
X59764Y70000D01*
X85748D01*
X-58858Y92126D02*
X-20679D01*
X-97539Y69980D02*
X-59744D01*
X-58858Y69094D01*
X-98425Y70866D02*
X-97539Y69980D01*
X-91826Y45157D02*
X-59764D01*
X-94739Y42244D02*
X-91826Y45157D01*
X-98425Y42244D02*
X-94739D01*
X58858Y115157D02*
X59055Y115354D01*
Y141732D01*
X-97000Y-112976D02*
X-95724Y-114252D01*
X-59764D01*
X-58858Y-115157D01*
X-98425Y0D02*
X-58858D01*
X-59764Y45157D02*
X-58858Y46063D01*
D49*
X-188976Y-578740D02*
X-157480Y-610236D01*
X-188976Y-578740D02*
Y-366142D01*
D50*
X-95472Y-510827D02*
Y-402559D01*
X-94488Y-401575D01*
X-96457Y-511811D02*
X-95472Y-510827D01*
D52*
X485039Y-113779D02*
D03*
Y113779D02*
D03*
D53*
X465354Y170079D02*
D03*
Y-170079D02*
D03*
D54*
X629921Y170079D02*
D03*
Y-170079D02*
D03*
D55*
X598425Y-59055D02*
D03*
Y0D02*
D03*
Y59055D02*
D03*
X397638Y468504D02*
D03*
Y531496D02*
D03*
X342520Y496063D02*
D03*
X-208661Y-629921D02*
D03*
X-165354Y-661417D02*
D03*
X259842Y-633858D02*
D03*
X208661Y-645669D02*
D03*
Y-602362D02*
D03*
X153543Y-653543D02*
D03*
Y-610236D02*
D03*
X0Y-602362D02*
D03*
Y-637795D02*
D03*
Y-673228D02*
D03*
X-602362Y23622D02*
D03*
X-665354D02*
D03*
X350394Y-578740D02*
D03*
X334646Y-165354D02*
D03*
Y-137795D02*
D03*
X196850Y-185039D02*
D03*
X-106299Y-229035D02*
D03*
X98425Y-338583D02*
D03*
X-208661Y-248031D02*
D03*
X342520Y437008D02*
D03*
X-397638Y-271654D02*
D03*
X-264752Y-250997D02*
D03*
X342520Y555118D02*
D03*
X600697Y298412D02*
D03*
X519685Y409449D02*
D03*
X-59055Y350394D02*
D03*
X0D02*
D03*
X-200787D02*
D03*
X59055D02*
D03*
Y409449D02*
D03*
X0D02*
D03*
X-59055D02*
D03*
Y468504D02*
D03*
X0D02*
D03*
X59055D02*
D03*
X-523504Y417279D02*
D03*
X-600696Y298412D02*
D03*
X649606Y59055D02*
D03*
Y0D02*
D03*
Y-59055D02*
D03*
X600697Y-298412D02*
D03*
X523504Y-417279D02*
D03*
X-523504Y-417279D02*
D03*
X-600696Y-298412D02*
D03*
X-157480Y-610236D02*
D03*
X-225606Y-149606D02*
D03*
X-322835Y-464567D02*
D03*
X-251969Y-515748D02*
D03*
X-18840Y-167693D02*
D03*
X1032Y-85683D02*
D03*
X16461Y-110484D02*
D03*
X-106299Y-340630D02*
D03*
X-25591Y-429134D02*
D03*
X-78740Y-149606D02*
D03*
X98425Y-137795D02*
D03*
X169291Y-102362D02*
D03*
X200787D02*
D03*
X-287402Y507874D02*
D03*
X208661Y-397638D02*
D03*
X-500272Y-340276D02*
D03*
X-394732Y-243179D02*
D03*
X-476378Y-267716D02*
D03*
X-327772Y173223D02*
D03*
X-374016Y165354D02*
D03*
X-421260Y-139980D02*
D03*
X-452756Y-137795D02*
D03*
X-488189Y-169291D02*
D03*
X-510224Y-148019D02*
D03*
X-614173Y-200787D02*
D03*
X-509718Y-218379D02*
D03*
X-539370Y-181102D02*
D03*
X-220787Y-547244D02*
D03*
X-188976Y-366142D02*
D03*
X-502849Y-27559D02*
D03*
X125984Y251969D02*
D03*
X193196Y-19879D02*
D03*
X-578740Y-27559D02*
D03*
X-531471D02*
D03*
X-371200Y411337D02*
D03*
X361000Y-43000D02*
D03*
X-20149Y64025D02*
D03*
X163261Y167198D02*
D03*
X239195Y140197D02*
D03*
X267716Y137795D02*
D03*
X-94488Y-401575D02*
D03*
X-326772Y-389764D02*
D03*
X153543Y-370079D02*
D03*
X97325Y-309982D02*
D03*
X120605Y-288844D02*
D03*
X161417Y-240157D02*
D03*
X122047Y-255905D02*
D03*
X-397638Y-352047D02*
D03*
X-124237Y-434496D02*
D03*
X236220Y-259842D02*
D03*
X42244Y-161417D02*
D03*
X70866D02*
D03*
X405512Y-374016D02*
D03*
X314961Y-555118D02*
D03*
X299213Y-503937D02*
D03*
X508000Y34000D02*
D03*
X378674Y161000D02*
D03*
X508000Y5378D02*
D03*
X350000Y161000D02*
D03*
X478000Y298000D02*
D03*
X476378Y232284D02*
D03*
X363000Y-10000D02*
D03*
X318898Y62992D02*
D03*
X-322835Y-125984D02*
D03*
X-125984Y248031D02*
D03*
X-22364Y117274D02*
D03*
X-98425Y118110D02*
D03*
X-291339Y362205D02*
D03*
X-188976Y157480D02*
D03*
X62691Y251293D02*
D03*
X98425Y94488D02*
D03*
X94488Y161417D02*
D03*
X200787Y413386D02*
D03*
X-488189Y74803D02*
D03*
Y46181D02*
D03*
X-204724Y255905D02*
D03*
X200787Y444882D02*
D03*
X-605236Y90551D02*
D03*
X-633858D02*
D03*
X-661417Y-43307D02*
D03*
X-610236Y-47244D02*
D03*
X271654Y-594488D02*
D03*
X-224409Y157480D02*
D03*
X-429134Y267716D02*
D03*
X267716Y216535D02*
D03*
X-267716D02*
D03*
X240157Y-338583D02*
D03*
X-22364Y23622D02*
D03*
Y92126D02*
D03*
X-98425Y70866D02*
D03*
Y42244D02*
D03*
X59055Y141732D02*
D03*
X-381890Y118110D02*
D03*
Y51181D02*
D03*
X-240157Y70866D02*
D03*
X-274987Y-117023D02*
D03*
X-283464Y20590D02*
D03*
X-239433Y35433D02*
D03*
X208661Y-437008D02*
D03*
X-419000Y47000D02*
D03*
X-420000Y0D02*
D03*
X-456000Y149000D02*
D03*
Y-102000D02*
D03*
X-238000Y-25000D02*
D03*
X-237000Y-87000D02*
D03*
X-97000Y-112976D02*
D03*
Y-83000D02*
D03*
X-472000Y354000D02*
D03*
X-428000Y451000D02*
D03*
X-425000Y512000D02*
D03*
X-98425Y0D02*
D03*
D56*
X-58858Y-115157D02*
D03*
Y-92126D02*
D03*
Y-69094D02*
D03*
Y-46063D02*
D03*
Y-23032D02*
D03*
Y0D02*
D03*
Y23032D02*
D03*
Y46063D02*
D03*
Y69094D02*
D03*
Y92126D02*
D03*
Y115157D02*
D03*
X58858Y-115157D02*
D03*
Y-92126D02*
D03*
Y-69094D02*
D03*
Y-46063D02*
D03*
Y-23032D02*
D03*
Y0D02*
D03*
Y23032D02*
D03*
Y46063D02*
D03*
Y69094D02*
D03*
Y92126D02*
D03*
Y115157D02*
D03*
D57*
X-151575Y-511811D02*
D03*
X-124016D02*
D03*
X-96457D02*
D03*
X-68898D02*
D03*
X-41339D02*
D03*
X-13780D02*
D03*
X13780D02*
D03*
X41339D02*
D03*
X68898D02*
D03*
X96457D02*
D03*
X124016D02*
D03*
X151575D02*
D03*
%TF.MD5,0dd869a968c6e610ae9eb18cf43b98d4*%
M02*
