%TF.GenerationSoftware,Altium Limited,Altium Designer,22.4.2 (48)*%
G04 Layer_Color=16711935*
%FSLAX26Y26*%
%MOIN*%
%TF.SameCoordinates,EEB37D52-3F05-4F2D-94FA-AFEEE7D9EDB4*%
%TF.FilePolarity,Negative*%
%TF.FileFunction,Soldermask,Bot*%
%TF.Part,Single*%
G01*
G75*
%TA.AperFunction,ComponentPad*%
%ADD98C,0.033591*%
%ADD99O,0.090677X0.049339*%
%ADD100O,0.078866X0.047370*%
%TA.AperFunction,SMDPad,CuDef*%
%ADD101R,0.047370X0.019811*%
%TA.AperFunction,ConnectorPad*%
%ADD102R,0.021779X0.106425*%
D98*
X485039Y-113779D02*
D03*
Y113779D02*
D03*
D99*
X465354Y170079D02*
D03*
Y-170079D02*
D03*
D100*
X629921Y170079D02*
D03*
Y-170079D02*
D03*
D101*
X-58858Y-115157D02*
D03*
Y-92126D02*
D03*
Y-69094D02*
D03*
Y-46063D02*
D03*
Y-23032D02*
D03*
Y0D02*
D03*
Y23032D02*
D03*
Y46063D02*
D03*
Y69094D02*
D03*
Y92126D02*
D03*
Y115157D02*
D03*
X58858Y-115157D02*
D03*
Y-92126D02*
D03*
Y-69094D02*
D03*
Y-46063D02*
D03*
Y-23032D02*
D03*
Y0D02*
D03*
Y23032D02*
D03*
Y46063D02*
D03*
Y69094D02*
D03*
Y92126D02*
D03*
Y115157D02*
D03*
D102*
X-151575Y-511811D02*
D03*
X-124016D02*
D03*
X-96457D02*
D03*
X-68898D02*
D03*
X-41339D02*
D03*
X-13780D02*
D03*
X13780D02*
D03*
X41339D02*
D03*
X68898D02*
D03*
X96457D02*
D03*
X124016D02*
D03*
X151575D02*
D03*
%TF.MD5,f4364c111267c74ddfc36034decfc07c*%
M02*
