M48
;Layer_Color=9474304
;FILE_FORMAT=2:5
INCH,LZ
;TYPE=PLATED
T1F00S00C0.01181
;TYPE=NON_PLATED
T3F00S00C0.02559
%
T01
X-005235Y-0041728
X-0050027Y-0034028
X-0047638Y-0026772
X-0050972Y-0021838
X-0053937Y-001811
X-0051022Y-0014802
X-0048819Y-0016929
X-0045276Y-001378
X-0042126Y-0013998
X-00456Y-00102
X-0032283Y-0012598
X-0027499Y-0011702
X-00237Y-00087
X-0022561Y-0014961
X-0020866Y-0024803
X-0026475Y-00251
X-0039473Y-0024318
X-0039764Y-0027165
Y-0035205
X-0032677Y-0038976
X-0032283Y-0046457
X-0025197Y-0051575
X-0022079Y-0054724
X-0020866Y-0062992
X-0015748Y-0061024
X-0016535Y-0066142
X-0012424Y-004345
X-0009449Y-0040157
X-001063Y-0034063
X-0018898Y-0036614
X-001063Y-0022904
X-0007874Y-0014961
X-00097Y-0011298
Y-00083
X-0002559Y-0042913
X-006007Y-0029841
X-0061417Y-0020079
X-0001884Y-0016769
X0004224Y-0016142
X0007087
X0009843Y-001378
X0016929Y-0010236
X0020079
X0019685Y-0018504
X0016142Y-0024016
X0012205Y-0025591
X001206Y-0028884
X0009732Y-0030998
X0009843Y-0033858
X0015354Y-0037008
X0020866Y-0039764
Y-0043701
X0024016Y-0033858
X0023622Y-0025984
X0033465Y-0016535
Y-001378
X0040551Y-0037402
X005235Y-0041728
X006007Y-0029841
X0029921Y-0050394
X0031496Y-0055512
X0035039Y-0057874
X0027165Y-0059449
X0025984Y-0063386
X0020866Y-0064567
Y-0060236
X0015354Y-0061024
Y-0065354
X0Y-0063779
Y-0067323
Y-0060236
X0001646Y-0011048
X0000103Y-0008568
X-0002015Y0006402
X0009843Y0009449
X0009449Y0016142
X0005906Y0014173
X0006269Y0025129
X0012598Y0025197
X0016326Y001672
X002392Y001402
X0026772Y001378
Y0021654
X0035Y00161
X0037867Y00161
X003189Y0006299
X00363Y-0001
X00361Y-00043
X001932Y-0001988
X00508Y0000538
Y00034
X0059842Y0005906
X0064961
Y0
X0059842
Y-0005906
X0064961
X006007Y0029841
X00478Y00298
X0047638Y0023228
X0051968Y0040945
X0039764Y004685
Y005315
X0034252Y0055512
Y0049606
Y0043701
X0020079Y0044488
Y0041339
X0005906Y0040945
Y0035039
X0
Y0040945
Y004685
X0005906
X-0005906
Y0040945
Y0035039
X-0020079
X-0020472Y0025591
X-0012598Y0024803
X-0018898Y0015748
X-0022441
X-0026772Y0021654
X-0032777Y0017322
X-0037402Y0016535
X-0038189Y0011811
Y0005118
X-00419Y00047
X-0042Y0
X-0050285Y-0002756
X-0053147
X-0057874
X-0061024Y-0004724
X-0066142Y-0004331
X-0066535Y0002362
X-0060236
X-0060524Y0009055
X-0063386
X-0048819Y000748
Y0004618
X-00456Y00149
X-0042913Y0026772
X-00472Y00354
X-005235Y0041728
X-00428Y00451
X-00425Y00512
X-002874Y0050787
X-0029134Y003622
X-003712Y0041134
X-006007Y0029841
X-0024016Y0007087
X-0023943Y0003543
X-0028346Y0002059
X-00238Y-00025
X-0009843Y0
Y0004224
Y0007087
Y0011811
X-0002236Y0011727
Y0009213
Y0002362
T03
X0048504Y-0011378
Y0011378
M30
