%TF.GenerationSoftware,Altium Limited,Altium Designer,22.4.2 (48)*%
G04 Layer_Color=8421504*
%FSLAX26Y26*%
%MOIN*%
%TF.SameCoordinates,E4631C7E-FC5E-4278-A014-371310923930*%
%TF.FilePolarity,Positive*%
%TF.FileFunction,Paste,Top*%
%TF.Part,Single*%
G01*
G75*
%TA.AperFunction,SMDPad,CuDef*%
%ADD10R,0.031496X0.031496*%
%TA.AperFunction,ConnectorPad*%
%ADD12R,0.047244X0.017716*%
%ADD13R,0.017716X0.047244*%
%TA.AperFunction,SMDPad,CuDef*%
G04:AMPARAMS|DCode=14|XSize=43.307mil|YSize=39.37mil|CornerRadius=2.953mil|HoleSize=0mil|Usage=FLASHONLY|Rotation=180.000|XOffset=0mil|YOffset=0mil|HoleType=Round|Shape=RoundedRectangle|*
%AMROUNDEDRECTD14*
21,1,0.043307,0.033465,0,0,180.0*
21,1,0.037401,0.039370,0,0,180.0*
1,1,0.005906,-0.018701,0.016732*
1,1,0.005906,0.018701,0.016732*
1,1,0.005906,0.018701,-0.016732*
1,1,0.005906,-0.018701,-0.016732*
%
%ADD14ROUNDEDRECTD14*%
%ADD15R,0.031496X0.009842*%
%ADD16R,0.041339X0.084646*%
%ADD17R,0.051181X0.007874*%
%ADD18R,0.007874X0.015748*%
G04:AMPARAMS|DCode=19|XSize=15.748mil|YSize=47.244mil|CornerRadius=1.968mil|HoleSize=0mil|Usage=FLASHONLY|Rotation=90.000|XOffset=0mil|YOffset=0mil|HoleType=Round|Shape=RoundedRectangle|*
%AMROUNDEDRECTD19*
21,1,0.015748,0.043307,0,0,90.0*
21,1,0.011811,0.047244,0,0,90.0*
1,1,0.003937,0.021654,0.005906*
1,1,0.003937,0.021654,-0.005906*
1,1,0.003937,-0.021654,-0.005906*
1,1,0.003937,-0.021654,0.005906*
%
%ADD19ROUNDEDRECTD19*%
G04:AMPARAMS|DCode=20|XSize=43.307mil|YSize=39.37mil|CornerRadius=2.953mil|HoleSize=0mil|Usage=FLASHONLY|Rotation=90.000|XOffset=0mil|YOffset=0mil|HoleType=Round|Shape=RoundedRectangle|*
%AMROUNDEDRECTD20*
21,1,0.043307,0.033465,0,0,90.0*
21,1,0.037401,0.039370,0,0,90.0*
1,1,0.005906,0.016732,0.018701*
1,1,0.005906,0.016732,-0.018701*
1,1,0.005906,-0.016732,-0.018701*
1,1,0.005906,-0.016732,0.018701*
%
%ADD20ROUNDEDRECTD20*%
%ADD21O,0.017716X0.055118*%
G04:AMPARAMS|DCode=22|XSize=78.74mil|YSize=118.11mil|CornerRadius=19.685mil|HoleSize=0mil|Usage=FLASHONLY|Rotation=0.000|XOffset=0mil|YOffset=0mil|HoleType=Round|Shape=RoundedRectangle|*
%AMROUNDEDRECTD22*
21,1,0.078740,0.078740,0,0,0.0*
21,1,0.039370,0.118110,0,0,0.0*
1,1,0.039370,0.019685,-0.039370*
1,1,0.039370,-0.019685,-0.039370*
1,1,0.039370,-0.019685,0.039370*
1,1,0.039370,0.019685,0.039370*
%
%ADD22ROUNDEDRECTD22*%
G04:AMPARAMS|DCode=23|XSize=43.307mil|YSize=39.37mil|CornerRadius=3.937mil|HoleSize=0mil|Usage=FLASHONLY|Rotation=90.000|XOffset=0mil|YOffset=0mil|HoleType=Round|Shape=RoundedRectangle|*
%AMROUNDEDRECTD23*
21,1,0.043307,0.031496,0,0,90.0*
21,1,0.035433,0.039370,0,0,90.0*
1,1,0.007874,0.015748,0.017717*
1,1,0.007874,0.015748,-0.017717*
1,1,0.007874,-0.015748,-0.017717*
1,1,0.007874,-0.015748,0.017717*
%
%ADD23ROUNDEDRECTD23*%
%TA.AperFunction,ConnectorPad*%
%ADD24R,0.045276X0.011811*%
%ADD25R,0.045276X0.023622*%
%TA.AperFunction,SMDPad,CuDef*%
G04:AMPARAMS|DCode=26|XSize=31.496mil|YSize=57.087mil|CornerRadius=0mil|HoleSize=0mil|Usage=FLASHONLY|Rotation=213.000|XOffset=0mil|YOffset=0mil|HoleType=Round|Shape=Rectangle|*
%AMROTATEDRECTD26*
4,1,4,-0.002338,0.032516,0.028753,-0.015361,0.002338,-0.032516,-0.028753,0.015361,-0.002338,0.032516,0.0*
%
%ADD26ROTATEDRECTD26*%

G04:AMPARAMS|DCode=27|XSize=35.433mil|YSize=50mil|CornerRadius=0mil|HoleSize=0mil|Usage=FLASHONLY|Rotation=123.000|XOffset=0mil|YOffset=0mil|HoleType=Round|Shape=Rectangle|*
%AMROTATEDRECTD27*
4,1,4,0.030616,-0.001242,-0.011318,-0.028474,-0.030616,0.001242,0.011318,0.028474,0.030616,-0.001242,0.0*
%
%ADD27ROTATEDRECTD27*%

%ADD28R,0.070866X0.039370*%
G04:AMPARAMS|DCode=29|XSize=43.307mil|YSize=39.37mil|CornerRadius=3.937mil|HoleSize=0mil|Usage=FLASHONLY|Rotation=180.000|XOffset=0mil|YOffset=0mil|HoleType=Round|Shape=RoundedRectangle|*
%AMROUNDEDRECTD29*
21,1,0.043307,0.031496,0,0,180.0*
21,1,0.035433,0.039370,0,0,180.0*
1,1,0.007874,-0.017717,0.015748*
1,1,0.007874,0.017717,0.015748*
1,1,0.007874,0.017717,-0.015748*
1,1,0.007874,-0.017717,-0.015748*
%
%ADD29ROUNDEDRECTD29*%
%ADD30R,0.023622X0.009842*%
%ADD31R,0.009842X0.023622*%
%ADD32R,0.068898X0.057087*%
%ADD33R,0.029528X0.011811*%
%ADD34R,0.031496X0.015748*%
%ADD35R,0.015748X0.031496*%
G04:AMPARAMS|DCode=36|XSize=35.433mil|YSize=50mil|CornerRadius=0mil|HoleSize=0mil|Usage=FLASHONLY|Rotation=57.000|XOffset=0mil|YOffset=0mil|HoleType=Round|Shape=Rectangle|*
%AMROTATEDRECTD36*
4,1,4,0.011318,-0.028474,-0.030616,-0.001242,-0.011318,0.028474,0.030616,0.001242,0.011318,-0.028474,0.0*
%
%ADD36ROTATEDRECTD36*%

G04:AMPARAMS|DCode=37|XSize=31.496mil|YSize=57.087mil|CornerRadius=0mil|HoleSize=0mil|Usage=FLASHONLY|Rotation=147.000|XOffset=0mil|YOffset=0mil|HoleType=Round|Shape=Rectangle|*
%AMROTATEDRECTD37*
4,1,4,0.028753,0.015361,-0.002338,-0.032516,-0.028753,-0.015361,0.002338,0.032516,0.028753,0.015361,0.0*
%
%ADD37ROTATEDRECTD37*%

%ADD38C,0.006693*%
%TA.AperFunction,ConnectorPad*%
G04:AMPARAMS|DCode=39|XSize=31.496mil|YSize=57.087mil|CornerRadius=0mil|HoleSize=0mil|Usage=FLASHONLY|Rotation=33.000|XOffset=0mil|YOffset=0mil|HoleType=Round|Shape=Rectangle|*
%AMROTATEDRECTD39*
4,1,4,0.002338,-0.032516,-0.028753,0.015361,-0.002338,0.032516,0.028753,-0.015361,0.002338,-0.032516,0.0*
%
%ADD39ROTATEDRECTD39*%

G04:AMPARAMS|DCode=40|XSize=35.433mil|YSize=50mil|CornerRadius=0mil|HoleSize=0mil|Usage=FLASHONLY|Rotation=303.000|XOffset=0mil|YOffset=0mil|HoleType=Round|Shape=Rectangle|*
%AMROTATEDRECTD40*
4,1,4,-0.030616,0.001242,0.011318,0.028474,0.030616,-0.001242,-0.011318,-0.028474,-0.030616,0.001242,0.0*
%
%ADD40ROTATEDRECTD40*%

%TA.AperFunction,SMDPad,CuDef*%
G04:AMPARAMS|DCode=41|XSize=43.307mil|YSize=39.37mil|CornerRadius=2.953mil|HoleSize=0mil|Usage=FLASHONLY|Rotation=60.000|XOffset=0mil|YOffset=0mil|HoleType=Round|Shape=RoundedRectangle|*
%AMROUNDEDRECTD41*
21,1,0.043307,0.033465,0,0,60.0*
21,1,0.037401,0.039370,0,0,60.0*
1,1,0.005906,0.023841,0.007829*
1,1,0.005906,0.005140,-0.024561*
1,1,0.005906,-0.023841,-0.007829*
1,1,0.005906,-0.005140,0.024561*
%
%ADD41ROUNDEDRECTD41*%
G04:AMPARAMS|DCode=42|XSize=43.307mil|YSize=39.37mil|CornerRadius=3.937mil|HoleSize=0mil|Usage=FLASHONLY|Rotation=60.000|XOffset=0mil|YOffset=0mil|HoleType=Round|Shape=RoundedRectangle|*
%AMROUNDEDRECTD42*
21,1,0.043307,0.031496,0,0,60.0*
21,1,0.035433,0.039370,0,0,60.0*
1,1,0.007874,0.022497,0.007469*
1,1,0.007874,0.004780,-0.023217*
1,1,0.007874,-0.022497,-0.007469*
1,1,0.007874,-0.004780,0.023217*
%
%ADD42ROUNDEDRECTD42*%
%TA.AperFunction,ConnectorPad*%
G04:AMPARAMS|DCode=43|XSize=35.433mil|YSize=50mil|CornerRadius=0mil|HoleSize=0mil|Usage=FLASHONLY|Rotation=237.000|XOffset=0mil|YOffset=0mil|HoleType=Round|Shape=Rectangle|*
%AMROTATEDRECTD43*
4,1,4,-0.011318,0.028474,0.030616,0.001242,0.011318,-0.028474,-0.030616,-0.001242,-0.011318,0.028474,0.0*
%
%ADD43ROTATEDRECTD43*%

G04:AMPARAMS|DCode=44|XSize=31.496mil|YSize=57.087mil|CornerRadius=0mil|HoleSize=0mil|Usage=FLASHONLY|Rotation=327.000|XOffset=0mil|YOffset=0mil|HoleType=Round|Shape=Rectangle|*
%AMROTATEDRECTD44*
4,1,4,-0.028753,-0.015361,0.002338,0.032516,0.028753,0.015361,-0.002338,-0.032516,-0.028753,-0.015361,0.0*
%
%ADD44ROTATEDRECTD44*%

%TA.AperFunction,OtherPad,Free Pad (-70.866mil,342.52mil)*%
%ADD103R,0.057087X0.057087*%
%TA.AperFunction,OtherPad,Free Pad (-70.866mil,484.252mil)*%
%ADD104R,0.057087X0.057087*%
%TA.AperFunction,OtherPad,Free Pad (70.866mil,484.252mil)*%
%ADD105R,0.057087X0.057087*%
%TA.AperFunction,OtherPad,Free Pad (70.866mil,342.52mil)*%
%ADD106R,0.057087X0.057087*%
%TA.AperFunction,OtherPad,Free Pad (0.314mil,340.152mil)*%
%ADD107R,0.057087X0.057087*%
%TA.AperFunction,OtherPad,Free Pad (0mil,484.252mil)*%
%ADD108R,0.057087X0.057087*%
%TA.AperFunction,OtherPad,Free Pad (-70.866mil,413.386mil)*%
%ADD109R,0.057087X0.057087*%
%TA.AperFunction,OtherPad,Free Pad (70.866mil,413.386mil)*%
%ADD110R,0.057087X0.057087*%
%TA.AperFunction,OtherPad,Free Pad (0mil,413.386mil)*%
%ADD111R,0.057087X0.057087*%
D10*
X232284Y610236D02*
D03*
X-232284Y216535D02*
D03*
Y610236D02*
D03*
X232284Y216535D02*
D03*
D12*
X-246063Y570866D02*
D03*
Y539370D02*
D03*
Y507874D02*
D03*
Y476378D02*
D03*
Y444882D02*
D03*
Y413386D02*
D03*
Y381890D02*
D03*
Y350394D02*
D03*
Y318898D02*
D03*
Y287401D02*
D03*
Y255905D02*
D03*
X246063Y570866D02*
D03*
Y539370D02*
D03*
Y507874D02*
D03*
Y476378D02*
D03*
Y444882D02*
D03*
Y413386D02*
D03*
Y381890D02*
D03*
Y350394D02*
D03*
Y318898D02*
D03*
Y287401D02*
D03*
Y255905D02*
D03*
D13*
X-188976Y620079D02*
D03*
X-157480D02*
D03*
X-125984D02*
D03*
X-94488D02*
D03*
X-62992D02*
D03*
X-31496D02*
D03*
X0D02*
D03*
X31496D02*
D03*
X62992D02*
D03*
X94488D02*
D03*
X125984D02*
D03*
X157480D02*
D03*
X188976D02*
D03*
Y206693D02*
D03*
X157480D02*
D03*
X125984D02*
D03*
X94488D02*
D03*
X62992D02*
D03*
X31496D02*
D03*
X0D02*
D03*
X-31496D02*
D03*
X-62992D02*
D03*
X-94488D02*
D03*
X-125984D02*
D03*
X-157480D02*
D03*
X-188976D02*
D03*
D14*
X-9944Y-323001D02*
D03*
Y-260009D02*
D03*
X-279528Y-466535D02*
D03*
Y-403543D02*
D03*
X378000Y-84504D02*
D03*
Y-147496D02*
D03*
X19685Y3937D02*
D03*
Y66929D02*
D03*
X370079Y358268D02*
D03*
Y295276D02*
D03*
X429134Y232284D02*
D03*
Y295276D02*
D03*
X-326772Y275591D02*
D03*
Y212598D02*
D03*
X-385827Y330709D02*
D03*
Y267716D02*
D03*
X-342520Y-78740D02*
D03*
Y-15748D02*
D03*
X-354331Y-283465D02*
D03*
Y-346457D02*
D03*
X-220472Y-403543D02*
D03*
Y-466535D02*
D03*
X342520Y-503937D02*
D03*
Y-440945D02*
D03*
D15*
X222638Y39370D02*
D03*
Y19685D02*
D03*
Y0D02*
D03*
Y-19685D02*
D03*
Y-39370D02*
D03*
X320669Y39370D02*
D03*
Y19685D02*
D03*
Y0D02*
D03*
Y-19685D02*
D03*
Y-39370D02*
D03*
D16*
X271654Y0D02*
D03*
D17*
X-291339Y-177165D02*
D03*
D18*
X-267717Y-154134D02*
D03*
X-283465D02*
D03*
X-299213D02*
D03*
X-314961D02*
D03*
X-267717Y-200197D02*
D03*
X-283465D02*
D03*
X-299213D02*
D03*
X-314961D02*
D03*
D19*
X283464Y-337599D02*
D03*
Y-312008D02*
D03*
Y-286417D02*
D03*
Y-260827D02*
D03*
X59055Y-337599D02*
D03*
Y-312008D02*
D03*
Y-286417D02*
D03*
Y-260827D02*
D03*
D20*
X-580551Y-161417D02*
D03*
X-643543D02*
D03*
X59055Y-200787D02*
D03*
X122047D02*
D03*
X251969Y-94488D02*
D03*
X314961D02*
D03*
X200787Y125984D02*
D03*
X137795D02*
D03*
X-322835Y452756D02*
D03*
X-385827D02*
D03*
X-283465Y118110D02*
D03*
X-346457D02*
D03*
X-448819Y208661D02*
D03*
X-385827D02*
D03*
X-283465Y59055D02*
D03*
X-346457D02*
D03*
X-185039Y-149606D02*
D03*
X-122047D02*
D03*
X-425197Y-212598D02*
D03*
X-362205D02*
D03*
X122047Y-405512D02*
D03*
X59055D02*
D03*
X-59055Y-397638D02*
D03*
X3937D02*
D03*
X59055Y-464567D02*
D03*
X122047D02*
D03*
D21*
X-660433Y-92520D02*
D03*
X-634842D02*
D03*
X-609252D02*
D03*
X-583661D02*
D03*
X-558071D02*
D03*
X-532480D02*
D03*
X-506890D02*
D03*
X-481299D02*
D03*
X-660433Y139764D02*
D03*
X-634842D02*
D03*
X-609252D02*
D03*
X-583661D02*
D03*
X-558071D02*
D03*
X-532480D02*
D03*
X-506890D02*
D03*
X-481299D02*
D03*
D22*
X-78740Y-622047D02*
D03*
X78740D02*
D03*
D23*
X3937Y-200787D02*
D03*
X-59055D02*
D03*
X196850Y-141732D02*
D03*
X133858D02*
D03*
X318898Y98425D02*
D03*
X255906D02*
D03*
X-322835Y511811D02*
D03*
X-385827D02*
D03*
X-200787Y35433D02*
D03*
X-137795D02*
D03*
Y-23622D02*
D03*
X-200787D02*
D03*
Y-86614D02*
D03*
X-137795D02*
D03*
Y94488D02*
D03*
X-200787D02*
D03*
X-153543Y-208661D02*
D03*
X-216536D02*
D03*
X-232283Y-283465D02*
D03*
X-295276D02*
D03*
Y-342520D02*
D03*
X-232283D02*
D03*
X-59055Y-464567D02*
D03*
X3937D02*
D03*
X177165Y-492126D02*
D03*
X240157D02*
D03*
X346457Y-204724D02*
D03*
X283464D02*
D03*
X340327Y-263589D02*
D03*
X403319D02*
D03*
D24*
X442717Y-49213D02*
D03*
Y-29528D02*
D03*
Y68898D02*
D03*
Y49213D02*
D03*
Y29528D02*
D03*
Y-9842D02*
D03*
Y9842D02*
D03*
Y-68898D02*
D03*
D25*
Y94488D02*
D03*
Y125984D02*
D03*
Y-94488D02*
D03*
Y-125984D02*
D03*
D26*
X485935Y466817D02*
D03*
X630671Y243942D02*
D03*
D27*
X451034Y384300D02*
D03*
X541092Y245622D02*
D03*
D28*
X125984Y-41339D02*
D03*
Y57087D02*
D03*
D29*
X-419134Y149606D02*
D03*
Y86614D02*
D03*
X-326772Y330709D02*
D03*
Y393701D02*
D03*
X-283465Y-78740D02*
D03*
Y-15748D02*
D03*
X-419134Y-39370D02*
D03*
Y-102362D02*
D03*
X341773Y-323026D02*
D03*
Y-386018D02*
D03*
D30*
X-51181Y-68898D02*
D03*
Y-88583D02*
D03*
Y-108268D02*
D03*
Y-127953D02*
D03*
X51181D02*
D03*
Y-108268D02*
D03*
Y-88583D02*
D03*
Y-68898D02*
D03*
D31*
X-19685Y-139764D02*
D03*
X0D02*
D03*
X19685D02*
D03*
Y-57087D02*
D03*
X0D02*
D03*
X-19685D02*
D03*
D32*
X-122047Y-295276D02*
D03*
D33*
X-179134Y-265748D02*
D03*
Y-285433D02*
D03*
Y-305118D02*
D03*
Y-324803D02*
D03*
X-64961Y-265748D02*
D03*
Y-285433D02*
D03*
Y-305118D02*
D03*
Y-324803D02*
D03*
D34*
X242126Y-417323D02*
D03*
X175197Y-437008D02*
D03*
Y-397638D02*
D03*
D35*
X-145669Y-468504D02*
D03*
X-165354Y-401575D02*
D03*
X-125984D02*
D03*
D36*
X451034Y-384300D02*
D03*
X541092Y-245622D02*
D03*
D37*
X485935Y-466817D02*
D03*
X630671Y-243942D02*
D03*
D38*
X314961Y-578740D02*
D03*
Y-594488D02*
D03*
X299213Y-578740D02*
D03*
Y-594488D02*
D03*
D39*
X-485935Y-466817D02*
D03*
X-630671Y-243942D02*
D03*
D40*
X-451034Y-384300D02*
D03*
X-541092Y-245622D02*
D03*
D41*
X-277273Y-548827D02*
D03*
X-331825Y-517331D02*
D03*
D42*
X-307369Y-602362D02*
D03*
X-361922Y-570866D02*
D03*
D43*
X-451034Y384300D02*
D03*
X-541092Y245622D02*
D03*
D44*
X-485935Y466817D02*
D03*
X-630671Y243942D02*
D03*
D103*
X-70866Y342520D02*
D03*
D104*
Y484252D02*
D03*
D105*
X70866D02*
D03*
D106*
Y342520D02*
D03*
D107*
X314Y340152D02*
D03*
D108*
X0Y484252D02*
D03*
D109*
X-70866Y413386D02*
D03*
D110*
X70866D02*
D03*
D111*
X0D02*
D03*
%TF.MD5,7c40438fc790433de68b6e72efc55222*%
M02*
